{"glyphs":{"0":{"ha":904,"x_min":0,"x_max":0,"o":"m 94 697 b 211 981 94 808 133 903 b 494 1099 290 1060 385 1099 b 778 981 606 1099 700 1060 b 896 697 857 903 896 808 l 896 389 b 778 106 896 279 857 185 b 494 -11 700 28 606 -11 b 211 106 385 -11 290 28 b 94 389 133 185 94 279 z m 119 389 b 229 124 119 285 156 197 b 494 14 303 50 390 14 b 760 124 599 14 686 50 b 871 389 833 197 871 285 l 871 697 b 760 963 871 801 833 889 b 494 1074 686 1036 599 1074 b 229 963 390 1074 303 1036 b 119 697 156 889 119 801 z m 194 697 b 282 910 194 781 224 851 b 494 999 342 969 413 999 b 707 910 578 999 649 969 b 796 697 767 851 796 781 l 796 389 b 707 176 796 307 767 236 b 494 88 649 117 578 88 b 282 176 413 88 342 117 b 194 389 224 236 194 307 z m 219 389 b 299 193 219 313 246 247 b 494 113 353 139 418 113 b 689 193 571 113 635 139 b 771 389 743 247 771 313 l 771 697 b 689 892 771 774 743 838 b 494 974 635 946 571 974 b 299 892 418 974 353 946 b 219 697 246 838 219 774 z m 293 697 b 351 839 293 753 313 800 b 494 899 392 879 439 899 b 638 839 551 899 599 879 b 696 697 676 800 696 753 l 696 389 b 638 246 696 333 676 286 b 494 188 599 207 551 188 b 351 246 439 188 392 207 b 293 389 313 286 293 333 z m 318 389 b 369 264 318 340 335 299 b 494 213 404 229 446 213 b 619 264 543 213 585 229 b 671 389 654 299 671 340 l 671 697 b 619 822 671 746 654 788 b 494 874 585 857 543 874 b 369 822 446 874 404 857 b 318 697 335 788 318 746 z m 243 697 b 317 874 243 765 268 825 b 494 949 367 924 426 949 b 672 874 564 949 624 924 b 746 697 721 825 746 765 l 746 389 b 672 211 746 321 721 261 b 494 138 624 163 564 138 b 317 211 426 138 367 163 b 243 389 268 261 243 321 z m 268 389 b 335 229 268 326 290 274 b 494 163 379 185 432 163 b 654 229 557 163 611 185 b 721 389 699 274 721 326 l 721 697 b 654 857 721 760 699 814 b 494 924 611 901 557 924 b 335 857 432 924 379 901 b 268 697 290 814 268 760 z m 169 389 b 264 157 169 299 201 221 b 494 63 328 94 404 63 b 725 158 585 63 663 94 b 821 389 789 222 821 299 l 821 697 b 725 928 821 788 789 864 b 494 1024 663 992 585 1024 b 264 928 404 1024 328 992 b 169 697 201 865 169 788 z m 144 697 b 247 946 144 794 179 878 b 494 1049 315 1014 399 1049 b 743 946 592 1049 675 1014 b 846 697 811 878 846 794 l 846 389 b 743 140 846 293 811 210 b 494 38 675 72 592 38 b 247 140 399 38 315 72 b 144 389 179 210 144 293 z "},"1":{"ha":904,"x_min":0,"x_max":0,"o":"m 510 1086 l 510 0 l 485 0 l 485 1086 z m 560 1086 l 560 0 l 535 0 l 535 1086 z m 610 1086 l 610 0 l 585 0 l 585 1086 z m 660 1086 l 660 0 l 635 0 l 635 1086 z m 435 821 l 258 713 l 246 732 l 435 851 l 435 881 l 232 754 l 219 775 l 435 910 l 435 940 l 206 796 l 192 818 l 435 969 l 435 999 l 179 839 l 165 860 l 435 1028 l 435 1058 l 153 881 l 139 903 l 435 1086 l 460 1086 l 460 0 l 435 0 z "},"2":{"ha":904,"x_min":0,"x_max":0,"o":"m 140 25 l 829 25 l 829 0 l 122 0 z m 178 75 l 829 75 l 829 50 l 158 50 z m 213 125 l 829 125 l 829 100 l 196 100 z m 250 175 l 829 175 l 829 150 l 232 150 z m 610 668 b 636 744 628 692 636 718 b 507 874 636 815 578 874 b 378 744 436 874 378 815 b 438 638 378 699 397 664 l 422 617 b 353 744 376 646 353 689 b 507 899 353 829 422 899 b 661 744 592 899 661 829 b 632 654 661 711 651 681 l 317 225 l 346 225 l 651 642 b 686 744 675 674 686 707 b 633 871 686 793 668 836 b 507 924 599 906 556 924 b 381 871 458 924 415 906 b 328 744 346 836 328 793 b 408 596 328 681 354 631 l 393 575 b 303 744 333 615 303 672 b 363 888 303 800 322 847 b 507 949 403 928 450 949 b 650 888 563 949 610 928 b 711 744 690 847 711 800 b 674 628 711 701 699 663 l 378 225 l 410 225 l 694 615 b 736 744 722 653 736 696 b 668 906 736 807 714 861 b 507 974 624 951 569 974 b 344 906 444 974 390 951 b 278 744 300 861 278 807 b 379 556 278 663 311 600 l 363 536 b 253 744 289 588 253 657 b 326 924 253 814 278 874 b 507 999 376 974 436 999 b 686 924 576 999 636 974 b 761 744 736 874 761 814 b 715 600 761 690 746 642 l 440 225 l 469 225 l 738 588 b 786 744 769 631 786 683 b 704 942 786 821 758 888 b 507 1024 650 996 583 1024 b 310 942 431 1024 364 996 b 228 744 256 888 228 821 b 349 515 228 649 268 572 l 333 494 b 204 744 247 557 204 640 b 293 958 204 828 233 899 b 507 1049 353 1018 424 1049 b 719 958 590 1049 661 1018 b 808 744 779 899 808 828 b 757 574 808 678 792 621 l 503 225 l 533 225 l 779 561 b 835 744 817 613 835 674 b 738 976 835 835 803 913 b 507 1074 674 1042 597 1074 b 275 976 417 1074 340 1042 b 178 744 210 913 178 835 b 319 475 178 629 225 540 l 306 456 b 154 744 215 515 154 626 b 257 994 154 843 189 926 b 507 1099 325 1064 408 1099 b 756 994 604 1099 688 1064 b 858 744 824 926 858 843 b 800 549 858 668 839 603 l 564 225 l 829 225 l 829 200 l 267 200 z "},"3":{"ha":904,"x_min":0,"x_max":0,"o":"m 390 592 l 390 617 l 453 617 b 582 744 524 617 582 674 b 453 874 582 815 524 874 b 328 778 393 874 343 833 l 307 797 b 453 899 333 865 382 899 b 607 744 538 899 607 829 b 561 636 607 703 592 667 b 453 592 532 607 496 592 z m 390 567 l 453 567 b 579 618 501 567 544 583 b 632 744 614 653 632 696 b 579 871 632 793 614 836 b 453 924 544 906 501 924 b 288 817 376 924 321 888 l 268 833 b 453 949 308 910 371 949 b 596 888 508 949 556 928 b 657 744 636 847 657 800 b 524 556 657 660 603 588 b 667 353 608 524 667 446 b 604 200 667 293 646 243 b 453 138 563 158 513 138 b 254 271 364 138 286 192 l 275 288 b 453 163 301 214 371 163 b 586 218 504 163 549 181 b 642 353 624 256 642 301 b 586 486 642 404 624 449 b 453 542 549 524 504 542 l 390 542 z m 315 328 b 453 213 325 265 386 213 b 592 353 529 213 592 276 b 453 492 592 429 529 492 l 390 492 l 390 517 l 453 517 b 568 468 499 517 536 500 b 617 353 600 436 617 399 b 568 236 617 307 600 268 b 453 188 536 204 499 188 b 293 307 379 188 314 236 z m 722 560 b 781 744 761 614 781 676 b 683 976 781 835 749 913 b 453 1074 619 1042 543 1074 b 175 922 336 1074 243 1024 l 157 938 b 276 1050 185 983 225 1021 b 453 1099 332 1082 390 1099 b 701 994 550 1099 633 1064 b 804 744 769 926 804 843 b 751 558 804 674 786 611 b 817 353 794 501 817 433 b 710 94 817 251 781 165 b 453 -11 639 24 553 -11 b 140 163 321 -11 203 57 l 160 179 b 453 14 221 79 331 14 b 692 113 546 14 626 47 b 792 353 758 178 792 258 b 722 560 792 424 768 492 z m 658 557 b 731 744 707 611 731 674 b 649 942 731 821 703 888 b 453 1024 594 996 529 1024 b 213 886 347 1024 267 978 l 196 903 b 453 1049 253 1000 339 1049 b 665 958 536 1049 607 1018 b 754 744 725 899 754 828 b 690 558 754 671 733 608 b 767 353 742 499 767 429 b 674 129 767 265 736 192 b 453 38 613 68 539 38 b 179 197 336 38 235 99 l 197 215 b 453 63 247 125 343 63 b 657 147 532 63 600 90 b 742 353 714 204 742 272 b 658 557 742 432 714 500 z m 621 556 b 717 353 685 504 717 436 b 639 165 717 279 690 217 b 453 88 588 114 525 88 b 215 233 349 88 269 136 l 235 251 b 453 113 274 168 358 113 b 621 183 518 113 575 136 b 692 353 668 231 692 288 b 654 482 692 399 679 442 b 578 556 633 514 607 538 b 647 626 606 572 629 596 b 681 744 669 663 681 701 b 614 906 681 807 658 861 b 453 974 569 951 515 974 b 250 851 365 974 289 925 l 231 869 b 453 999 281 956 354 999 b 631 924 522 999 582 974 b 706 744 681 874 706 814 b 621 556 706 667 678 604 z "},"4":{"ha":904,"x_min":0,"x_max":0,"o":"m 567 215 l 542 215 l 542 0 l 517 0 l 517 215 l 92 215 l 92 240 l 900 240 l 900 215 l 742 215 l 742 0 l 717 0 l 717 215 l 692 215 l 692 0 l 667 0 l 667 215 l 642 215 l 642 0 l 617 0 l 617 215 l 592 215 l 592 0 l 567 0 z m 692 1006 l 692 440 l 717 440 l 717 1047 z m 642 922 l 642 440 l 667 440 l 667 967 z m 592 840 l 592 440 l 617 440 l 617 881 z m 542 757 l 542 440 l 567 440 l 567 799 z m 353 440 l 517 440 l 517 715 z m 742 1086 l 742 440 l 900 440 l 900 415 l 92 415 l 92 440 l 479 1086 l 508 1086 l 121 440 l 149 440 l 538 1086 l 565 1086 l 176 440 l 206 440 l 594 1086 l 625 1086 l 235 440 l 265 440 l 653 1086 l 683 1086 l 293 440 l 324 440 l 713 1086 l 740 1086 z m 92 290 l 900 290 l 900 265 l 92 265 z m 92 340 l 900 340 l 900 315 l 92 315 z m 92 390 l 900 390 l 900 365 l 92 365 z "},"5":{"ha":904,"x_min":0,"x_max":0,"o":"m 414 863 l 389 863 l 389 492 l 364 492 l 364 863 l 339 863 l 339 492 l 314 492 l 314 863 l 289 863 l 289 492 l 264 492 l 264 863 l 239 863 l 239 492 l 214 492 l 214 886 l 735 886 l 735 863 l 439 863 l 439 717 l 453 717 b 710 610 553 717 639 681 b 817 353 781 539 817 454 b 710 94 817 251 781 165 b 453 -11 639 24 553 -11 b 154 143 328 -11 228 40 l 174 158 b 453 14 242 63 335 14 b 692 113 546 14 626 47 b 792 353 758 178 792 258 b 692 592 792 446 758 526 b 453 692 626 658 546 692 l 439 692 l 439 667 l 453 667 b 674 574 539 667 613 636 b 767 353 736 513 767 439 b 674 129 767 265 736 192 b 453 38 613 68 539 38 b 192 176 343 38 257 83 l 210 194 b 453 63 267 107 347 63 b 657 147 532 63 600 90 b 742 353 714 204 742 272 b 657 557 742 432 714 500 b 453 642 600 614 532 642 l 439 642 l 439 617 l 453 617 b 639 539 525 617 588 590 b 717 353 690 488 717 425 b 639 165 717 279 690 217 b 453 88 588 114 525 88 b 229 210 357 88 283 128 l 249 228 b 453 113 293 151 361 113 b 621 183 518 113 575 136 b 692 353 668 231 692 288 b 621 521 692 418 668 475 b 453 592 575 568 518 592 l 439 592 l 439 567 l 453 567 b 604 504 513 567 563 546 b 667 353 646 463 667 413 b 604 200 667 293 646 243 b 453 138 563 158 513 138 b 267 246 374 138 300 183 l 286 261 b 453 163 322 196 378 163 b 586 218 504 163 549 181 b 642 353 624 256 642 301 b 586 486 642 404 624 449 b 453 542 549 524 504 542 l 439 542 l 439 517 l 453 517 b 568 468 499 517 536 500 b 617 353 600 436 617 399 b 568 236 617 307 600 268 b 453 188 536 204 499 188 b 306 281 388 188 329 225 l 325 297 b 453 213 349 240 392 213 b 592 353 529 213 592 276 b 453 492 592 429 529 492 l 414 492 z m 214 1086 l 735 1086 l 735 1061 l 214 1061 z m 214 1036 l 735 1036 l 735 1011 l 214 1011 z m 214 986 l 735 986 l 735 961 l 214 961 z m 214 936 l 735 936 l 735 911 l 214 911 z "},"6":{"ha":904,"x_min":0,"x_max":0,"o":"m 858 353 b 751 94 858 251 822 165 b 494 -11 681 24 596 -11 b 236 94 393 -11 307 24 b 131 353 165 165 131 251 b 185 543 131 419 149 483 l 513 1086 l 542 1086 l 207 532 b 156 353 172 475 156 415 b 254 113 156 258 189 178 b 494 14 321 47 401 14 b 735 113 589 14 669 47 b 833 353 800 178 833 258 b 742 586 833 443 803 521 b 536 689 685 646 615 681 l 521 665 b 722 568 599 660 665 628 b 808 353 779 508 808 438 b 717 129 808 265 778 192 b 494 38 656 68 582 38 b 272 129 408 38 335 68 b 181 353 211 192 181 265 b 228 517 181 410 196 465 l 571 1086 l 599 1086 l 249 504 b 206 353 219 456 206 406 b 290 147 206 272 233 204 b 494 63 347 90 415 63 b 699 147 574 63 642 90 b 783 353 756 204 783 272 b 701 554 783 432 756 499 b 507 642 647 610 583 639 l 492 617 b 682 539 567 617 631 590 b 760 353 733 488 760 425 b 682 165 760 279 733 217 b 494 88 631 114 568 88 b 308 165 422 88 360 114 b 231 353 257 217 231 279 b 272 493 231 400 244 447 l 628 1086 l 658 1086 l 292 481 b 256 353 268 440 256 399 b 325 183 256 288 279 231 b 494 113 372 136 429 113 b 664 183 560 113 617 136 b 735 353 711 231 735 288 b 664 521 735 418 711 475 b 494 592 617 568 560 592 l 478 592 l 461 565 b 476 567 463 565 468 565 l 494 567 b 646 504 554 567 604 546 b 710 353 689 463 710 413 b 647 200 710 293 689 243 b 494 138 606 158 554 138 b 343 200 435 138 385 158 b 281 353 301 243 281 293 b 314 468 281 393 292 431 l 688 1086 l 717 1086 l 336 457 b 306 353 315 424 306 389 b 361 218 306 301 324 256 b 494 163 399 181 443 163 b 628 218 546 163 590 181 b 685 353 665 256 685 301 b 628 486 685 404 665 449 b 494 542 590 524 546 542 b 443 535 474 542 457 539 l 422 500 b 494 517 444 511 468 517 b 611 468 540 517 579 500 b 660 353 643 436 660 399 b 611 236 660 307 643 268 b 494 188 579 204 540 188 b 378 236 449 188 410 204 b 331 353 346 268 331 307 b 358 444 331 383 340 414 l 746 1086 l 775 1086 l 549 713 b 761 601 631 703 701 665 b 858 353 826 532 858 449 z m 635 353 b 494 492 635 429 571 492 b 356 353 418 492 356 429 b 494 213 356 276 418 213 b 593 254 532 213 565 226 b 635 353 621 282 635 315 z "},"7":{"ha":904,"x_min":0,"x_max":0,"o":"m 232 0 l 529 863 l 149 863 l 149 886 l 538 886 l 546 911 l 149 911 l 149 936 l 556 936 l 564 961 l 149 961 l 149 986 l 571 986 l 581 1011 l 149 1011 l 149 1036 l 589 1036 l 597 1061 l 149 1061 l 149 1086 l 632 1086 l 258 0 z m 685 1086 l 311 0 l 285 0 l 658 1086 z m 738 1086 l 364 0 l 338 0 l 711 1086 z m 790 1086 l 417 0 l 390 0 l 764 1086 z m 843 1086 l 469 0 l 443 0 l 817 1086 z "},"8":{"ha":904,"x_min":0,"x_max":0,"o":"m 601 322 b 493 432 601 383 554 432 b 385 322 433 432 385 382 b 493 213 385 261 433 213 b 601 322 554 213 601 261 z m 826 322 b 728 86 826 229 793 151 b 493 -11 663 21 585 -11 b 257 86 401 -11 322 21 b 160 322 192 151 160 229 b 246 543 160 407 189 481 b 160 765 189 606 160 679 b 257 1000 160 857 192 935 b 493 1099 322 1065 401 1099 b 728 1000 585 1099 663 1065 b 826 765 793 935 826 857 b 743 543 826 682 799 608 b 826 322 799 481 826 407 z m 725 563 b 801 765 776 621 801 689 b 711 983 801 850 771 924 b 493 1074 651 1043 578 1074 b 275 983 408 1074 336 1043 b 185 765 215 924 185 850 b 275 547 185 681 215 607 b 493 457 335 488 408 457 b 626 322 565 457 626 394 b 493 188 626 249 567 188 b 360 322 419 188 360 249 b 428 438 360 376 382 415 b 393 446 421 439 408 442 b 335 322 354 415 335 374 b 381 208 335 278 350 240 b 493 163 413 178 450 163 b 651 322 582 163 651 233 b 493 482 651 411 582 482 b 292 564 414 482 347 510 b 210 765 238 619 210 686 b 292 965 210 844 238 911 b 493 1049 347 1021 414 1049 b 693 965 572 1049 639 1021 b 776 765 749 911 776 844 b 706 578 776 693 753 631 b 725 563 710 574 717 569 z m 686 593 b 751 765 729 642 751 700 b 675 947 751 836 726 897 b 493 1024 625 999 564 1024 b 311 947 422 1024 363 999 b 235 765 260 897 235 836 b 310 582 235 694 260 633 b 493 507 361 532 422 507 b 622 451 543 507 586 489 b 676 322 658 415 676 372 b 622 192 676 271 658 228 b 493 138 588 156 544 138 b 363 192 442 138 399 156 b 310 322 328 228 310 271 b 368 457 310 375 329 419 b 343 467 363 458 349 465 b 285 322 304 428 285 379 b 346 174 285 265 306 215 b 493 113 386 133 436 113 b 640 174 550 113 600 133 b 701 322 681 215 701 265 b 640 469 701 379 681 429 b 493 532 600 511 550 532 b 328 600 428 532 374 554 b 260 765 282 646 260 700 b 328 931 260 831 282 885 b 493 999 374 976 428 999 b 658 931 558 999 613 976 b 726 765 704 885 726 831 b 667 608 726 703 707 651 b 686 593 671 604 678 600 z m 643 621 b 701 765 682 660 701 708 b 640 913 701 822 681 872 b 493 974 600 953 550 974 b 346 913 436 974 388 953 b 285 765 306 872 285 822 b 346 618 285 708 306 658 b 493 557 386 578 436 557 b 658 488 558 557 613 533 b 726 322 704 442 726 388 b 658 156 726 257 704 201 b 493 88 613 110 558 88 b 328 156 428 88 374 110 b 260 322 282 201 260 257 b 322 481 260 385 281 438 b 301 493 321 482 314 486 b 235 322 257 449 235 392 b 310 139 235 251 260 190 b 493 63 361 88 422 63 b 675 139 564 63 625 88 b 751 322 726 190 751 251 b 675 506 751 393 726 454 b 493 582 625 557 564 582 b 363 635 442 582 399 600 b 310 765 328 671 310 714 b 363 894 310 817 328 860 b 493 949 399 931 442 949 b 622 894 544 949 588 931 b 676 765 658 860 676 817 b 619 632 676 713 657 668 b 643 621 626 626 635 622 z m 592 640 b 651 765 632 672 651 714 b 606 876 651 808 636 846 b 493 924 575 908 538 924 b 381 876 450 924 413 908 b 335 765 350 846 335 808 b 381 653 335 721 350 683 b 493 607 413 622 450 607 b 693 524 572 607 639 579 b 776 322 749 468 776 401 b 693 121 776 243 749 176 b 493 38 639 65 572 38 b 292 121 414 38 347 65 b 210 322 238 176 210 243 b 281 510 210 394 233 457 b 263 525 275 511 269 517 b 185 322 211 471 185 403 b 275 104 185 238 215 164 b 493 14 335 44 408 14 b 711 104 578 14 651 44 b 801 322 771 164 801 238 b 711 540 801 407 771 481 b 493 632 651 601 578 632 b 360 765 419 632 360 692 b 493 899 360 839 419 899 b 626 765 567 899 626 839 b 561 649 626 714 604 675 b 592 640 571 647 582 644 z m 601 765 b 493 874 601 825 554 874 b 385 765 433 874 385 825 b 493 657 385 704 433 657 b 601 765 554 657 601 704 z "},"9":{"ha":904,"x_min":0,"x_max":0,"o":"m 126 735 b 232 992 126 835 161 921 b 490 1099 303 1063 389 1099 b 747 992 592 1099 676 1063 b 854 735 818 921 854 835 b 800 543 854 667 836 603 l 472 0 l 443 0 l 778 556 b 829 735 813 613 829 672 b 729 974 829 828 796 908 b 490 1074 664 1040 583 1074 b 250 974 397 1074 317 1040 b 151 735 185 908 151 828 b 244 501 151 644 182 567 b 449 397 301 440 369 406 l 464 421 b 264 517 386 426 319 458 b 176 735 206 578 176 650 b 268 956 176 821 207 894 b 490 1049 329 1018 403 1049 b 713 956 578 1049 651 1018 b 804 735 774 894 804 821 b 757 569 804 676 789 621 l 414 0 l 386 0 l 738 583 b 779 735 765 629 779 681 b 694 939 779 814 751 882 b 490 1024 638 996 569 1024 b 286 939 411 1024 343 996 b 201 735 229 882 201 814 b 283 532 201 656 229 588 b 479 444 338 478 403 449 l 493 469 b 303 547 418 469 354 496 b 226 735 251 599 226 661 b 303 921 226 807 251 869 b 490 999 354 972 417 999 b 676 921 564 999 625 972 b 754 735 728 869 754 807 b 714 593 754 685 740 638 l 357 0 l 328 0 l 693 607 b 729 735 717 647 729 689 b 658 903 729 800 706 857 b 490 974 613 950 556 974 b 321 903 425 974 368 950 b 251 735 275 857 251 800 b 321 564 251 668 275 611 b 490 494 368 518 425 494 l 508 494 l 524 521 l 510 521 b 490 519 503 519 496 519 b 339 582 431 519 381 540 b 276 735 297 624 276 675 b 339 886 276 794 297 844 b 490 949 381 928 431 949 b 642 886 550 949 600 928 b 704 735 683 844 704 794 b 671 618 704 694 693 656 l 299 0 l 268 0 l 649 629 b 679 735 669 663 679 697 b 624 868 679 786 661 831 b 490 924 586 906 542 924 b 357 868 439 924 394 906 b 301 735 319 831 301 786 b 357 600 301 682 319 638 b 490 544 394 563 439 544 b 542 551 511 544 528 547 l 563 586 b 490 569 529 575 506 569 b 374 618 444 569 406 586 b 326 735 342 650 326 689 b 374 850 326 781 342 818 b 490 899 406 882 444 899 b 606 850 536 899 574 882 b 654 735 638 818 654 781 b 626 642 654 703 644 672 l 239 0 l 210 0 l 436 375 b 224 486 354 385 283 421 b 126 735 158 556 126 639 z m 351 735 b 490 594 351 658 414 594 b 629 735 567 594 629 658 b 490 874 629 811 567 874 b 351 735 414 874 351 811 z "},"!":{"ha":313,"x_min":0,"x_max":0,"o":"m 163 243 l 163 0 l 138 0 l 138 243 z m 213 243 l 213 0 l 188 0 l 188 243 z m 263 243 l 263 0 l 238 0 l 238 243 z m 313 243 l 313 0 l 288 0 l 288 243 z m 113 243 l 113 0 l 88 0 l 88 243 z m 163 1086 l 163 311 l 138 311 l 138 1086 z m 213 1086 l 213 311 l 188 311 l 188 1086 z m 263 1086 l 263 311 l 238 311 l 238 1086 z m 313 1086 l 313 311 l 288 311 l 288 1086 z m 113 1086 l 113 311 l 88 311 l 88 1086 z "},"\"":{"ha":601,"x_min":0,"x_max":0,"o":"m 140 1097 l 140 825 l 115 825 l 115 1097 z m 190 1097 l 190 825 l 165 825 l 165 1097 z m 240 1097 l 240 825 l 215 825 l 215 1097 z m 290 1097 l 290 825 l 265 825 l 265 1097 z m 90 1097 l 90 825 l 65 825 l 65 1097 z m 439 1097 l 439 825 l 414 825 l 414 1097 z m 489 1097 l 489 825 l 464 825 l 464 1097 z m 539 1097 l 539 825 l 514 825 l 514 1097 z m 589 1097 l 589 825 l 564 825 l 564 1097 z m 389 1097 l 389 825 l 364 825 l 364 1097 z "},"#":{"ha":1146,"x_min":0,"x_max":0,"o":"m 554 1036 l 717 1036 l 610 736 l 781 736 l 886 1036 l 1050 1036 l 943 736 l 1143 736 l 1094 599 l 894 599 l 831 419 l 1031 419 l 982 283 l 782 283 l 675 -18 l 513 -18 l 619 283 l 449 283 l 342 -18 l 179 -18 l 286 283 l 88 283 l 136 419 l 335 419 l 397 599 l 200 599 l 249 736 l 447 736 z m 497 419 l 668 419 l 732 599 l 561 599 z "},"$":{"ha":711,"x_min":0,"x_max":0,"o":"m 458 454 b 526 332 504 425 526 385 b 458 208 526 286 504 244 l 458 181 b 551 332 521 213 551 263 b 458 483 551 399 521 449 z m 458 510 b 533 453 485 500 510 481 b 576 332 563 418 576 378 b 533 210 576 286 563 244 b 458 154 511 183 486 164 l 458 128 b 550 190 490 135 521 156 b 601 332 585 231 601 278 b 551 471 601 383 585 431 b 458 538 524 503 493 525 z m 458 563 b 572 488 503 550 540 525 b 626 332 608 444 626 392 b 569 175 626 272 607 221 b 458 100 538 138 501 113 l 458 75 b 586 156 506 86 549 113 b 651 332 629 207 651 265 b 590 503 651 397 631 454 b 458 590 554 546 510 575 z m 458 615 b 604 525 513 603 561 574 b 676 332 653 469 676 406 b 604 140 676 258 653 194 b 458 49 563 92 514 61 l 458 22 b 622 122 521 38 576 71 b 701 332 675 182 701 251 b 624 542 701 413 675 482 b 458 642 578 592 524 625 z m 458 240 b 503 332 488 267 503 297 b 458 422 503 369 488 399 z m 333 1067 b 163 963 265 1051 208 1017 b 94 774 117 908 94 844 b 163 583 94 701 117 638 b 333 482 208 529 265 494 l 333 507 b 181 603 271 522 221 554 b 121 774 140 651 121 708 b 182 947 121 839 142 896 b 333 1040 222 999 274 1029 z m 333 1017 b 197 928 279 1003 233 974 b 144 774 163 883 144 832 b 199 619 144 717 163 665 b 333 533 236 574 281 546 l 333 560 b 171 774 239 586 171 672 b 217 911 171 825 186 871 b 333 989 249 951 288 978 z m 333 965 b 194 774 251 938 194 863 b 333 585 194 686 254 608 l 333 613 b 221 774 267 636 221 700 b 333 936 221 847 267 914 z m 333 910 b 243 774 282 889 243 833 b 333 638 243 710 274 664 l 333 665 b 268 774 290 688 268 724 b 333 882 268 825 290 861 z m 458 667 b 640 560 529 651 589 617 b 726 332 697 494 726 419 b 639 104 726 244 697 169 b 458 -3 588 46 526 10 l 458 -18 l 433 -18 l 433 1111 l 458 1111 l 458 1096 b 715 897 565 1083 669 1008 l 694 883 b 596 1013 674 936 640 979 b 458 1071 556 1044 510 1064 l 458 1044 b 582 992 503 1039 544 1021 b 671 871 624 960 653 919 l 650 857 b 569 971 635 903 608 940 b 458 1019 535 999 497 1015 l 458 994 b 556 949 493 989 525 974 b 626 846 589 921 613 886 l 607 833 b 544 926 594 871 574 901 b 458 969 518 949 489 963 l 458 944 b 531 906 483 939 507 926 b 583 819 557 882 574 854 l 561 807 b 517 883 554 836 540 861 b 458 918 499 901 479 914 l 458 890 b 506 860 474 886 490 875 b 539 794 524 840 535 818 l 515 781 b 458 865 510 821 490 850 z m 333 853 b 294 774 307 832 294 806 b 333 694 294 742 307 715 z m 333 1111 l 358 1111 l 358 -18 l 333 -18 l 333 -10 b 67 156 228 -3 126 60 l 88 169 b 333 15 146 74 228 22 l 333 40 b 107 183 238 49 161 96 l 128 199 b 333 65 174 118 243 74 l 333 89 b 149 213 263 96 188 142 l 171 226 b 333 114 206 160 260 122 l 333 140 b 190 240 268 150 221 183 l 211 256 b 333 165 238 203 279 172 l 333 190 b 232 271 288 199 254 225 l 253 283 b 333 215 268 247 296 225 l 333 457 b 144 565 258 469 196 506 b 69 774 94 625 69 694 b 144 982 69 853 94 922 b 333 1092 196 1042 258 1079 z m 408 1111 l 408 -18 l 383 -18 l 383 1111 z "},"%":{"ha":1489,"x_min":0,"x_max":0,"o":"m 396 1099 b 632 1000 489 1099 567 1065 b 729 765 697 935 729 857 b 632 529 729 674 697 594 b 396 432 567 464 489 432 b 160 529 304 432 225 464 b 63 765 94 594 63 674 b 160 1000 63 857 94 935 b 396 1099 225 1065 304 1099 z m 88 765 b 178 547 88 681 118 607 b 396 457 238 488 311 457 b 614 547 481 457 554 488 b 704 765 674 607 704 681 b 614 983 704 850 674 924 b 396 1074 554 1043 481 1074 b 178 983 311 1074 239 1043 b 88 765 118 924 88 850 z m 396 482 b 194 564 317 482 250 510 b 113 765 140 619 113 686 b 194 965 113 844 140 911 b 396 1049 250 1021 317 1049 b 596 965 475 1049 542 1021 b 679 765 651 911 679 844 b 596 564 679 686 651 619 b 396 482 542 510 475 482 z m 138 765 b 213 582 138 694 163 633 b 396 507 264 532 325 507 b 578 582 467 507 528 532 b 654 765 629 633 654 694 b 578 947 654 836 629 897 b 396 1024 528 999 467 1024 b 214 947 325 1024 265 999 b 138 765 163 897 138 836 z m 396 532 b 231 600 331 532 276 554 b 163 765 185 646 163 700 b 231 931 163 831 185 885 b 396 999 276 976 331 999 b 561 931 461 999 515 976 b 629 765 607 885 629 831 b 561 600 629 700 607 646 b 396 532 515 554 461 532 z m 188 765 b 249 618 188 708 208 658 b 396 557 289 578 339 557 b 543 618 453 557 503 578 b 606 765 585 658 606 708 b 543 913 606 822 585 872 b 396 974 503 953 453 974 b 249 913 339 974 290 953 b 188 765 208 872 188 822 z m 396 582 b 265 635 344 582 301 600 b 213 765 231 671 213 714 b 265 894 213 817 231 860 b 396 949 301 931 344 949 b 526 894 447 949 490 931 b 581 765 563 860 581 817 b 526 635 581 714 563 671 b 396 582 490 600 447 582 z m 238 765 b 283 653 238 721 253 683 b 396 607 315 622 353 607 b 556 765 485 607 556 676 b 508 876 556 808 540 846 b 396 924 478 908 440 924 b 283 876 353 924 315 908 b 238 765 253 846 238 808 z m 1176 654 b 1411 557 1268 654 1346 622 b 1510 322 1476 492 1510 414 b 1411 86 1510 229 1476 151 b 1176 -11 1346 21 1268 -11 b 940 86 1085 -11 1006 21 b 843 322 875 151 843 229 b 940 557 843 414 875 492 b 1176 654 1006 622 1085 654 z m 868 322 b 958 104 868 238 899 164 b 1176 14 1018 44 1092 14 b 1394 104 1261 14 1335 44 b 1485 322 1454 164 1485 238 b 1394 539 1485 407 1454 479 b 1176 629 1335 599 1261 629 b 958 539 1092 629 1018 599 b 868 322 899 479 868 407 z m 1176 38 b 975 121 1097 38 1031 65 b 893 322 921 176 893 243 b 975 522 893 401 921 468 b 1176 606 1031 578 1097 606 b 1376 522 1256 606 1322 578 b 1460 322 1432 468 1460 401 b 1376 121 1460 243 1432 176 b 1176 38 1322 65 1256 38 z m 918 322 b 993 139 918 251 943 190 b 1176 63 1044 88 1106 63 b 1358 139 1247 63 1308 88 b 1435 322 1410 190 1435 251 b 1358 504 1435 393 1410 454 b 1176 581 1308 556 1247 581 b 993 504 1106 581 1044 556 b 918 322 943 454 918 393 z m 1176 88 b 1011 156 1111 88 1057 110 b 943 322 965 201 943 257 b 1011 488 943 388 965 442 b 1176 556 1057 533 1111 556 b 1342 488 1242 556 1296 533 b 1410 322 1388 442 1410 388 b 1342 156 1410 257 1388 201 b 1176 88 1296 110 1242 88 z m 968 322 b 1029 174 968 265 989 215 b 1176 113 1069 133 1119 113 b 1324 174 1233 113 1283 133 b 1385 322 1364 215 1385 265 b 1324 469 1385 379 1364 429 b 1176 531 1283 510 1233 531 b 1029 469 1119 531 1069 510 b 968 322 989 429 968 379 z m 1176 138 b 1046 192 1125 138 1082 156 b 993 322 1011 228 993 271 b 1046 451 993 372 1011 415 b 1176 506 1082 488 1125 506 b 1306 451 1228 506 1271 488 b 1360 322 1342 415 1360 372 b 1306 192 1360 271 1342 228 b 1176 138 1271 156 1228 138 z m 1018 322 b 1176 163 1018 233 1088 163 b 1288 208 1219 163 1257 178 b 1335 322 1319 240 1335 278 b 1288 433 1335 365 1319 403 b 1176 481 1257 465 1219 481 b 1064 433 1132 481 1094 465 b 1018 322 1033 403 1018 365 z m 949 1089 l 522 -81 l 496 -81 l 922 1089 z m 1054 1089 l 628 -81 l 601 -81 l 1028 1089 z m 1001 1089 l 575 -81 l 549 -81 l 975 1089 z "},"&":{"ha":917,"x_min":0,"x_max":0,"o":"m 174 750 b 258 954 174 829 201 897 b 463 1039 315 1011 383 1039 b 667 954 542 1039 610 1011 b 751 750 724 897 751 829 b 692 576 751 686 732 628 b 603 497 667 544 638 518 l 692 400 b 775 489 714 421 742 450 l 793 469 b 525 250 719 379 631 307 b 397 190 465 218 424 199 b 365 186 388 188 376 186 b 267 285 311 186 267 231 b 325 379 267 328 286 358 l 382 410 l 364 429 l 313 401 b 242 288 265 375 242 338 b 253 235 242 269 246 251 b 368 164 274 188 311 164 b 403 168 381 164 392 165 b 542 231 428 174 474 194 b 808 453 646 288 735 361 l 826 433 b 560 211 753 343 664 268 b 407 143 489 172 438 150 b 369 139 394 140 382 139 b 231 225 303 139 257 168 b 218 285 222 244 218 264 b 303 422 218 347 246 393 b 349 446 313 429 328 436 l 329 468 l 290 447 b 190 288 224 411 190 358 b 207 213 190 263 196 238 b 368 111 238 144 292 111 b 411 117 383 111 397 113 b 578 192 451 126 507 151 b 844 414 679 250 768 324 l 863 393 b 594 172 792 311 701 238 b 415 92 528 132 468 106 b 369 86 400 88 385 86 b 263 117 332 86 296 96 b 183 203 226 138 200 167 b 165 285 171 229 165 257 b 279 471 165 367 203 429 l 310 488 l 293 508 l 268 494 b 139 283 189 450 139 368 b 160 190 139 251 146 219 b 368 60 199 107 279 60 b 419 65 386 60 403 61 b 613 153 465 75 529 104 b 879 375 719 215 808 289 l 896 356 b 629 133 821 265 732 190 b 424 40 531 79 463 47 b 371 35 406 36 389 35 b 235 72 322 35 276 47 b 136 179 190 97 157 133 b 113 285 121 213 113 247 b 258 518 113 383 169 478 l 276 526 l 260 546 l 247 540 b 86 290 146 494 86 396 b 113 169 86 247 94 207 b 368 11 163 64 247 11 b 429 17 389 11 410 13 b 644 114 478 26 550 60 b 911 338 740 168 829 243 l 928 319 b 843 232 906 292 878 263 l 924 143 l 904 125 l 824 214 l 806 199 l 886 108 l 868 92 l 786 182 l 767 165 l 849 75 l 831 58 l 747 151 l 726 136 l 813 42 l 793 25 l 704 124 l 685 110 l 775 8 l 757 -10 l 663 96 b 433 -10 561 35 485 0 b 364 -17 410 -14 388 -17 b 89 158 242 -17 139 47 b 61 286 71 199 61 242 b 236 563 61 401 125 507 l 242 565 b 201 628 229 578 215 599 b 174 750 183 668 174 708 z m 586 518 b 726 750 665 558 726 649 b 649 936 726 824 700 885 b 463 1014 597 988 536 1014 b 275 936 389 1014 326 988 b 199 750 224 885 199 824 b 256 586 199 682 218 628 l 531 282 l 551 293 l 276 601 b 225 750 242 639 225 689 b 294 918 225 815 249 872 b 463 989 342 965 397 989 b 629 918 528 989 583 965 b 700 750 676 872 700 815 b 568 536 700 654 656 582 z m 675 750 b 613 901 675 810 654 860 b 463 965 572 944 522 965 b 311 901 403 965 353 944 b 250 750 271 860 250 810 b 297 617 250 696 265 651 l 572 308 l 594 322 l 315 632 b 274 750 288 663 274 701 b 329 883 274 801 292 846 b 463 940 367 921 411 940 b 596 883 514 940 558 921 b 651 750 633 846 651 801 b 535 575 651 671 601 604 l 551 556 b 675 750 622 590 675 665 z m 626 750 b 578 867 626 796 610 835 b 463 915 546 899 508 915 b 346 867 417 915 378 899 b 299 750 314 835 299 796 b 335 646 299 707 311 672 l 614 336 l 635 351 l 356 661 b 324 750 335 685 324 715 b 463 890 324 826 386 890 b 601 750 539 890 601 826 b 497 614 601 688 567 642 l 517 593 b 626 750 578 617 626 678 z m 576 750 b 463 865 576 813 525 865 b 349 750 400 865 349 813 b 376 675 349 721 358 696 l 653 367 l 672 382 l 396 690 b 372 750 381 708 372 728 b 463 840 372 800 413 840 b 551 750 513 840 551 800 b 521 685 551 724 542 701 b 464 651 511 678 493 667 l 482 633 b 576 750 544 657 576 696 z m 415 706 l 446 671 l 488 692 b 526 750 514 704 526 724 b 463 815 526 785 497 815 b 397 750 428 815 397 785 b 415 706 397 739 403 724 z m 335 356 b 293 285 307 342 293 318 b 368 213 293 244 325 213 b 393 217 376 213 385 214 b 508 268 417 224 454 242 l 400 389 z "},"'":{"ha":307,"x_min":0,"x_max":0,"o":"m 140 1097 l 140 825 l 115 825 l 115 1097 z m 190 1097 l 190 825 l 165 825 l 165 1097 z m 240 1097 l 240 825 l 215 825 l 215 1097 z m 290 1097 l 290 825 l 265 825 l 265 1097 z m 90 1097 l 90 825 l 65 825 l 65 1097 z "},"(":{"ha":489,"x_min":0,"x_max":0,"o":"m 313 260 b 364 135 313 211 329 169 b 489 83 399 100 440 83 l 489 58 b 346 117 433 58 386 78 b 288 260 307 157 288 204 l 288 832 b 346 974 288 888 307 935 b 489 1033 385 1014 432 1033 l 489 1008 b 364 957 440 1008 399 992 b 313 832 329 922 313 881 z m 263 260 b 329 100 263 197 285 144 b 489 33 374 56 426 33 l 489 8 b 311 82 421 8 361 33 b 238 260 263 132 238 192 l 238 832 b 311 1010 238 901 263 961 b 489 1083 361 1058 421 1083 l 489 1058 b 329 992 426 1058 374 1036 b 263 832 285 949 263 894 z m 213 260 b 293 64 213 183 239 118 b 489 -17 347 10 413 -17 l 489 -42 b 276 47 407 -42 336 -12 b 188 260 217 107 188 178 l 188 832 b 276 1044 188 915 217 986 b 489 1133 336 1104 407 1133 l 489 1108 b 293 1026 413 1108 347 1081 b 213 832 239 972 213 908 z m 163 260 b 257 29 163 169 194 93 b 489 -67 321 -35 399 -67 l 489 -92 b 240 11 392 -92 308 -57 b 138 260 172 81 138 164 l 138 832 b 240 1081 138 929 172 1013 b 489 1183 308 1149 392 1183 l 489 1158 b 257 1063 399 1158 321 1126 b 163 832 194 999 163 922 z m 113 260 b 222 -6 113 156 149 68 b 489 -117 296 -79 385 -117 l 489 -140 b 204 -24 378 -140 283 -101 b 88 260 126 54 88 149 l 88 832 b 204 1115 88 943 126 1038 b 489 1233 283 1194 378 1233 l 489 1208 b 222 1097 385 1208 296 1171 b 113 832 149 1024 113 936 z "},")":{"ha":489,"x_min":0,"x_max":0,"o":"m 264 832 b 213 957 264 881 247 922 b 88 1008 178 992 136 1008 l 88 1033 b 231 974 144 1033 192 1014 b 289 832 269 935 289 888 l 289 260 b 231 117 289 204 269 157 b 88 58 192 78 144 58 l 88 83 b 213 135 136 83 178 100 b 264 260 247 169 264 211 z m 314 832 b 247 992 314 894 292 949 b 88 1058 204 1036 150 1058 l 88 1083 b 265 1010 157 1083 217 1058 b 339 832 314 961 339 901 l 339 260 b 265 82 339 192 314 132 b 88 8 217 33 157 8 l 88 33 b 247 100 150 33 204 56 b 314 260 292 144 314 197 z m 364 832 b 282 1026 364 908 336 972 b 88 1108 228 1081 164 1108 l 88 1133 b 300 1044 171 1133 242 1104 b 389 832 360 986 389 915 l 389 260 b 300 47 389 178 360 107 b 88 -42 242 -12 171 -42 l 88 -17 b 282 64 164 -17 228 10 b 364 260 336 118 364 183 z m 414 832 b 318 1063 414 922 382 999 b 88 1158 256 1126 178 1158 l 88 1183 b 336 1081 185 1183 268 1149 b 439 832 404 1013 439 929 l 439 260 b 336 11 439 164 404 81 b 88 -92 268 -57 185 -92 l 88 -67 b 318 29 178 -67 256 -35 b 414 260 382 93 414 169 z m 464 832 b 353 1097 464 936 426 1024 b 88 1208 279 1171 192 1208 l 88 1233 b 371 1115 199 1233 293 1194 b 489 832 450 1038 489 943 l 489 260 b 371 -24 489 149 450 54 b 88 -140 293 -101 199 -140 l 88 -117 b 353 -6 192 -117 279 -79 b 464 260 426 68 464 156 z "},"*":{"ha":428,"x_min":0,"x_max":0,"o":"m 289 1022 l 393 1082 l 406 1060 l 264 979 l 264 1140 l 289 1140 z m 85 875 l 72 897 l 178 957 l 72 1018 l 85 1039 l 228 957 z m 289 893 l 289 771 l 264 771 l 264 935 l 406 854 l 393 832 z m 214 1140 l 239 1140 l 239 979 l 97 1061 l 110 1083 l 214 1024 z m 214 892 l 110 831 l 97 853 l 239 935 l 239 771 l 214 771 z m 329 957 l 431 899 l 418 876 l 278 957 l 418 1038 l 431 1017 z "},"+":{"ha":999,"x_min":0,"x_max":0,"o":"m 607 539 l 607 514 l 632 514 l 632 539 z m 557 539 l 557 514 l 582 514 l 582 539 z m 607 464 l 632 464 l 632 489 l 607 489 z m 557 464 l 582 464 l 582 489 l 557 489 z m 507 489 l 507 464 l 532 464 l 532 489 z m 507 539 l 507 514 l 532 514 l 532 539 z m 607 414 l 632 414 l 632 439 l 607 439 z m 557 414 l 582 414 l 582 439 l 557 439 z m 507 414 l 532 414 l 532 439 l 507 439 z m 457 439 l 457 414 l 482 414 l 482 439 z m 457 489 l 457 464 l 482 464 l 482 489 z m 457 539 l 457 514 l 482 514 l 482 539 z m 607 364 l 632 364 l 632 389 l 607 389 z m 557 364 l 582 364 l 582 389 l 557 389 z m 507 364 l 532 364 l 532 389 l 507 389 z m 457 364 l 482 364 l 482 389 l 457 389 z m 996 339 l 657 339 l 657 0 l 632 0 l 632 339 l 607 339 l 607 0 l 582 0 l 582 339 l 557 339 l 557 0 l 532 0 l 532 339 l 507 339 l 507 0 l 482 0 l 482 339 l 457 339 l 457 0 l 432 0 l 432 339 l 93 339 l 93 364 l 432 364 l 432 389 l 93 389 l 93 414 l 432 414 l 432 439 l 93 439 l 93 464 l 432 464 l 432 489 l 93 489 l 93 514 l 432 514 l 432 539 l 93 539 l 93 564 l 432 564 l 432 903 l 457 903 l 457 564 l 482 564 l 482 903 l 507 903 l 507 564 l 532 564 l 532 903 l 557 903 l 557 564 l 582 564 l 582 903 l 607 903 l 607 564 l 632 564 l 632 903 l 657 903 l 657 564 l 996 564 l 996 539 l 657 539 l 657 514 l 996 514 l 996 489 l 657 489 l 657 464 l 996 464 l 996 439 l 657 439 l 657 414 l 996 414 l 996 389 l 657 389 l 657 364 l 996 364 z "},",":{"ha":329,"x_min":0,"x_max":0,"o":"m 165 243 b 190 104 182 201 190 156 b 165 -37 190 58 182 11 l 138 -37 b 165 104 156 0 165 47 b 139 243 165 156 157 203 z m 219 243 b 240 104 233 196 240 150 b 219 -37 240 60 233 13 l 192 -37 b 215 104 207 4 215 51 b 192 243 215 161 207 208 z m 272 243 b 290 104 285 206 290 158 b 271 -37 290 56 283 8 l 246 -37 b 265 104 258 18 265 65 b 246 243 265 158 258 204 z m 324 243 b 340 104 335 206 340 158 b 322 -37 340 47 335 0 l 297 -37 b 315 104 310 -1 315 46 b 297 243 315 161 310 207 z m 113 243 b 140 104 131 201 140 156 b 111 -37 140 49 131 1 l 83 -37 b 117 104 106 7 117 54 b 85 243 117 150 106 197 z "},"-":{"ha":647,"x_min":0,"x_max":0,"o":"m 88 418 l 640 418 l 640 393 l 88 393 z m 88 468 l 640 468 l 640 443 l 88 443 z m 88 518 l 640 518 l 640 493 l 88 493 z m 88 568 l 640 568 l 640 543 l 88 543 z m 88 368 l 640 368 l 640 343 l 88 343 z "},".":{"ha":314,"x_min":0,"x_max":0,"o":"m 160 243 l 160 0 l 135 0 l 135 243 z m 210 243 l 210 0 l 185 0 l 185 243 z m 260 243 l 260 0 l 235 0 l 235 243 z m 310 243 l 310 0 l 285 0 l 285 243 z m 110 243 l 110 0 l 85 0 l 85 243 z "},"/":{"ha":606,"x_min":0,"x_max":0,"o":"m 497 1089 l 100 -4 l 74 -4 l 471 1089 z m 603 1089 l 206 -4 l 179 -4 l 576 1089 z m 550 1089 l 153 -4 l 126 -4 l 524 1089 z "},":":{"ha":314,"x_min":0,"x_max":0,"o":"m 163 243 l 163 0 l 138 0 l 138 243 z m 213 243 l 213 0 l 188 0 l 188 243 z m 263 243 l 263 0 l 238 0 l 238 243 z m 313 243 l 313 0 l 288 0 l 288 243 z m 113 243 l 113 0 l 88 0 l 88 243 z m 163 699 l 163 456 l 138 456 l 138 699 z m 213 699 l 213 456 l 188 456 l 188 699 z m 263 699 l 263 456 l 238 456 l 238 699 z m 313 699 l 313 456 l 288 456 l 288 699 z m 113 699 l 113 456 l 88 456 l 88 699 z "},";":{"ha":329,"x_min":0,"x_max":0,"o":"m 163 699 l 163 456 l 138 456 l 138 699 z m 213 699 l 213 456 l 188 456 l 188 699 z m 263 699 l 263 456 l 238 456 l 238 699 z m 313 699 l 313 456 l 288 456 l 288 699 z m 113 699 l 113 456 l 88 456 l 88 699 z m 165 243 b 190 104 182 201 190 156 b 165 -37 190 58 182 11 l 138 -37 b 165 104 156 0 165 47 b 139 243 165 156 157 203 z m 219 243 b 240 104 233 196 240 150 b 219 -37 240 60 233 13 l 192 -37 b 215 104 207 4 215 51 b 192 243 215 161 207 208 z m 272 243 b 290 104 285 206 290 158 b 271 -37 290 56 283 8 l 246 -37 b 265 104 258 18 265 65 b 246 243 265 158 258 204 z m 324 243 b 340 104 335 206 340 158 b 322 -37 340 47 335 0 l 297 -37 b 315 104 310 -1 315 46 b 297 243 315 161 310 207 z m 113 243 b 140 104 131 201 140 156 b 111 -37 140 49 131 1 l 83 -37 b 117 104 106 7 117 54 b 85 243 117 150 106 197 z "},"<":{"ha":768,"x_min":0,"x_max":0,"o":"m 88 540 l 767 793 l 767 613 l 331 457 l 767 301 l 767 121 l 88 372 z "},"=":{"ha":1181,"x_min":0,"x_max":0,"o":"m 1182 763 l 1182 526 l 92 526 l 92 763 z m 1182 372 l 1182 139 l 92 139 l 92 372 z "},">":{"ha":768,"x_min":0,"x_max":0,"o":"m 767 372 l 88 121 l 88 301 l 524 457 l 88 613 l 88 793 l 767 540 z "},"?":{"ha":532,"x_min":0,"x_max":0,"o":"m 163 243 l 163 0 l 138 0 l 138 243 z m 213 243 l 213 0 l 188 0 l 188 243 z m 263 243 l 263 0 l 238 0 l 238 243 z m 313 243 l 313 0 l 288 0 l 288 243 z m 113 243 l 113 0 l 88 0 l 88 243 z m 88 1053 l 88 1078 b 226 1099 136 1092 183 1099 b 451 1006 314 1099 389 1068 b 546 783 514 944 546 871 b 494 610 546 721 529 663 b 371 499 463 561 422 525 b 313 397 332 478 313 444 l 313 306 l 288 306 l 288 397 b 361 521 288 456 313 497 b 474 624 407 544 444 578 b 521 783 506 672 521 726 b 435 989 521 864 492 932 b 226 1074 378 1046 308 1074 b 88 1053 185 1074 139 1067 z m 88 1000 l 88 1026 b 226 1049 136 1042 183 1049 b 417 971 301 1049 365 1022 b 496 783 469 919 496 857 b 432 610 496 718 475 661 b 350 543 401 575 374 553 b 301 503 336 538 319 524 b 263 397 275 471 263 436 l 263 306 l 238 306 l 238 397 b 339 567 238 475 271 532 b 471 783 426 613 471 685 b 399 953 471 850 447 907 b 226 1024 351 1000 294 1024 b 88 1000 183 1024 138 1015 z m 88 949 l 88 975 b 226 999 138 990 183 999 b 382 936 288 999 339 978 b 446 783 425 894 446 843 b 329 589 446 706 400 622 b 260 533 304 576 281 558 b 213 397 228 494 213 449 l 213 306 l 188 306 l 188 397 b 242 550 188 454 206 506 b 318 613 267 581 292 601 b 383 669 342 622 363 642 b 421 783 408 704 421 743 b 364 918 421 836 401 881 b 226 974 326 956 281 974 b 88 949 178 974 132 965 z m 88 899 l 88 924 b 226 949 128 940 175 949 b 346 900 274 949 314 932 b 396 783 379 868 396 829 b 307 636 396 718 367 669 b 224 565 275 618 247 594 b 163 397 183 515 163 460 l 163 306 l 138 306 l 138 397 b 203 582 138 467 160 528 b 297 658 232 617 263 642 b 371 783 346 682 371 724 b 226 924 371 863 308 924 b 88 899 172 924 126 915 z m 88 850 l 88 875 b 226 899 119 890 167 899 b 346 783 293 899 346 849 b 324 714 346 758 339 735 b 286 679 311 696 299 685 b 185 597 251 664 218 638 b 113 397 136 539 113 472 l 113 306 l 88 306 l 88 397 b 165 613 88 479 114 550 b 276 701 199 653 236 682 b 322 783 307 715 322 743 b 226 874 322 838 281 874 b 88 850 169 874 124 865 z "},"@":{"ha":1371,"x_min":0,"x_max":0,"o":"m 856 247 b 621 106 797 151 719 104 b 422 217 533 107 467 143 b 390 351 401 251 390 297 b 729 772 385 564 554 761 b 821 763 760 775 790 772 b 908 704 861 750 890 731 b 933 660 913 700 921 685 l 960 747 l 1154 747 l 1060 418 b 1025 263 1036 338 1025 286 b 1108 207 1025 214 1053 196 b 1269 379 1175 221 1229 278 b 1308 575 1296 444 1308 510 b 1239 804 1308 663 1285 739 b 1014 956 1190 874 1115 924 b 778 988 935 981 856 992 b 301 676 571 978 413 874 b 229 385 253 590 229 493 b 292 118 229 285 250 196 b 774 -146 386 -58 547 -146 b 1229 -6 922 -146 1074 -99 l 1269 -65 b 735 -233 1093 -178 914 -233 b 403 -156 617 -233 506 -207 l 403 -157 b 156 68 299 -106 215 -31 b 67 392 96 167 67 275 b 351 933 67 617 161 797 b 808 1068 476 1024 629 1068 b 1100 1013 918 1068 1015 1050 b 1386 633 1256 944 1363 800 b 1390 574 1389 615 1390 594 b 1353 364 1390 503 1378 432 b 1226 178 1324 283 1282 221 b 1028 106 1165 129 1099 106 b 956 118 1001 106 978 110 b 856 247 901 139 868 182 z m 599 300 b 636 213 597 260 610 231 b 679 200 649 204 663 200 b 724 213 694 200 710 204 b 836 379 764 232 801 288 b 883 558 863 447 878 507 b 849 660 889 604 878 639 b 765 671 825 678 797 681 b 643 489 719 653 679 592 b 599 300 614 408 600 346 z "},"A":{"ha":1138,"x_min":0,"x_max":0,"o":"m 431 293 l 419 268 l 818 268 l 808 293 z m 449 343 l 439 318 l 799 318 l 790 343 z m 761 418 l 619 778 l 479 418 z m 469 393 l 460 368 l 779 368 l 771 393 z m 839 219 l 829 243 l 411 243 l 401 219 z m 392 194 l 315 0 l 289 0 l 714 1086 l 742 1086 l 1165 0 l 1138 0 l 726 1053 l 714 1019 l 1110 0 l 1083 0 l 700 983 l 688 950 l 1058 0 l 1031 0 l 674 917 l 661 882 l 1006 0 l 978 0 l 647 849 l 635 811 l 950 0 l 924 0 l 849 194 z m 686 1086 l 261 0 l 233 0 l 660 1086 z m 633 1086 l 208 0 l 181 0 l 607 1086 z m 581 1086 l 156 0 l 128 0 l 551 1086 z m 524 1086 l 101 0 l 74 0 l 497 1086 z "},"B":{"ha":714,"x_min":0,"x_max":0,"o":"m 313 556 l 313 531 l 369 531 b 488 482 415 531 456 514 b 536 364 519 450 536 410 b 488 247 536 318 519 279 b 369 200 456 215 415 200 l 313 200 l 313 175 l 369 175 b 503 231 421 175 465 193 b 560 364 540 268 560 313 b 503 499 560 415 540 461 b 369 556 465 536 421 556 z m 313 506 l 313 225 l 369 225 b 511 364 447 225 511 286 b 369 506 511 442 447 506 z m 586 746 b 522 897 586 806 565 856 b 369 961 481 940 429 961 l 313 961 l 313 936 l 369 936 b 504 879 422 936 467 917 b 561 746 542 842 561 797 b 515 624 561 700 546 658 b 439 568 493 597 468 578 b 586 364 526 539 586 457 b 522 213 586 304 565 254 b 369 150 481 171 429 150 l 313 150 l 313 125 l 369 125 b 539 194 436 125 493 149 b 610 364 586 242 610 299 b 494 569 610 454 571 524 b 586 746 556 611 586 669 z m 636 746 b 557 933 636 819 610 882 b 369 1011 506 985 443 1011 l 313 1011 l 313 986 l 369 986 b 540 915 438 986 494 963 b 611 746 588 869 611 813 b 581 629 611 706 601 667 b 535 571 567 603 551 583 b 636 364 603 517 636 449 b 558 176 636 290 610 228 b 369 100 507 125 443 100 l 313 100 l 313 75 l 369 75 b 575 160 450 75 518 103 b 661 364 632 217 661 285 b 571 572 661 444 631 514 b 636 746 614 625 636 683 z m 686 746 b 593 968 686 833 656 907 b 369 1061 532 1031 457 1061 l 313 1061 l 313 1036 l 369 1036 b 575 950 450 1036 518 1007 b 661 746 632 893 661 825 b 606 574 661 690 643 633 b 685 364 658 511 685 442 b 592 142 685 276 654 203 b 369 50 531 81 457 50 l 313 50 l 313 25 l 369 25 b 611 124 464 25 544 58 b 711 364 678 190 711 271 b 636 575 711 444 686 515 b 686 746 669 626 686 683 z m 313 863 l 313 629 l 369 629 b 486 746 435 629 486 683 b 369 863 486 808 432 863 z m 313 911 l 313 886 l 369 886 b 511 746 447 886 511 824 b 369 606 511 668 447 606 l 313 606 l 313 581 l 369 581 b 488 629 415 581 456 597 b 536 746 519 661 536 700 b 488 863 536 792 519 831 b 369 911 456 894 415 911 z m 665 576 b 735 364 711 513 735 442 b 628 106 735 263 699 176 b 369 0 557 35 471 0 l 288 0 l 288 1086 l 369 1086 b 611 986 464 1086 544 1053 b 711 746 678 919 711 839 b 665 576 711 686 696 631 z m 163 1086 l 163 0 l 138 0 l 138 1086 z m 213 1086 l 213 0 l 188 0 l 188 1086 z m 263 1086 l 263 0 l 238 0 l 238 1086 z m 113 1086 l 113 0 l 88 0 l 88 1086 z "},"C":{"ha":685,"x_min":0,"x_max":0,"o":"m 686 868 b 619 874 658 872 636 874 b 386 776 529 874 451 842 b 289 543 321 711 289 633 b 386 310 289 453 321 375 b 619 213 451 244 529 213 b 686 221 642 213 664 215 l 686 194 b 619 188 668 190 646 188 b 368 292 521 188 438 222 b 264 543 299 361 264 444 b 368 794 264 642 299 726 b 619 899 438 864 521 899 b 686 893 644 899 667 897 z m 686 918 b 619 924 667 922 644 924 b 350 811 515 924 425 886 b 239 543 276 738 239 647 b 350 274 239 439 276 349 b 619 163 425 200 515 163 b 686 169 646 163 668 165 l 686 144 b 619 138 668 140 646 138 b 332 256 507 138 411 176 b 214 543 253 335 214 431 b 332 829 214 656 253 750 b 619 949 411 908 507 949 b 686 943 644 949 667 947 z m 686 968 b 619 974 668 972 646 974 b 315 847 501 974 400 932 b 189 543 231 763 189 661 b 315 239 189 425 231 324 b 619 113 400 154 501 113 b 686 118 644 113 667 114 l 686 93 b 619 88 667 89 644 88 b 297 221 493 88 386 132 b 164 543 208 310 164 417 b 297 865 164 669 208 776 b 619 999 386 954 493 999 b 686 994 642 999 664 997 z m 686 1019 b 619 1024 664 1022 642 1024 b 279 882 488 1024 374 976 b 139 543 186 789 139 675 b 279 203 139 411 186 297 b 619 63 374 110 488 63 b 686 68 635 63 657 64 l 686 43 b 619 38 657 39 635 38 b 261 185 479 38 360 86 b 114 543 163 283 114 403 b 261 900 114 683 163 801 b 619 1049 360 999 479 1049 b 686 1044 642 1049 664 1047 z m 686 1069 b 619 1074 664 1072 642 1074 b 244 918 474 1074 349 1022 b 89 543 140 814 89 689 b 244 169 89 397 140 274 b 619 14 349 65 474 14 b 686 18 642 14 664 15 l 686 -7 b 619 -11 664 -10 642 -11 b 226 150 465 -11 335 43 b 65 543 119 258 65 389 b 226 936 65 697 119 828 b 619 1099 335 1044 465 1099 b 686 1094 642 1099 664 1097 z "},"D":{"ha":835,"x_min":0,"x_max":0,"o":"m 313 50 l 313 25 b 679 179 456 28 578 79 b 831 543 781 279 831 400 b 679 907 831 686 781 807 b 313 1061 578 1007 456 1058 l 313 1036 b 663 890 450 1033 567 985 b 806 543 758 796 806 681 b 663 196 806 406 758 290 b 313 50 567 101 450 53 z m 313 100 l 313 75 b 644 214 443 78 554 124 b 781 543 735 304 781 414 b 644 872 781 672 735 782 b 313 1011 554 963 443 1008 l 313 986 b 626 854 436 983 542 939 b 756 543 713 769 756 667 b 626 232 756 421 713 317 b 313 100 540 147 436 103 z m 313 150 l 313 125 b 608 249 429 128 528 169 b 731 543 690 329 731 428 b 608 836 731 658 690 757 b 313 961 528 917 429 958 l 313 936 b 592 819 422 933 515 894 b 706 543 668 744 706 653 b 590 267 706 435 667 343 b 313 150 514 192 422 153 z m 313 200 l 313 175 b 574 285 415 178 503 214 b 681 543 644 356 681 442 b 574 801 681 644 644 731 b 313 911 503 872 415 908 l 313 886 b 557 783 410 883 492 849 b 657 543 624 718 657 639 b 557 301 657 447 624 367 b 313 200 490 236 408 203 z m 313 863 l 313 225 b 539 319 401 228 476 260 b 632 543 601 381 632 456 b 539 765 632 631 601 706 b 313 863 476 826 401 858 z m 288 0 l 288 1086 l 313 1086 b 697 928 464 1086 593 1033 b 856 543 803 824 856 694 b 696 157 856 392 803 263 b 313 0 590 53 463 0 z m 163 1086 l 163 0 l 138 0 l 138 1086 z m 213 1086 l 213 0 l 188 0 l 188 1086 z m 263 1086 l 263 0 l 238 0 l 238 1086 z m 113 1086 l 113 0 l 88 0 l 88 1086 z "},"E":{"ha":713,"x_min":0,"x_max":0,"o":"m 113 1086 l 113 0 l 88 0 l 88 1086 z m 263 1086 l 263 0 l 238 0 l 238 1086 z m 213 1086 l 213 0 l 188 0 l 188 1086 z m 163 1086 l 163 0 l 138 0 l 138 1086 z m 313 482 l 313 457 l 614 457 l 614 432 l 313 432 l 313 225 l 718 225 l 718 200 l 313 200 l 313 175 l 718 175 l 718 150 l 313 150 l 313 125 l 718 125 l 718 100 l 313 100 l 313 75 l 718 75 l 718 50 l 313 50 l 313 25 l 718 25 l 718 0 l 288 0 l 288 1086 l 718 1086 l 718 1061 l 313 1061 l 313 1036 l 718 1036 l 718 1011 l 313 1011 l 313 986 l 718 986 l 718 961 l 313 961 l 313 936 l 718 936 l 718 911 l 313 911 l 313 886 l 718 886 l 718 863 l 313 863 l 313 657 l 614 657 l 614 632 l 313 632 l 313 607 l 614 607 l 614 582 l 313 582 l 313 557 l 614 557 l 614 532 l 313 532 l 313 507 l 614 507 l 614 482 z "},"F":{"ha":708,"x_min":0,"x_max":0,"o":"m 113 1086 l 113 0 l 88 0 l 88 1086 z m 263 1086 l 263 0 l 238 0 l 238 1086 z m 213 1086 l 213 0 l 188 0 l 188 1086 z m 163 1086 l 163 0 l 138 0 l 138 1086 z m 313 482 l 313 457 l 614 457 l 614 432 l 313 432 l 313 0 l 288 0 l 288 1086 l 718 1086 l 718 1061 l 313 1061 l 313 1036 l 718 1036 l 718 1011 l 313 1011 l 313 986 l 718 986 l 718 961 l 313 961 l 313 936 l 718 936 l 718 911 l 313 911 l 313 886 l 718 886 l 718 863 l 313 863 l 313 657 l 614 657 l 614 632 l 313 632 l 313 607 l 614 607 l 614 582 l 313 582 l 313 557 l 614 557 l 614 532 l 313 532 l 313 507 l 614 507 l 614 482 z "},"G":{"ha":956,"x_min":0,"x_max":0,"o":"m 731 531 l 756 531 l 756 0 l 731 0 l 731 4 b 619 -11 690 -6 653 -11 b 226 150 465 -11 335 43 b 65 543 119 258 65 389 b 226 936 65 697 119 828 b 619 1099 335 1044 465 1099 b 951 988 742 1099 853 1061 l 936 968 b 619 1074 842 1039 736 1074 b 244 918 474 1074 349 1022 b 89 543 140 814 89 689 b 244 169 89 397 140 274 b 619 14 349 65 474 14 b 731 31 638 14 675 19 l 731 57 b 619 38 676 44 640 38 b 261 185 479 38 360 86 b 114 543 163 283 114 403 b 261 900 114 683 163 801 b 619 1049 360 999 479 1049 b 922 947 732 1049 832 1015 l 907 926 b 619 1024 822 992 726 1024 b 279 882 488 1024 374 976 b 139 543 186 789 139 675 b 279 203 139 411 186 297 b 619 63 374 110 488 63 b 731 85 643 63 679 69 l 731 111 b 619 88 688 96 651 88 b 297 221 493 88 386 132 b 164 543 208 310 164 417 b 297 865 164 669 208 776 b 619 999 386 954 493 999 b 894 906 719 999 811 968 l 879 886 b 619 974 800 944 714 974 b 315 847 501 974 400 932 b 189 543 231 763 189 661 b 315 239 189 425 231 324 b 619 113 400 154 501 113 b 731 140 649 113 685 122 l 731 172 b 619 138 693 149 657 138 b 332 256 507 138 411 176 b 214 543 253 335 214 431 b 332 829 214 656 253 750 b 619 949 411 908 507 949 b 865 867 707 949 789 921 l 851 846 b 619 924 782 897 704 924 b 350 811 515 924 425 886 b 239 543 276 738 239 647 b 350 274 239 439 276 349 b 619 163 425 200 515 163 b 731 203 656 163 693 176 l 731 236 b 619 188 701 204 665 188 b 368 292 521 188 438 222 b 264 543 299 361 264 444 b 368 794 264 642 299 726 b 619 899 438 864 521 899 b 838 825 699 899 772 874 l 821 803 b 619 874 765 850 699 874 b 386 776 529 874 451 842 b 289 543 321 711 289 633 b 386 310 289 453 321 375 b 619 213 451 244 529 213 b 731 274 665 213 703 233 z m 806 531 l 806 0 l 781 0 l 781 531 z m 856 531 l 856 0 l 831 0 l 831 531 z m 906 531 l 906 0 l 881 0 l 881 531 z m 956 531 l 956 0 l 931 0 l 931 531 z "},"H":{"ha":965,"x_min":0,"x_max":0,"o":"m 963 1086 l 963 0 l 938 0 l 938 1086 z m 914 1086 l 914 0 l 889 0 l 889 1086 z m 864 1086 l 864 0 l 839 0 l 839 1086 z m 814 1086 l 814 0 l 789 0 l 789 1086 z m 113 1086 l 113 0 l 88 0 l 88 1086 z m 263 1086 l 263 0 l 238 0 l 238 1086 z m 213 1086 l 213 0 l 188 0 l 188 1086 z m 163 1086 l 163 0 l 138 0 l 138 1086 z m 313 507 l 739 507 l 739 532 l 313 532 z m 313 457 l 739 457 l 739 482 l 313 482 z m 739 657 l 739 1086 l 764 1086 l 764 0 l 739 0 l 739 432 l 313 432 l 313 0 l 288 0 l 288 1086 l 313 1086 l 313 657 z m 313 607 l 739 607 l 739 632 l 313 632 z m 739 557 l 739 582 l 313 582 l 313 557 z "},"I":{"ha":313,"x_min":0,"x_max":0,"o":"m 163 1086 l 163 0 l 138 0 l 138 1086 z m 213 1086 l 213 0 l 188 0 l 188 1086 z m 263 1086 l 263 0 l 238 0 l 238 1086 z m 313 1086 l 313 0 l 288 0 l 288 1086 z m 113 1086 l 113 0 l 88 0 l 88 1086 z "},"J":{"ha":558,"x_min":0,"x_max":0,"o":"m 408 276 b 281 150 408 206 351 150 l 88 150 l 88 175 l 281 175 b 383 276 336 175 383 221 l 383 1086 l 408 1086 z m 508 276 b 442 117 508 214 486 161 b 281 50 397 72 343 50 l 88 50 l 88 75 l 281 75 b 424 133 336 75 383 94 b 483 276 464 174 483 221 l 483 1086 l 508 1086 z m 333 276 l 333 1086 l 358 1086 l 358 276 b 281 200 358 233 324 200 l 88 200 l 88 225 l 281 225 b 333 276 308 225 333 249 z m 533 276 l 533 1086 l 558 1086 l 558 276 b 476 81 558 200 531 135 b 281 0 422 26 357 0 l 88 0 l 88 25 l 281 25 b 458 99 350 25 410 50 b 533 276 508 147 533 207 z m 433 276 l 433 1086 l 458 1086 l 458 276 b 406 151 458 228 440 186 b 281 100 371 117 329 100 l 88 100 l 88 125 l 281 125 b 433 276 364 125 433 193 z "},"K":{"ha":969,"x_min":0,"x_max":0,"o":"m 422 700 l 703 1086 l 735 1086 l 456 700 l 471 679 l 765 1086 l 796 1086 l 486 660 l 503 639 l 826 1086 l 857 1086 l 518 618 l 533 596 l 890 1086 l 919 1086 l 549 576 l 564 556 l 950 1086 l 981 1086 l 581 535 l 982 0 l 953 0 z m 313 0 l 288 0 l 288 1086 l 313 1086 l 313 557 l 732 0 l 701 0 l 313 515 z m 346 594 l 794 0 l 764 0 l 332 574 z m 378 639 l 857 0 l 826 0 l 361 617 z m 408 679 l 919 0 l 889 0 l 392 658 z m 163 1086 l 163 0 l 138 0 l 138 1086 z m 213 1086 l 213 0 l 188 0 l 188 1086 z m 263 1086 l 263 0 l 238 0 l 238 1086 z m 113 1086 l 113 0 l 88 0 l 88 1086 z "},"L":{"ha":744,"x_min":0,"x_max":0,"o":"m 113 1086 l 113 0 l 88 0 l 88 1086 z m 263 1086 l 263 0 l 238 0 l 238 1086 z m 213 1086 l 213 0 l 188 0 l 188 1086 z m 163 1086 l 163 0 l 138 0 l 138 1086 z m 313 225 l 756 225 l 756 200 l 313 200 l 313 175 l 756 175 l 756 150 l 313 150 l 313 125 l 756 125 l 756 100 l 313 100 l 313 75 l 756 75 l 756 50 l 313 50 l 313 25 l 756 25 l 756 0 l 288 0 l 288 1086 l 313 1086 z "},"M":{"ha":1575,"x_min":0,"x_max":0,"o":"m 928 0 l 1242 724 l 1235 768 l 903 0 l 875 0 l 1228 813 l 1219 860 l 849 0 l 819 0 l 1211 908 l 1204 950 l 790 0 l 764 0 l 1197 999 l 1189 1043 l 738 0 l 710 0 l 413 700 l 294 0 l 271 0 l 393 743 l 376 788 l 243 0 l 221 0 l 358 826 l 340 871 l 194 0 l 169 0 l 322 915 l 304 958 l 143 0 l 119 0 l 286 999 l 267 1043 l 93 0 l 68 0 l 250 1086 l 276 1086 l 724 29 l 738 58 l 303 1086 l 329 1086 l 750 92 l 764 122 l 358 1086 l 388 1086 l 778 156 l 793 189 l 411 1086 l 439 1086 l 806 221 l 819 251 l 465 1086 l 492 1086 l 832 282 l 1182 1086 l 1207 1086 l 1389 0 l 1364 0 l 1250 678 l 956 0 z m 1258 1086 l 1439 0 l 1415 0 l 1233 1086 z m 1308 1086 l 1490 0 l 1465 0 l 1283 1086 z m 1358 1086 l 1540 0 l 1515 0 l 1335 1086 z m 1410 1086 l 1592 0 l 1567 0 l 1385 1086 z "},"N":{"ha":975,"x_min":0,"x_max":0,"o":"m 290 1086 l 915 0 l 886 0 l 261 1086 z m 233 1086 l 858 0 l 828 0 l 204 1086 z m 175 1086 l 800 0 l 771 0 l 147 1086 z m 824 260 l 849 217 l 849 1086 l 874 1086 l 874 174 l 899 131 l 899 1086 l 924 1086 l 924 86 l 949 44 l 949 1086 l 974 1086 l 974 0 l 943 0 l 318 1086 l 346 1086 l 749 389 l 749 1086 l 774 1086 l 774 346 l 799 304 l 799 1086 l 824 1086 z m 138 1000 l 113 1044 l 113 0 l 88 0 l 88 1086 l 114 1086 l 743 0 l 713 0 l 313 696 l 313 0 l 288 0 l 288 739 l 263 782 l 263 0 l 238 0 l 238 825 l 213 869 l 213 0 l 188 0 l 188 914 l 163 957 l 163 0 l 138 0 z "},"O":{"ha":1154,"x_min":0,"x_max":0,"o":"m 619 -11 b 226 150 465 -11 335 43 b 65 543 119 258 65 389 b 226 936 65 697 119 828 b 619 1099 335 1044 465 1099 b 1013 936 774 1099 904 1044 b 1175 543 1121 828 1175 697 b 1013 150 1175 389 1121 258 b 619 -11 904 43 774 -11 z m 89 543 b 244 169 89 397 140 274 b 619 14 349 65 474 14 b 994 169 765 14 890 65 b 1150 543 1099 274 1150 397 b 994 918 1150 689 1099 814 b 619 1074 890 1022 765 1074 b 244 918 474 1074 349 1022 b 89 543 140 814 89 689 z m 619 38 b 261 185 479 38 360 86 b 114 543 163 283 114 403 b 261 900 114 683 163 801 b 619 1049 360 999 479 1049 b 976 900 760 1049 878 999 b 1125 543 1075 801 1125 683 b 976 185 1125 403 1075 283 b 619 38 878 86 760 38 z m 139 543 b 279 203 139 411 186 297 b 619 63 374 110 488 63 b 958 203 751 63 865 110 b 1100 543 1053 297 1100 411 b 958 882 1100 675 1053 789 b 619 1024 865 976 751 1024 b 279 882 488 1024 374 976 b 139 543 186 789 139 675 z m 619 88 b 297 221 493 88 386 132 b 164 543 208 310 164 417 b 297 865 164 669 208 776 b 619 999 386 954 493 999 b 942 865 746 999 853 954 b 1075 543 1031 776 1075 669 b 942 221 1075 417 1031 310 b 619 88 853 132 746 88 z m 189 543 b 315 239 189 425 231 324 b 619 113 400 154 501 113 b 924 239 738 113 839 154 b 1050 543 1008 324 1050 425 b 924 847 1050 661 1008 763 b 619 974 839 932 738 974 b 315 847 501 974 400 932 b 189 543 231 763 189 661 z m 619 138 b 332 256 507 138 411 176 b 214 543 253 335 214 431 b 332 829 214 656 253 750 b 619 949 411 908 507 949 b 906 829 732 949 826 908 b 1025 543 985 750 1025 656 b 906 256 1025 431 985 335 b 619 138 826 176 732 138 z m 239 543 b 350 274 239 439 276 349 b 619 163 425 200 515 163 b 888 274 724 163 814 200 b 1000 543 963 349 1000 439 b 888 811 1000 647 963 738 b 619 924 814 886 724 924 b 350 811 515 924 425 886 b 239 543 276 738 239 647 z m 619 188 b 368 292 521 188 438 222 b 264 543 299 361 264 444 b 368 794 264 642 299 726 b 619 899 438 864 521 899 b 871 794 718 899 803 864 b 975 543 940 726 975 642 b 871 292 975 444 940 361 b 619 188 803 222 718 188 z m 289 543 b 386 310 289 453 321 375 b 619 213 451 244 529 213 b 853 310 710 213 788 244 b 950 543 918 375 950 453 b 853 776 950 633 918 711 b 619 874 788 842 710 874 b 386 776 529 874 451 842 b 289 543 321 711 289 633 z "},"P":{"ha":728,"x_min":0,"x_max":0,"o":"m 163 1086 l 163 0 l 138 0 l 138 1086 z m 213 1086 l 213 0 l 188 0 l 188 1086 z m 263 1086 l 263 0 l 238 0 l 238 1086 z m 113 1086 l 113 0 l 88 0 l 88 1086 z m 313 1061 l 313 1036 l 408 1036 b 613 950 488 1036 556 1007 b 699 746 669 893 699 825 b 613 540 699 667 669 597 b 408 456 556 483 488 456 l 313 456 l 313 431 l 408 431 b 632 522 496 431 571 461 b 724 746 693 585 724 658 b 632 969 724 833 693 908 b 408 1061 571 1031 496 1061 z m 313 1011 l 313 986 l 408 986 b 578 915 475 986 532 963 b 649 746 625 868 649 811 b 578 576 649 681 625 624 b 408 506 531 529 474 506 l 313 506 l 313 481 l 408 481 b 596 558 482 481 544 507 b 674 746 647 610 674 672 b 596 933 674 819 647 882 b 408 1011 544 985 482 1011 z m 313 961 l 313 936 l 408 936 b 543 879 461 936 506 917 b 599 746 581 842 599 797 b 542 611 599 694 579 649 b 408 556 504 574 460 556 l 313 556 l 313 531 l 408 531 b 560 593 468 531 518 551 b 624 746 603 636 624 686 b 560 897 624 806 603 856 b 408 961 518 940 468 961 z m 313 911 l 313 886 l 408 886 b 549 746 486 886 549 824 b 408 606 549 668 486 606 l 313 606 l 313 581 l 408 581 b 525 629 454 581 493 597 b 574 746 557 661 574 700 b 525 863 574 792 557 831 b 408 911 493 894 454 911 z m 313 863 l 313 629 l 408 629 b 524 746 471 629 524 683 b 408 863 524 808 471 863 z m 408 1086 b 649 986 501 1086 582 1053 b 749 746 715 919 749 839 b 649 506 749 653 715 572 b 408 406 582 439 501 406 l 313 406 l 313 0 l 288 0 l 288 1086 z "},"Q":{"ha":1154,"x_min":0,"x_max":0,"o":"m 900 67 b 619 -11 825 15 732 -11 b 226 150 465 -11 335 43 b 65 543 119 258 65 389 b 226 936 65 697 119 828 b 619 1099 335 1044 465 1099 b 1013 936 774 1099 904 1044 b 1175 543 1121 828 1175 697 b 1067 214 1175 428 1139 318 l 1139 129 l 1121 113 l 901 372 b 950 543 933 424 950 481 b 853 776 950 633 918 711 b 619 874 788 842 710 874 b 386 776 529 874 451 842 b 289 543 321 711 289 633 b 386 310 289 453 321 375 b 619 213 451 244 529 213 b 775 253 682 213 733 226 l 986 1 l 968 -15 z m 769 221 b 619 188 715 199 665 188 b 368 292 521 188 438 222 b 264 543 299 361 264 444 b 368 794 264 642 299 726 b 619 899 438 864 521 899 b 871 794 718 899 803 864 b 975 543 940 726 975 642 b 932 375 975 482 961 426 l 950 356 b 1000 543 983 415 1000 478 b 888 811 1000 647 963 738 b 619 924 814 886 724 924 b 350 811 515 924 425 886 b 239 543 276 738 239 647 b 350 274 239 439 276 349 b 619 163 425 200 515 163 b 786 203 685 163 740 176 z m 801 182 b 619 138 744 153 685 138 b 332 256 507 138 411 176 b 214 543 253 335 214 431 b 332 829 214 656 253 750 b 619 949 411 908 507 949 b 906 829 732 949 826 908 b 1025 543 985 750 1025 656 b 967 335 1025 469 1006 400 l 983 314 b 1050 543 1028 379 1050 456 b 924 847 1050 661 1008 763 b 619 974 839 932 738 974 b 315 847 501 974 400 932 b 189 543 231 763 189 661 b 315 239 189 425 231 324 b 619 113 400 154 501 113 b 819 163 696 113 763 129 z m 835 143 b 619 88 767 106 696 88 b 297 221 493 88 386 132 b 164 543 208 310 164 417 b 297 865 164 669 208 776 b 619 999 386 954 493 999 b 942 865 746 999 853 954 b 1075 543 1031 776 1075 669 b 1000 294 1075 449 1050 365 l 1018 275 b 1100 543 1072 350 1100 439 b 958 882 1100 675 1053 789 b 619 1024 865 976 751 1024 b 279 882 488 1024 374 976 b 139 543 186 789 139 675 b 279 203 139 411 186 297 b 619 63 374 110 488 63 b 853 124 703 63 781 83 z m 869 104 b 619 38 788 60 704 38 b 261 185 479 38 360 86 b 114 543 163 283 114 403 b 261 900 114 683 163 801 b 619 1049 360 999 479 1049 b 976 900 760 1049 878 999 b 1125 543 1075 801 1125 683 b 1033 256 1125 433 1094 338 l 1050 235 b 1150 543 1117 328 1150 431 b 994 918 1150 689 1099 814 b 619 1074 890 1022 765 1074 b 244 918 474 1074 349 1022 b 89 543 140 814 89 689 b 244 169 89 397 140 274 b 619 14 349 65 474 14 b 883 83 718 14 807 38 z m 818 279 l 1025 32 l 1006 17 l 797 265 z m 854 313 l 1063 65 l 1044 49 l 838 293 b 854 313 843 299 849 306 z m 889 351 l 1101 97 l 1082 81 l 872 331 b 889 351 876 336 882 343 z "},"R":{"ha":751,"x_min":0,"x_max":0,"o":"m 376 597 l 618 0 l 592 0 l 351 593 b 376 597 358 594 367 596 z m 426 613 l 672 0 l 644 0 l 401 603 b 426 613 408 606 417 608 z m 469 633 l 726 0 l 699 0 l 447 622 b 469 633 457 624 464 628 z m 599 449 l 779 0 l 753 0 l 492 644 b 547 746 529 675 547 708 b 432 863 547 808 494 863 l 313 863 l 313 592 l 326 592 l 564 0 l 538 0 l 313 557 l 313 0 l 288 0 l 288 1086 l 432 1086 b 672 986 525 1086 606 1053 b 772 746 739 919 772 839 b 701 539 772 669 749 600 b 599 449 669 496 635 467 z m 589 471 b 747 746 694 533 747 625 b 656 969 747 833 717 908 b 432 1061 594 1031 519 1061 l 313 1061 l 313 1036 l 432 1036 b 636 950 511 1036 579 1007 b 722 746 693 893 722 825 b 581 496 722 636 675 553 z m 569 518 b 697 746 654 575 697 650 b 618 933 697 819 671 882 b 432 1011 567 985 504 1011 l 313 1011 l 313 986 l 432 986 b 601 915 499 986 556 963 b 672 746 649 868 672 811 b 561 543 672 658 635 592 z m 550 565 b 647 746 615 610 647 669 b 583 897 647 806 626 856 b 432 961 542 940 492 961 l 313 961 l 313 936 l 432 936 b 567 879 485 936 529 917 b 622 746 604 842 622 797 b 542 590 622 681 596 629 z m 532 614 b 597 746 575 647 597 692 b 549 863 597 792 581 831 b 432 911 517 894 478 911 l 313 911 l 313 886 l 432 886 b 572 746 510 886 572 824 b 522 639 572 697 556 661 z m 163 1086 l 163 0 l 138 0 l 138 1086 z m 213 1086 l 213 0 l 188 0 l 188 1086 z m 263 1086 l 263 0 l 238 0 l 238 1086 z m 113 1086 l 113 0 l 88 0 l 88 1086 z "},"S":{"ha":679,"x_min":0,"x_max":0,"o":"m 668 883 b 389 1074 622 996 513 1074 b 178 985 307 1074 238 1044 b 89 774 118 926 89 856 b 167 572 89 696 115 629 b 361 478 219 517 285 485 b 500 332 443 471 500 410 b 357 188 500 253 436 188 b 228 271 297 188 254 215 l 249 283 b 357 213 268 236 304 213 b 475 332 422 213 475 267 b 361 453 475 394 424 447 b 151 554 279 460 208 493 b 65 774 94 617 65 689 b 160 1003 65 864 97 940 b 389 1099 222 1067 299 1099 b 689 897 522 1099 639 1015 z m 581 833 b 389 974 554 917 478 974 b 247 914 335 974 288 954 b 189 774 208 875 189 828 b 242 639 189 722 207 676 b 371 575 276 601 319 579 b 535 497 438 569 492 543 b 600 332 578 451 600 397 b 528 160 600 265 576 208 b 357 88 481 111 424 88 b 144 213 267 88 185 136 l 165 226 b 357 113 207 150 271 113 b 511 176 417 113 468 133 b 575 332 554 219 575 272 b 514 481 575 389 554 439 b 368 551 474 524 425 547 b 224 622 311 556 264 579 b 165 774 185 665 165 715 b 231 932 165 836 188 889 b 389 999 274 976 326 999 b 600 846 485 999 568 935 z m 488 779 b 389 874 483 831 440 874 b 290 774 335 874 290 828 b 383 674 290 719 332 678 b 604 569 469 667 543 632 b 700 332 668 503 700 424 b 599 89 700 238 667 157 b 357 -11 532 22 451 -11 b 61 156 235 -11 124 54 l 83 169 b 357 14 144 65 236 14 b 582 107 444 14 519 44 b 675 332 644 169 675 244 b 589 550 675 418 646 490 b 381 650 532 610 463 643 b 264 774 313 656 264 707 b 389 899 264 844 321 899 b 513 794 450 899 503 851 z m 535 807 b 389 924 522 874 460 924 b 283 879 349 924 313 908 b 239 774 254 850 239 814 b 378 625 239 696 299 632 b 569 532 453 618 517 588 b 650 332 624 478 650 411 b 564 124 650 251 621 182 b 357 38 507 67 438 38 b 103 183 249 38 164 86 l 124 199 b 357 63 169 117 258 63 b 546 142 431 63 494 89 b 625 332 599 194 625 258 b 554 514 625 403 601 464 b 375 600 507 565 447 593 b 261 657 331 604 293 624 b 215 774 231 690 215 729 b 265 897 215 822 232 863 b 389 949 300 932 340 949 b 557 819 468 949 536 896 z m 624 857 b 389 1024 590 956 494 1024 b 213 950 321 1024 261 999 b 139 774 164 901 139 842 b 204 606 139 708 161 653 b 365 526 249 558 303 532 b 496 464 417 522 461 501 b 550 332 532 428 550 383 b 493 194 550 278 531 232 b 357 138 456 157 411 138 b 186 240 278 138 221 172 l 207 256 b 357 163 239 193 289 163 b 475 213 403 163 443 179 b 525 332 508 246 525 286 b 478 447 525 376 510 415 b 364 503 447 481 410 499 b 188 589 294 508 236 538 b 117 774 140 640 117 703 b 196 968 117 850 143 914 b 389 1049 249 1022 313 1049 b 644 871 506 1049 606 976 z "},"T":{"ha":738,"x_min":0,"x_max":0,"o":"m 76 1086 l 740 1086 l 740 1061 l 76 1061 z m 76 1036 l 740 1036 l 740 1011 l 76 1011 z m 76 986 l 740 986 l 740 961 l 76 961 z m 76 936 l 740 936 l 740 911 l 76 911 z m 346 863 l 322 863 l 322 0 l 297 0 l 297 863 l 76 863 l 76 886 l 740 886 l 740 863 l 521 863 l 521 0 l 496 0 l 496 863 l 471 863 l 471 0 l 446 0 l 446 863 l 421 863 l 421 0 l 396 0 l 396 863 l 371 863 l 371 0 l 346 0 z "},"U":{"ha":890,"x_min":0,"x_max":0,"o":"m 890 389 b 772 106 890 279 851 185 b 489 -11 694 28 600 -11 b 204 106 378 -11 283 28 b 88 389 126 185 88 279 l 88 1086 l 113 1086 l 113 389 b 222 124 113 285 149 197 b 489 14 296 50 385 14 b 754 124 593 14 681 50 b 865 389 828 197 865 285 l 865 1086 l 890 1086 z m 840 389 b 738 140 840 293 806 210 b 489 38 669 72 586 38 b 240 140 392 38 308 72 b 138 389 172 210 138 293 l 138 1086 l 163 1086 l 163 389 b 258 158 163 299 194 222 b 489 63 322 94 399 63 b 719 158 579 63 657 94 b 815 389 783 222 815 299 l 815 1086 l 840 1086 z m 790 389 b 701 176 790 307 761 236 b 489 88 642 117 571 88 b 276 176 407 88 336 117 b 188 389 217 236 188 307 l 188 1086 l 213 1086 l 213 389 b 293 193 213 313 239 247 b 489 113 347 139 413 113 b 683 193 565 113 629 139 b 765 389 738 247 765 313 l 765 1086 l 790 1086 z m 740 389 b 665 211 740 321 715 261 b 489 138 617 163 557 138 b 311 211 421 138 361 163 b 238 389 263 261 238 321 l 238 1086 l 263 1086 l 263 389 b 329 229 263 326 285 274 b 489 163 374 185 426 163 b 649 229 551 163 606 185 b 715 389 693 274 715 326 l 715 1086 l 740 1086 z m 690 389 b 631 246 690 333 671 286 b 489 188 592 207 544 188 b 346 246 433 188 386 207 b 288 389 307 286 288 333 l 288 1086 l 313 1086 l 313 389 b 364 264 313 340 329 299 b 489 213 399 229 440 213 b 614 264 538 213 579 229 b 665 389 649 299 665 340 l 665 1086 l 690 1086 z "},"V":{"ha":1067,"x_min":0,"x_max":0,"o":"m 610 217 l 622 182 l 950 1086 l 976 1086 l 636 146 l 649 108 l 1003 1086 l 1029 1086 l 663 71 l 675 35 l 1057 1086 l 1083 1086 l 689 0 l 663 0 l 271 1086 l 297 1086 l 569 329 l 843 1086 l 871 1086 l 583 290 l 596 256 l 896 1086 l 922 1086 z m 138 1086 l 531 0 l 504 0 l 111 1086 z m 190 1086 l 585 0 l 558 0 l 163 1086 z m 243 1086 l 638 0 l 610 0 l 217 1086 z m 85 1086 l 478 0 l 451 0 l 58 1086 z "},"W":{"ha":1654,"x_min":0,"x_max":0,"o":"m 242 1086 l 551 0 l 526 0 l 214 1086 z m 763 1086 l 789 1086 l 511 329 l 522 286 l 815 1086 l 843 1086 l 535 247 l 546 207 l 869 1086 l 896 1086 l 558 165 l 569 125 l 921 1086 l 949 1086 l 582 82 l 593 42 l 975 1086 l 1001 1086 l 1243 376 l 1444 1086 l 1471 1086 l 1258 333 l 1272 290 l 1496 1086 l 1522 1086 l 1288 250 l 1301 208 l 1549 1086 l 1574 1086 l 1315 168 l 1329 126 l 1600 1086 l 1626 1086 l 1343 82 l 1358 42 l 1653 1086 l 1678 1086 l 1372 0 l 1346 0 l 988 1047 l 975 1011 l 1318 0 l 1292 0 l 960 971 l 947 933 l 1267 0 l 1240 0 l 933 899 l 919 863 l 1214 0 l 1186 0 l 906 822 l 893 786 l 1160 0 l 1133 0 l 878 749 l 606 0 l 581 0 l 267 1086 l 293 1086 l 499 369 z m 189 1086 l 503 0 l 475 0 l 164 1086 z m 138 1086 l 449 0 l 422 0 l 111 1086 z m 85 1086 l 397 0 l 371 0 l 60 1086 z "},"X":{"ha":928,"x_min":0,"x_max":0,"o":"m 550 693 l 565 668 l 801 1086 l 831 1086 l 581 643 l 593 617 l 858 1086 l 886 1086 l 608 592 l 622 565 l 917 1086 l 946 1086 l 638 542 l 943 0 l 914 0 l 299 1086 l 329 1086 l 508 769 l 688 1086 l 717 1086 l 522 744 l 536 718 l 744 1086 l 774 1086 z m 464 389 l 451 414 l 215 0 l 186 0 l 436 439 l 421 464 l 157 0 l 129 0 l 407 490 l 393 515 l 101 0 l 72 0 l 379 542 l 69 1086 l 99 1086 l 713 0 l 686 0 l 507 314 l 329 0 l 303 0 l 493 338 l 479 364 l 274 0 l 243 0 z m 156 1086 l 771 0 l 742 0 l 128 1086 z m 213 1086 l 828 0 l 799 0 l 183 1086 z m 271 1086 l 885 0 l 857 0 l 240 1086 z "},"Y":{"ha":958,"x_min":0,"x_max":0,"o":"m 613 390 l 278 1086 l 304 1086 l 525 625 l 746 1086 l 772 1086 l 538 597 l 550 572 l 799 1086 l 825 1086 l 563 546 l 575 519 l 850 1086 l 876 1086 l 588 493 l 600 468 l 903 1086 l 929 1086 l 613 442 l 625 417 l 957 1086 l 983 1086 l 638 390 l 638 0 l 613 0 z m 588 0 l 563 0 l 563 390 l 225 1086 l 251 1086 l 588 390 z m 538 0 l 513 0 l 513 390 l 174 1086 l 200 1086 l 538 390 z m 488 0 l 463 0 l 463 390 l 121 1086 l 147 1086 l 488 390 z m 438 0 l 413 0 l 413 390 l 67 1086 l 93 1086 l 438 390 z "},"Z":{"ha":858,"x_min":0,"x_max":0,"o":"m 82 1086 l 844 1086 l 832 1061 l 82 1061 z m 82 1036 l 821 1036 l 808 1011 l 82 1011 z m 82 986 l 796 986 l 783 961 l 82 961 z m 82 936 l 772 936 l 760 911 l 82 911 z m 708 863 l 679 863 l 260 0 l 232 0 l 651 863 l 625 863 l 204 0 l 178 0 l 597 863 l 569 863 l 149 0 l 121 0 l 540 863 l 514 863 l 94 0 l 67 0 l 486 863 l 82 863 l 82 886 l 747 886 l 424 225 l 858 225 l 858 200 l 413 200 l 401 175 l 858 175 l 858 150 l 389 150 l 378 125 l 858 125 l 858 100 l 364 100 l 353 75 l 858 75 l 858 50 l 340 50 l 329 25 l 858 25 l 858 0 l 288 0 z "},"[":{"ha":371,"x_min":0,"x_max":0,"o":"m 163 1086 l 163 -199 l 138 -199 l 138 1086 z m 113 1086 l 113 -199 l 88 -199 l 88 1086 z m 213 -124 l 368 -124 l 368 -149 l 213 -149 l 213 -174 l 368 -174 l 368 -199 l 188 -199 l 188 1086 l 368 1086 l 368 1061 l 213 1061 l 213 1036 l 368 1036 l 368 1011 l 213 1011 z "},"\\":{"ha":603,"x_min":0,"x_max":0,"o":"m 207 1089 l 606 -4 l 578 -4 l 181 1089 z m 101 1089 l 499 -4 l 472 -4 l 75 1089 z m 154 1089 l 551 -4 l 525 -4 l 128 1089 z "},"]":{"ha":371,"x_min":0,"x_max":0,"o":"m 368 1086 l 368 -199 l 343 -199 l 343 1086 z m 243 1011 l 88 1011 l 88 1036 l 243 1036 l 243 1061 l 88 1061 l 88 1086 l 268 1086 l 268 -199 l 88 -199 l 88 -174 l 243 -174 l 243 -149 l 88 -149 l 88 -124 l 243 -124 z m 318 1086 l 318 -199 l 293 -199 l 293 1086 z "},"^":{"ha":636,"x_min":0,"x_max":0,"o":"m 313 1353 l 119 1158 l 83 1158 l 278 1353 z m 383 1353 l 190 1158 l 156 1158 l 349 1353 z m 401 1300 l 383 1282 l 506 1158 l 469 1158 l 365 1264 l 261 1158 l 226 1158 l 418 1353 l 454 1353 l 647 1158 l 613 1158 l 436 1335 l 418 1317 l 575 1158 l 540 1158 z "},"_":{"ha":817,"x_min":0,"x_max":0,"o":"m 921 -203 l 86 -203 l 86 -106 l 921 -106 z "},"`":{"ha":453,"x_min":0,"x_max":0,"o":"m 194 1353 l 386 1158 l 351 1158 l 158 1353 z m 264 1353 l 458 1158 l 422 1158 l 229 1353 z m 124 1353 l 315 1158 l 281 1158 l 88 1353 z "},"a":{"ha":1138,"x_min":0,"x_max":0,"o":"m 431 293 l 419 268 l 818 268 l 808 293 z m 449 343 l 439 318 l 799 318 l 790 343 z m 761 418 l 619 778 l 479 418 z m 469 393 l 460 368 l 779 368 l 771 393 z m 839 219 l 829 243 l 411 243 l 401 219 z m 392 194 l 315 0 l 289 0 l 714 1086 l 742 1086 l 1165 0 l 1138 0 l 726 1053 l 714 1019 l 1110 0 l 1083 0 l 700 983 l 688 950 l 1058 0 l 1031 0 l 674 917 l 661 882 l 1006 0 l 978 0 l 647 849 l 635 811 l 950 0 l 924 0 l 849 194 z m 686 1086 l 261 0 l 233 0 l 660 1086 z m 633 1086 l 208 0 l 181 0 l 607 1086 z m 581 1086 l 156 0 l 128 0 l 551 1086 z m 524 1086 l 101 0 l 74 0 l 497 1086 z "},"b":{"ha":714,"x_min":0,"x_max":0,"o":"m 313 556 l 313 531 l 369 531 b 488 482 415 531 456 514 b 536 364 519 450 536 410 b 488 247 536 318 519 279 b 369 200 456 215 415 200 l 313 200 l 313 175 l 369 175 b 503 231 421 175 465 193 b 560 364 540 268 560 313 b 503 499 560 415 540 461 b 369 556 465 536 421 556 z m 313 506 l 313 225 l 369 225 b 511 364 447 225 511 286 b 369 506 511 442 447 506 z m 586 746 b 522 897 586 806 565 856 b 369 961 481 940 429 961 l 313 961 l 313 936 l 369 936 b 504 879 422 936 467 917 b 561 746 542 842 561 797 b 515 624 561 700 546 658 b 439 568 493 597 468 578 b 586 364 526 539 586 457 b 522 213 586 304 565 254 b 369 150 481 171 429 150 l 313 150 l 313 125 l 369 125 b 539 194 436 125 493 149 b 610 364 586 242 610 299 b 494 569 610 454 571 524 b 586 746 556 611 586 669 z m 636 746 b 557 933 636 819 610 882 b 369 1011 506 985 443 1011 l 313 1011 l 313 986 l 369 986 b 540 915 438 986 494 963 b 611 746 588 869 611 813 b 581 629 611 706 601 667 b 535 571 567 603 551 583 b 636 364 603 517 636 449 b 558 176 636 290 610 228 b 369 100 507 125 443 100 l 313 100 l 313 75 l 369 75 b 575 160 450 75 518 103 b 661 364 632 217 661 285 b 571 572 661 444 631 514 b 636 746 614 625 636 683 z m 686 746 b 593 968 686 833 656 907 b 369 1061 532 1031 457 1061 l 313 1061 l 313 1036 l 369 1036 b 575 950 450 1036 518 1007 b 661 746 632 893 661 825 b 606 574 661 690 643 633 b 685 364 658 511 685 442 b 592 142 685 276 654 203 b 369 50 531 81 457 50 l 313 50 l 313 25 l 369 25 b 611 124 464 25 544 58 b 711 364 678 190 711 271 b 636 575 711 444 686 515 b 686 746 669 626 686 683 z m 313 863 l 313 629 l 369 629 b 486 746 435 629 486 683 b 369 863 486 808 432 863 z m 313 911 l 313 886 l 369 886 b 511 746 447 886 511 824 b 369 606 511 668 447 606 l 313 606 l 313 581 l 369 581 b 488 629 415 581 456 597 b 536 746 519 661 536 700 b 488 863 536 792 519 831 b 369 911 456 894 415 911 z m 665 576 b 735 364 711 513 735 442 b 628 106 735 263 699 176 b 369 0 557 35 471 0 l 288 0 l 288 1086 l 369 1086 b 611 986 464 1086 544 1053 b 711 746 678 919 711 839 b 665 576 711 686 696 631 z m 163 1086 l 163 0 l 138 0 l 138 1086 z m 213 1086 l 213 0 l 188 0 l 188 1086 z m 263 1086 l 263 0 l 238 0 l 238 1086 z m 113 1086 l 113 0 l 88 0 l 88 1086 z "},"c":{"ha":685,"x_min":0,"x_max":0,"o":"m 686 868 b 619 874 658 872 636 874 b 386 776 529 874 451 842 b 289 543 321 711 289 633 b 386 310 289 453 321 375 b 619 213 451 244 529 213 b 686 221 642 213 664 215 l 686 194 b 619 188 668 190 646 188 b 368 292 521 188 438 222 b 264 543 299 361 264 444 b 368 794 264 642 299 726 b 619 899 438 864 521 899 b 686 893 644 899 667 897 z m 686 918 b 619 924 667 922 644 924 b 350 811 515 924 425 886 b 239 543 276 738 239 647 b 350 274 239 439 276 349 b 619 163 425 200 515 163 b 686 169 646 163 668 165 l 686 144 b 619 138 668 140 646 138 b 332 256 507 138 411 176 b 214 543 253 335 214 431 b 332 829 214 656 253 750 b 619 949 411 908 507 949 b 686 943 644 949 667 947 z m 686 968 b 619 974 668 972 646 974 b 315 847 501 974 400 932 b 189 543 231 763 189 661 b 315 239 189 425 231 324 b 619 113 400 154 501 113 b 686 118 644 113 667 114 l 686 93 b 619 88 667 89 644 88 b 297 221 493 88 386 132 b 164 543 208 310 164 417 b 297 865 164 669 208 776 b 619 999 386 954 493 999 b 686 994 642 999 664 997 z m 686 1019 b 619 1024 664 1022 642 1024 b 279 882 488 1024 374 976 b 139 543 186 789 139 675 b 279 203 139 411 186 297 b 619 63 374 110 488 63 b 686 68 635 63 657 64 l 686 43 b 619 38 657 39 635 38 b 261 185 479 38 360 86 b 114 543 163 283 114 403 b 261 900 114 683 163 801 b 619 1049 360 999 479 1049 b 686 1044 642 1049 664 1047 z m 686 1069 b 619 1074 664 1072 642 1074 b 244 918 474 1074 349 1022 b 89 543 140 814 89 689 b 244 169 89 397 140 274 b 619 14 349 65 474 14 b 686 18 642 14 664 15 l 686 -7 b 619 -11 664 -10 642 -11 b 226 150 465 -11 335 43 b 65 543 119 258 65 389 b 226 936 65 697 119 828 b 619 1099 335 1044 465 1099 b 686 1094 642 1099 664 1097 z "},"d":{"ha":835,"x_min":0,"x_max":0,"o":"m 313 50 l 313 25 b 679 179 456 28 578 79 b 831 543 781 279 831 400 b 679 907 831 686 781 807 b 313 1061 578 1007 456 1058 l 313 1036 b 663 890 450 1033 567 985 b 806 543 758 796 806 681 b 663 196 806 406 758 290 b 313 50 567 101 450 53 z m 313 100 l 313 75 b 644 214 443 78 554 124 b 781 543 735 304 781 414 b 644 872 781 672 735 782 b 313 1011 554 963 443 1008 l 313 986 b 626 854 436 983 542 939 b 756 543 713 769 756 667 b 626 232 756 421 713 317 b 313 100 540 147 436 103 z m 313 150 l 313 125 b 608 249 429 128 528 169 b 731 543 690 329 731 428 b 608 836 731 658 690 757 b 313 961 528 917 429 958 l 313 936 b 592 819 422 933 515 894 b 706 543 668 744 706 653 b 590 267 706 435 667 343 b 313 150 514 192 422 153 z m 313 200 l 313 175 b 574 285 415 178 503 214 b 681 543 644 356 681 442 b 574 801 681 644 644 731 b 313 911 503 872 415 908 l 313 886 b 557 783 410 883 492 849 b 657 543 624 718 657 639 b 557 301 657 447 624 367 b 313 200 490 236 408 203 z m 313 863 l 313 225 b 539 319 401 228 476 260 b 632 543 601 381 632 456 b 539 765 632 631 601 706 b 313 863 476 826 401 858 z m 288 0 l 288 1086 l 313 1086 b 697 928 464 1086 593 1033 b 856 543 803 824 856 694 b 696 157 856 392 803 263 b 313 0 590 53 463 0 z m 163 1086 l 163 0 l 138 0 l 138 1086 z m 213 1086 l 213 0 l 188 0 l 188 1086 z m 263 1086 l 263 0 l 238 0 l 238 1086 z m 113 1086 l 113 0 l 88 0 l 88 1086 z "},"e":{"ha":713,"x_min":0,"x_max":0,"o":"m 113 1086 l 113 0 l 88 0 l 88 1086 z m 263 1086 l 263 0 l 238 0 l 238 1086 z m 213 1086 l 213 0 l 188 0 l 188 1086 z m 163 1086 l 163 0 l 138 0 l 138 1086 z m 313 482 l 313 457 l 614 457 l 614 432 l 313 432 l 313 225 l 718 225 l 718 200 l 313 200 l 313 175 l 718 175 l 718 150 l 313 150 l 313 125 l 718 125 l 718 100 l 313 100 l 313 75 l 718 75 l 718 50 l 313 50 l 313 25 l 718 25 l 718 0 l 288 0 l 288 1086 l 718 1086 l 718 1061 l 313 1061 l 313 1036 l 718 1036 l 718 1011 l 313 1011 l 313 986 l 718 986 l 718 961 l 313 961 l 313 936 l 718 936 l 718 911 l 313 911 l 313 886 l 718 886 l 718 863 l 313 863 l 313 657 l 614 657 l 614 632 l 313 632 l 313 607 l 614 607 l 614 582 l 313 582 l 313 557 l 614 557 l 614 532 l 313 532 l 313 507 l 614 507 l 614 482 z "},"f":{"ha":708,"x_min":0,"x_max":0,"o":"m 113 1086 l 113 0 l 88 0 l 88 1086 z m 263 1086 l 263 0 l 238 0 l 238 1086 z m 213 1086 l 213 0 l 188 0 l 188 1086 z m 163 1086 l 163 0 l 138 0 l 138 1086 z m 313 482 l 313 457 l 614 457 l 614 432 l 313 432 l 313 0 l 288 0 l 288 1086 l 718 1086 l 718 1061 l 313 1061 l 313 1036 l 718 1036 l 718 1011 l 313 1011 l 313 986 l 718 986 l 718 961 l 313 961 l 313 936 l 718 936 l 718 911 l 313 911 l 313 886 l 718 886 l 718 863 l 313 863 l 313 657 l 614 657 l 614 632 l 313 632 l 313 607 l 614 607 l 614 582 l 313 582 l 313 557 l 614 557 l 614 532 l 313 532 l 313 507 l 614 507 l 614 482 z "},"g":{"ha":956,"x_min":0,"x_max":0,"o":"m 731 531 l 756 531 l 756 0 l 731 0 l 731 4 b 619 -11 690 -6 653 -11 b 226 150 465 -11 335 43 b 65 543 119 258 65 389 b 226 936 65 697 119 828 b 619 1099 335 1044 465 1099 b 951 988 742 1099 853 1061 l 936 968 b 619 1074 842 1039 736 1074 b 244 918 474 1074 349 1022 b 89 543 140 814 89 689 b 244 169 89 397 140 274 b 619 14 349 65 474 14 b 731 31 638 14 675 19 l 731 57 b 619 38 676 44 640 38 b 261 185 479 38 360 86 b 114 543 163 283 114 403 b 261 900 114 683 163 801 b 619 1049 360 999 479 1049 b 922 947 732 1049 832 1015 l 907 926 b 619 1024 822 992 726 1024 b 279 882 488 1024 374 976 b 139 543 186 789 139 675 b 279 203 139 411 186 297 b 619 63 374 110 488 63 b 731 85 643 63 679 69 l 731 111 b 619 88 688 96 651 88 b 297 221 493 88 386 132 b 164 543 208 310 164 417 b 297 865 164 669 208 776 b 619 999 386 954 493 999 b 894 906 719 999 811 968 l 879 886 b 619 974 800 944 714 974 b 315 847 501 974 400 932 b 189 543 231 763 189 661 b 315 239 189 425 231 324 b 619 113 400 154 501 113 b 731 140 649 113 685 122 l 731 172 b 619 138 693 149 657 138 b 332 256 507 138 411 176 b 214 543 253 335 214 431 b 332 829 214 656 253 750 b 619 949 411 908 507 949 b 865 867 707 949 789 921 l 851 846 b 619 924 782 897 704 924 b 350 811 515 924 425 886 b 239 543 276 738 239 647 b 350 274 239 439 276 349 b 619 163 425 200 515 163 b 731 203 656 163 693 176 l 731 236 b 619 188 701 204 665 188 b 368 292 521 188 438 222 b 264 543 299 361 264 444 b 368 794 264 642 299 726 b 619 899 438 864 521 899 b 838 825 699 899 772 874 l 821 803 b 619 874 765 850 699 874 b 386 776 529 874 451 842 b 289 543 321 711 289 633 b 386 310 289 453 321 375 b 619 213 451 244 529 213 b 731 274 665 213 703 233 z m 806 531 l 806 0 l 781 0 l 781 531 z m 856 531 l 856 0 l 831 0 l 831 531 z m 906 531 l 906 0 l 881 0 l 881 531 z m 956 531 l 956 0 l 931 0 l 931 531 z "},"h":{"ha":965,"x_min":0,"x_max":0,"o":"m 963 1086 l 963 0 l 938 0 l 938 1086 z m 914 1086 l 914 0 l 889 0 l 889 1086 z m 864 1086 l 864 0 l 839 0 l 839 1086 z m 814 1086 l 814 0 l 789 0 l 789 1086 z m 113 1086 l 113 0 l 88 0 l 88 1086 z m 263 1086 l 263 0 l 238 0 l 238 1086 z m 213 1086 l 213 0 l 188 0 l 188 1086 z m 163 1086 l 163 0 l 138 0 l 138 1086 z m 313 507 l 739 507 l 739 532 l 313 532 z m 313 457 l 739 457 l 739 482 l 313 482 z m 739 657 l 739 1086 l 764 1086 l 764 0 l 739 0 l 739 432 l 313 432 l 313 0 l 288 0 l 288 1086 l 313 1086 l 313 657 z m 313 607 l 739 607 l 739 632 l 313 632 z m 739 557 l 739 582 l 313 582 l 313 557 z "},"i":{"ha":313,"x_min":0,"x_max":0,"o":"m 163 1086 l 163 0 l 138 0 l 138 1086 z m 213 1086 l 213 0 l 188 0 l 188 1086 z m 263 1086 l 263 0 l 238 0 l 238 1086 z m 313 1086 l 313 0 l 288 0 l 288 1086 z m 113 1086 l 113 0 l 88 0 l 88 1086 z "},"j":{"ha":558,"x_min":0,"x_max":0,"o":"m 408 276 b 281 150 408 206 351 150 l 88 150 l 88 175 l 281 175 b 383 276 336 175 383 221 l 383 1086 l 408 1086 z m 508 276 b 442 117 508 214 486 161 b 281 50 397 72 343 50 l 88 50 l 88 75 l 281 75 b 424 133 336 75 383 94 b 483 276 464 174 483 221 l 483 1086 l 508 1086 z m 333 276 l 333 1086 l 358 1086 l 358 276 b 281 200 358 233 324 200 l 88 200 l 88 225 l 281 225 b 333 276 308 225 333 249 z m 533 276 l 533 1086 l 558 1086 l 558 276 b 476 81 558 200 531 135 b 281 0 422 26 357 0 l 88 0 l 88 25 l 281 25 b 458 99 350 25 410 50 b 533 276 508 147 533 207 z m 433 276 l 433 1086 l 458 1086 l 458 276 b 406 151 458 228 440 186 b 281 100 371 117 329 100 l 88 100 l 88 125 l 281 125 b 433 276 364 125 433 193 z "},"k":{"ha":969,"x_min":0,"x_max":0,"o":"m 422 700 l 703 1086 l 735 1086 l 456 700 l 471 679 l 765 1086 l 796 1086 l 486 660 l 503 639 l 826 1086 l 857 1086 l 518 618 l 533 596 l 890 1086 l 919 1086 l 549 576 l 564 556 l 950 1086 l 981 1086 l 581 535 l 982 0 l 953 0 z m 313 0 l 288 0 l 288 1086 l 313 1086 l 313 557 l 732 0 l 701 0 l 313 515 z m 346 594 l 794 0 l 764 0 l 332 574 z m 378 639 l 857 0 l 826 0 l 361 617 z m 408 679 l 919 0 l 889 0 l 392 658 z m 163 1086 l 163 0 l 138 0 l 138 1086 z m 213 1086 l 213 0 l 188 0 l 188 1086 z m 263 1086 l 263 0 l 238 0 l 238 1086 z m 113 1086 l 113 0 l 88 0 l 88 1086 z "},"l":{"ha":744,"x_min":0,"x_max":0,"o":"m 113 1086 l 113 0 l 88 0 l 88 1086 z m 263 1086 l 263 0 l 238 0 l 238 1086 z m 213 1086 l 213 0 l 188 0 l 188 1086 z m 163 1086 l 163 0 l 138 0 l 138 1086 z m 313 225 l 756 225 l 756 200 l 313 200 l 313 175 l 756 175 l 756 150 l 313 150 l 313 125 l 756 125 l 756 100 l 313 100 l 313 75 l 756 75 l 756 50 l 313 50 l 313 25 l 756 25 l 756 0 l 288 0 l 288 1086 l 313 1086 z "},"m":{"ha":1575,"x_min":0,"x_max":0,"o":"m 928 0 l 1242 724 l 1235 768 l 903 0 l 875 0 l 1228 813 l 1219 860 l 849 0 l 819 0 l 1211 908 l 1204 950 l 790 0 l 764 0 l 1197 999 l 1189 1043 l 738 0 l 710 0 l 413 700 l 294 0 l 271 0 l 393 743 l 376 788 l 243 0 l 221 0 l 358 826 l 340 871 l 194 0 l 169 0 l 322 915 l 304 958 l 143 0 l 119 0 l 286 999 l 267 1043 l 93 0 l 68 0 l 250 1086 l 276 1086 l 724 29 l 738 58 l 303 1086 l 329 1086 l 750 92 l 764 122 l 358 1086 l 388 1086 l 778 156 l 793 189 l 411 1086 l 439 1086 l 806 221 l 819 251 l 465 1086 l 492 1086 l 832 282 l 1182 1086 l 1207 1086 l 1389 0 l 1364 0 l 1250 678 l 956 0 z m 1258 1086 l 1439 0 l 1415 0 l 1233 1086 z m 1308 1086 l 1490 0 l 1465 0 l 1283 1086 z m 1358 1086 l 1540 0 l 1515 0 l 1335 1086 z m 1410 1086 l 1592 0 l 1567 0 l 1385 1086 z "},"n":{"ha":975,"x_min":0,"x_max":0,"o":"m 290 1086 l 915 0 l 886 0 l 261 1086 z m 233 1086 l 858 0 l 828 0 l 204 1086 z m 175 1086 l 800 0 l 771 0 l 147 1086 z m 824 260 l 849 217 l 849 1086 l 874 1086 l 874 174 l 899 131 l 899 1086 l 924 1086 l 924 86 l 949 44 l 949 1086 l 974 1086 l 974 0 l 943 0 l 318 1086 l 346 1086 l 749 389 l 749 1086 l 774 1086 l 774 346 l 799 304 l 799 1086 l 824 1086 z m 138 1000 l 113 1044 l 113 0 l 88 0 l 88 1086 l 114 1086 l 743 0 l 713 0 l 313 696 l 313 0 l 288 0 l 288 739 l 263 782 l 263 0 l 238 0 l 238 825 l 213 869 l 213 0 l 188 0 l 188 914 l 163 957 l 163 0 l 138 0 z "},"o":{"ha":1154,"x_min":0,"x_max":0,"o":"m 619 -11 b 226 150 465 -11 335 43 b 65 543 119 258 65 389 b 226 936 65 697 119 828 b 619 1099 335 1044 465 1099 b 1013 936 774 1099 904 1044 b 1175 543 1121 828 1175 697 b 1013 150 1175 389 1121 258 b 619 -11 904 43 774 -11 z m 89 543 b 244 169 89 397 140 274 b 619 14 349 65 474 14 b 994 169 765 14 890 65 b 1150 543 1099 274 1150 397 b 994 918 1150 689 1099 814 b 619 1074 890 1022 765 1074 b 244 918 474 1074 349 1022 b 89 543 140 814 89 689 z m 619 38 b 261 185 479 38 360 86 b 114 543 163 283 114 403 b 261 900 114 683 163 801 b 619 1049 360 999 479 1049 b 976 900 760 1049 878 999 b 1125 543 1075 801 1125 683 b 976 185 1125 403 1075 283 b 619 38 878 86 760 38 z m 139 543 b 279 203 139 411 186 297 b 619 63 374 110 488 63 b 958 203 751 63 865 110 b 1100 543 1053 297 1100 411 b 958 882 1100 675 1053 789 b 619 1024 865 976 751 1024 b 279 882 488 1024 374 976 b 139 543 186 789 139 675 z m 619 88 b 297 221 493 88 386 132 b 164 543 208 310 164 417 b 297 865 164 669 208 776 b 619 999 386 954 493 999 b 942 865 746 999 853 954 b 1075 543 1031 776 1075 669 b 942 221 1075 417 1031 310 b 619 88 853 132 746 88 z m 189 543 b 315 239 189 425 231 324 b 619 113 400 154 501 113 b 924 239 738 113 839 154 b 1050 543 1008 324 1050 425 b 924 847 1050 661 1008 763 b 619 974 839 932 738 974 b 315 847 501 974 400 932 b 189 543 231 763 189 661 z m 619 138 b 332 256 507 138 411 176 b 214 543 253 335 214 431 b 332 829 214 656 253 750 b 619 949 411 908 507 949 b 906 829 732 949 826 908 b 1025 543 985 750 1025 656 b 906 256 1025 431 985 335 b 619 138 826 176 732 138 z m 239 543 b 350 274 239 439 276 349 b 619 163 425 200 515 163 b 888 274 724 163 814 200 b 1000 543 963 349 1000 439 b 888 811 1000 647 963 738 b 619 924 814 886 724 924 b 350 811 515 924 425 886 b 239 543 276 738 239 647 z m 619 188 b 368 292 521 188 438 222 b 264 543 299 361 264 444 b 368 794 264 642 299 726 b 619 899 438 864 521 899 b 871 794 718 899 803 864 b 975 543 940 726 975 642 b 871 292 975 444 940 361 b 619 188 803 222 718 188 z m 289 543 b 386 310 289 453 321 375 b 619 213 451 244 529 213 b 853 310 710 213 788 244 b 950 543 918 375 950 453 b 853 776 950 633 918 711 b 619 874 788 842 710 874 b 386 776 529 874 451 842 b 289 543 321 711 289 633 z "},"p":{"ha":728,"x_min":0,"x_max":0,"o":"m 163 1086 l 163 0 l 138 0 l 138 1086 z m 213 1086 l 213 0 l 188 0 l 188 1086 z m 263 1086 l 263 0 l 238 0 l 238 1086 z m 113 1086 l 113 0 l 88 0 l 88 1086 z m 313 1061 l 313 1036 l 408 1036 b 613 950 488 1036 556 1007 b 699 746 669 893 699 825 b 613 540 699 667 669 597 b 408 456 556 483 488 456 l 313 456 l 313 431 l 408 431 b 632 522 496 431 571 461 b 724 746 693 585 724 658 b 632 969 724 833 693 908 b 408 1061 571 1031 496 1061 z m 313 1011 l 313 986 l 408 986 b 578 915 475 986 532 963 b 649 746 625 868 649 811 b 578 576 649 681 625 624 b 408 506 531 529 474 506 l 313 506 l 313 481 l 408 481 b 596 558 482 481 544 507 b 674 746 647 610 674 672 b 596 933 674 819 647 882 b 408 1011 544 985 482 1011 z m 313 961 l 313 936 l 408 936 b 543 879 461 936 506 917 b 599 746 581 842 599 797 b 542 611 599 694 579 649 b 408 556 504 574 460 556 l 313 556 l 313 531 l 408 531 b 560 593 468 531 518 551 b 624 746 603 636 624 686 b 560 897 624 806 603 856 b 408 961 518 940 468 961 z m 313 911 l 313 886 l 408 886 b 549 746 486 886 549 824 b 408 606 549 668 486 606 l 313 606 l 313 581 l 408 581 b 525 629 454 581 493 597 b 574 746 557 661 574 700 b 525 863 574 792 557 831 b 408 911 493 894 454 911 z m 313 863 l 313 629 l 408 629 b 524 746 471 629 524 683 b 408 863 524 808 471 863 z m 408 1086 b 649 986 501 1086 582 1053 b 749 746 715 919 749 839 b 649 506 749 653 715 572 b 408 406 582 439 501 406 l 313 406 l 313 0 l 288 0 l 288 1086 z "},"q":{"ha":1154,"x_min":0,"x_max":0,"o":"m 900 67 b 619 -11 825 15 732 -11 b 226 150 465 -11 335 43 b 65 543 119 258 65 389 b 226 936 65 697 119 828 b 619 1099 335 1044 465 1099 b 1013 936 774 1099 904 1044 b 1175 543 1121 828 1175 697 b 1067 214 1175 428 1139 318 l 1139 129 l 1121 113 l 901 372 b 950 543 933 424 950 481 b 853 776 950 633 918 711 b 619 874 788 842 710 874 b 386 776 529 874 451 842 b 289 543 321 711 289 633 b 386 310 289 453 321 375 b 619 213 451 244 529 213 b 775 253 682 213 733 226 l 986 1 l 968 -15 z m 769 221 b 619 188 715 199 665 188 b 368 292 521 188 438 222 b 264 543 299 361 264 444 b 368 794 264 642 299 726 b 619 899 438 864 521 899 b 871 794 718 899 803 864 b 975 543 940 726 975 642 b 932 375 975 482 961 426 l 950 356 b 1000 543 983 415 1000 478 b 888 811 1000 647 963 738 b 619 924 814 886 724 924 b 350 811 515 924 425 886 b 239 543 276 738 239 647 b 350 274 239 439 276 349 b 619 163 425 200 515 163 b 786 203 685 163 740 176 z m 801 182 b 619 138 744 153 685 138 b 332 256 507 138 411 176 b 214 543 253 335 214 431 b 332 829 214 656 253 750 b 619 949 411 908 507 949 b 906 829 732 949 826 908 b 1025 543 985 750 1025 656 b 967 335 1025 469 1006 400 l 983 314 b 1050 543 1028 379 1050 456 b 924 847 1050 661 1008 763 b 619 974 839 932 738 974 b 315 847 501 974 400 932 b 189 543 231 763 189 661 b 315 239 189 425 231 324 b 619 113 400 154 501 113 b 819 163 696 113 763 129 z m 835 143 b 619 88 767 106 696 88 b 297 221 493 88 386 132 b 164 543 208 310 164 417 b 297 865 164 669 208 776 b 619 999 386 954 493 999 b 942 865 746 999 853 954 b 1075 543 1031 776 1075 669 b 1000 294 1075 449 1050 365 l 1018 275 b 1100 543 1072 350 1100 439 b 958 882 1100 675 1053 789 b 619 1024 865 976 751 1024 b 279 882 488 1024 374 976 b 139 543 186 789 139 675 b 279 203 139 411 186 297 b 619 63 374 110 488 63 b 853 124 703 63 781 83 z m 869 104 b 619 38 788 60 704 38 b 261 185 479 38 360 86 b 114 543 163 283 114 403 b 261 900 114 683 163 801 b 619 1049 360 999 479 1049 b 976 900 760 1049 878 999 b 1125 543 1075 801 1125 683 b 1033 256 1125 433 1094 338 l 1050 235 b 1150 543 1117 328 1150 431 b 994 918 1150 689 1099 814 b 619 1074 890 1022 765 1074 b 244 918 474 1074 349 1022 b 89 543 140 814 89 689 b 244 169 89 397 140 274 b 619 14 349 65 474 14 b 883 83 718 14 807 38 z m 818 279 l 1025 32 l 1006 17 l 797 265 z m 854 313 l 1063 65 l 1044 49 l 838 293 b 854 313 843 299 849 306 z m 889 351 l 1101 97 l 1082 81 l 872 331 b 889 351 876 336 882 343 z "},"r":{"ha":751,"x_min":0,"x_max":0,"o":"m 376 597 l 618 0 l 592 0 l 351 593 b 376 597 358 594 367 596 z m 426 613 l 672 0 l 644 0 l 401 603 b 426 613 408 606 417 608 z m 469 633 l 726 0 l 699 0 l 447 622 b 469 633 457 624 464 628 z m 599 449 l 779 0 l 753 0 l 492 644 b 547 746 529 675 547 708 b 432 863 547 808 494 863 l 313 863 l 313 592 l 326 592 l 564 0 l 538 0 l 313 557 l 313 0 l 288 0 l 288 1086 l 432 1086 b 672 986 525 1086 606 1053 b 772 746 739 919 772 839 b 701 539 772 669 749 600 b 599 449 669 496 635 467 z m 589 471 b 747 746 694 533 747 625 b 656 969 747 833 717 908 b 432 1061 594 1031 519 1061 l 313 1061 l 313 1036 l 432 1036 b 636 950 511 1036 579 1007 b 722 746 693 893 722 825 b 581 496 722 636 675 553 z m 569 518 b 697 746 654 575 697 650 b 618 933 697 819 671 882 b 432 1011 567 985 504 1011 l 313 1011 l 313 986 l 432 986 b 601 915 499 986 556 963 b 672 746 649 868 672 811 b 561 543 672 658 635 592 z m 550 565 b 647 746 615 610 647 669 b 583 897 647 806 626 856 b 432 961 542 940 492 961 l 313 961 l 313 936 l 432 936 b 567 879 485 936 529 917 b 622 746 604 842 622 797 b 542 590 622 681 596 629 z m 532 614 b 597 746 575 647 597 692 b 549 863 597 792 581 831 b 432 911 517 894 478 911 l 313 911 l 313 886 l 432 886 b 572 746 510 886 572 824 b 522 639 572 697 556 661 z m 163 1086 l 163 0 l 138 0 l 138 1086 z m 213 1086 l 213 0 l 188 0 l 188 1086 z m 263 1086 l 263 0 l 238 0 l 238 1086 z m 113 1086 l 113 0 l 88 0 l 88 1086 z "},"s":{"ha":679,"x_min":0,"x_max":0,"o":"m 668 883 b 389 1074 622 996 513 1074 b 178 985 307 1074 238 1044 b 89 774 118 926 89 856 b 167 572 89 696 115 629 b 361 478 219 517 285 485 b 500 332 443 471 500 410 b 357 188 500 253 436 188 b 228 271 297 188 254 215 l 249 283 b 357 213 268 236 304 213 b 475 332 422 213 475 267 b 361 453 475 394 424 447 b 151 554 279 460 208 493 b 65 774 94 617 65 689 b 160 1003 65 864 97 940 b 389 1099 222 1067 299 1099 b 689 897 522 1099 639 1015 z m 581 833 b 389 974 554 917 478 974 b 247 914 335 974 288 954 b 189 774 208 875 189 828 b 242 639 189 722 207 676 b 371 575 276 601 319 579 b 535 497 438 569 492 543 b 600 332 578 451 600 397 b 528 160 600 265 576 208 b 357 88 481 111 424 88 b 144 213 267 88 185 136 l 165 226 b 357 113 207 150 271 113 b 511 176 417 113 468 133 b 575 332 554 219 575 272 b 514 481 575 389 554 439 b 369 551 474 524 426 547 b 225 622 313 556 265 579 b 165 774 185 665 165 715 b 231 932 165 836 188 889 b 389 999 274 976 326 999 b 600 846 485 999 568 935 z m 488 779 b 389 874 483 831 440 874 b 290 774 335 874 290 828 b 383 674 290 719 332 678 b 604 569 469 667 543 632 b 700 332 668 503 700 424 b 599 89 700 238 667 157 b 357 -11 532 22 451 -11 b 61 156 235 -11 124 54 l 83 169 b 357 14 144 65 236 14 b 582 107 444 14 519 44 b 675 332 644 169 675 244 b 589 550 675 418 646 490 b 381 650 532 610 463 643 b 264 774 313 656 264 707 b 389 899 264 844 321 899 b 513 794 450 899 503 851 z m 535 807 b 389 924 522 874 460 924 b 283 879 349 924 313 908 b 239 774 254 850 239 814 b 378 625 239 696 299 632 b 569 532 453 618 517 588 b 650 332 624 478 650 411 b 564 124 650 251 621 182 b 357 38 507 67 438 38 b 103 183 249 38 164 86 l 124 199 b 357 63 169 117 258 63 b 546 142 431 63 494 89 b 625 332 599 194 625 258 b 554 514 625 403 601 464 b 375 600 507 565 447 593 b 261 657 331 604 293 624 b 215 774 231 690 215 729 b 265 897 215 822 232 863 b 389 949 300 932 340 949 b 557 819 468 949 536 896 z m 624 857 b 389 1024 590 956 494 1024 b 213 950 321 1024 261 999 b 139 774 164 901 139 842 b 204 606 139 708 161 653 b 365 526 249 558 303 532 b 496 464 417 522 461 501 b 550 332 532 428 550 383 b 493 194 550 278 531 232 b 357 138 456 157 411 138 b 186 240 278 138 221 172 l 207 256 b 357 163 239 193 289 163 b 475 213 403 163 443 179 b 525 332 508 246 525 286 b 478 447 525 376 510 415 b 364 503 447 481 410 499 b 188 589 294 508 236 538 b 117 774 140 640 117 703 b 196 968 117 850 143 914 b 389 1049 249 1022 313 1049 b 644 871 506 1049 606 976 z "},"t":{"ha":738,"x_min":0,"x_max":0,"o":"m 76 1086 l 740 1086 l 740 1061 l 76 1061 z m 76 1036 l 740 1036 l 740 1011 l 76 1011 z m 76 986 l 740 986 l 740 961 l 76 961 z m 76 936 l 740 936 l 740 911 l 76 911 z m 346 863 l 322 863 l 322 0 l 297 0 l 297 863 l 76 863 l 76 886 l 740 886 l 740 863 l 521 863 l 521 0 l 496 0 l 496 863 l 471 863 l 471 0 l 446 0 l 446 863 l 421 863 l 421 0 l 396 0 l 396 863 l 371 863 l 371 0 l 346 0 z "},"u":{"ha":890,"x_min":0,"x_max":0,"o":"m 890 389 b 772 106 890 279 851 185 b 489 -11 694 28 600 -11 b 204 106 378 -11 283 28 b 88 389 126 185 88 279 l 88 1086 l 113 1086 l 113 389 b 222 124 113 285 149 197 b 489 14 296 50 385 14 b 754 124 593 14 681 50 b 865 389 828 197 865 285 l 865 1086 l 890 1086 z m 840 389 b 738 140 840 293 806 210 b 489 38 669 72 586 38 b 240 140 392 38 308 72 b 138 389 172 210 138 293 l 138 1086 l 163 1086 l 163 389 b 258 158 163 299 194 222 b 489 63 322 94 399 63 b 719 158 579 63 657 94 b 815 389 783 222 815 299 l 815 1086 l 840 1086 z m 790 389 b 701 176 790 307 761 236 b 489 88 642 117 571 88 b 276 176 407 88 336 117 b 188 389 217 236 188 307 l 188 1086 l 213 1086 l 213 389 b 293 193 213 313 239 247 b 489 113 347 139 413 113 b 683 193 565 113 629 139 b 765 389 738 247 765 313 l 765 1086 l 790 1086 z m 740 389 b 665 211 740 321 715 261 b 489 138 617 163 557 138 b 311 211 421 138 361 163 b 238 389 263 261 238 321 l 238 1086 l 263 1086 l 263 389 b 329 229 263 326 285 274 b 489 163 374 185 426 163 b 649 229 551 163 606 185 b 715 389 693 274 715 326 l 715 1086 l 740 1086 z m 690 389 b 631 246 690 333 671 286 b 489 188 592 207 544 188 b 346 246 433 188 386 207 b 288 389 307 286 288 333 l 288 1086 l 313 1086 l 313 389 b 364 264 313 340 329 299 b 489 213 399 229 440 213 b 614 264 538 213 579 229 b 665 389 649 299 665 340 l 665 1086 l 690 1086 z "},"v":{"ha":1067,"x_min":0,"x_max":0,"o":"m 610 217 l 622 182 l 950 1086 l 976 1086 l 636 146 l 649 108 l 1003 1086 l 1029 1086 l 663 71 l 675 35 l 1057 1086 l 1083 1086 l 689 0 l 663 0 l 271 1086 l 297 1086 l 569 329 l 843 1086 l 871 1086 l 583 290 l 596 256 l 896 1086 l 922 1086 z m 138 1086 l 531 0 l 504 0 l 111 1086 z m 190 1086 l 585 0 l 558 0 l 163 1086 z m 243 1086 l 638 0 l 610 0 l 217 1086 z m 85 1086 l 478 0 l 451 0 l 58 1086 z "},"w":{"ha":1654,"x_min":0,"x_max":0,"o":"m 242 1086 l 551 0 l 526 0 l 214 1086 z m 763 1086 l 789 1086 l 511 329 l 522 286 l 815 1086 l 843 1086 l 535 247 l 546 207 l 869 1086 l 896 1086 l 558 165 l 569 125 l 921 1086 l 949 1086 l 582 82 l 593 42 l 975 1086 l 1001 1086 l 1243 376 l 1444 1086 l 1471 1086 l 1258 333 l 1272 290 l 1496 1086 l 1522 1086 l 1288 250 l 1301 208 l 1549 1086 l 1574 1086 l 1315 168 l 1329 126 l 1600 1086 l 1626 1086 l 1343 82 l 1358 42 l 1653 1086 l 1678 1086 l 1372 0 l 1346 0 l 988 1047 l 975 1011 l 1318 0 l 1292 0 l 960 971 l 947 933 l 1267 0 l 1240 0 l 933 899 l 919 863 l 1214 0 l 1186 0 l 906 822 l 893 786 l 1160 0 l 1133 0 l 878 749 l 606 0 l 581 0 l 267 1086 l 293 1086 l 499 369 z m 189 1086 l 503 0 l 475 0 l 164 1086 z m 138 1086 l 449 0 l 422 0 l 111 1086 z m 85 1086 l 397 0 l 371 0 l 60 1086 z "},"x":{"ha":928,"x_min":0,"x_max":0,"o":"m 550 693 l 565 668 l 801 1086 l 831 1086 l 581 643 l 593 617 l 858 1086 l 886 1086 l 608 592 l 622 565 l 917 1086 l 946 1086 l 638 542 l 943 0 l 914 0 l 299 1086 l 329 1086 l 508 769 l 688 1086 l 717 1086 l 522 744 l 536 718 l 744 1086 l 774 1086 z m 464 389 l 451 414 l 215 0 l 186 0 l 436 439 l 421 464 l 157 0 l 129 0 l 407 490 l 393 515 l 101 0 l 72 0 l 379 542 l 69 1086 l 99 1086 l 713 0 l 686 0 l 507 314 l 329 0 l 303 0 l 493 338 l 479 364 l 274 0 l 243 0 z m 156 1086 l 771 0 l 742 0 l 128 1086 z m 213 1086 l 828 0 l 799 0 l 183 1086 z m 271 1086 l 885 0 l 857 0 l 240 1086 z "},"y":{"ha":958,"x_min":0,"x_max":0,"o":"m 613 390 l 278 1086 l 304 1086 l 525 625 l 746 1086 l 772 1086 l 538 597 l 550 572 l 799 1086 l 825 1086 l 563 546 l 575 519 l 850 1086 l 876 1086 l 588 493 l 600 468 l 903 1086 l 929 1086 l 613 442 l 625 417 l 957 1086 l 983 1086 l 638 390 l 638 0 l 613 0 z m 588 0 l 563 0 l 563 390 l 225 1086 l 251 1086 l 588 390 z m 538 0 l 513 0 l 513 390 l 174 1086 l 200 1086 l 538 390 z m 488 0 l 463 0 l 463 390 l 121 1086 l 147 1086 l 488 390 z m 438 0 l 413 0 l 413 390 l 67 1086 l 93 1086 l 438 390 z "},"z":{"ha":858,"x_min":0,"x_max":0,"o":"m 82 1086 l 844 1086 l 832 1061 l 82 1061 z m 82 1036 l 821 1036 l 808 1011 l 82 1011 z m 82 986 l 796 986 l 783 961 l 82 961 z m 82 936 l 772 936 l 760 911 l 82 911 z m 708 863 l 679 863 l 260 0 l 232 0 l 651 863 l 625 863 l 204 0 l 178 0 l 597 863 l 569 863 l 149 0 l 121 0 l 540 863 l 514 863 l 94 0 l 67 0 l 486 863 l 82 863 l 82 886 l 747 886 l 424 225 l 858 225 l 858 200 l 413 200 l 401 175 l 858 175 l 858 150 l 389 150 l 378 125 l 858 125 l 858 100 l 364 100 l 353 75 l 858 75 l 858 50 l 340 50 l 329 25 l 858 25 l 858 0 l 288 0 z "},"{":{"ha":729,"x_min":0,"x_max":0,"o":"m 726 1106 l 726 1033 b 544 957 647 1025 586 1000 b 497 874 518 931 503 903 b 496 776 496 865 496 833 l 496 694 b 486 571 496 638 493 596 b 408 457 474 524 449 486 b 178 381 369 428 293 403 b 417 303 296 363 376 338 b 494 67 468 260 494 181 l 494 -6 b 493 -36 494 -12 494 -24 l 493 -67 b 578 -221 493 -131 521 -182 b 728 -272 618 -249 668 -265 l 728 -340 b 565 -321 672 -340 618 -333 b 403 -239 492 -303 438 -276 b 343 -129 371 -207 351 -169 b 338 -8 339 -108 338 -68 l 338 74 b 333 186 338 135 336 172 b 254 293 324 231 297 267 b 88 340 225 311 169 328 l 88 422 b 285 496 186 439 253 464 b 338 693 319 532 338 597 l 338 768 b 351 914 338 836 342 885 b 458 1044 368 969 404 1013 b 726 1106 521 1081 610 1101 z "},"|":{"ha":200,"x_min":0,"x_max":0,"o":"m 199 -107 l 88 -107 l 88 1186 l 199 1186 z "},"}":{"ha":729,"x_min":0,"x_max":0,"o":"m 88 1106 b 240 1085 135 1104 186 1097 b 468 896 397 1046 451 978 b 475 768 472 874 475 831 l 475 678 b 554 475 475 582 501 514 b 728 418 586 451 643 433 l 728 336 b 542 276 638 326 576 306 b 479 92 500 240 479 179 l 479 -6 b 460 -168 479 -81 472 -135 b 339 -292 442 -219 401 -260 b 88 -343 288 -318 203 -335 l 88 -272 b 272 -193 178 -262 239 -236 b 315 -7 301 -156 315 -94 l 315 65 b 401 306 315 182 344 263 b 633 379 447 340 524 364 b 392 463 513 400 432 428 b 315 703 340 507 315 588 l 315 781 b 307 900 315 842 313 882 b 208 1003 294 942 261 976 b 88 1035 178 1018 138 1029 z "},"~":{"ha":649,"x_min":0,"x_max":0,"o":"m 228 1306 b 88 1282 176 1306 129 1297 l 88 1308 b 228 1331 139 1324 186 1331 b 369 1306 276 1331 324 1322 b 510 1282 417 1290 464 1282 b 651 1306 563 1282 610 1290 l 651 1279 b 510 1257 606 1264 558 1257 b 369 1281 464 1257 417 1265 b 228 1306 322 1297 275 1306 z m 228 1256 b 88 1229 182 1256 135 1247 l 88 1256 b 228 1281 136 1272 182 1281 b 369 1256 275 1281 322 1272 b 510 1232 417 1240 464 1232 b 651 1253 553 1232 600 1239 l 651 1228 b 510 1207 608 1214 561 1207 b 369 1231 464 1207 417 1215 b 228 1256 324 1247 276 1256 z m 510 1182 b 651 1201 569 1182 617 1189 l 651 1176 b 510 1157 617 1164 569 1157 b 369 1181 464 1157 417 1165 b 228 1206 322 1197 275 1206 b 88 1175 183 1206 136 1196 l 88 1203 b 228 1231 136 1221 182 1231 b 369 1206 276 1231 324 1222 b 510 1182 417 1190 464 1182 z "},"":{"ha":329,"x_min":0,"x_max":0,"o":"m 165 244 b 190 106 182 203 190 157 b 165 -37 190 60 182 13 l 138 -37 b 165 106 156 0 165 47 b 139 244 165 157 157 204 z m 219 244 b 240 106 233 197 240 151 b 219 -37 240 63 233 14 l 192 -37 b 215 106 207 6 215 54 b 192 244 215 163 207 210 z m 272 244 b 290 106 285 207 290 160 b 271 -37 290 58 283 11 l 246 -37 b 265 106 258 19 265 68 b 246 244 265 160 258 206 z m 324 244 b 340 106 335 204 340 158 b 322 -37 340 49 335 0 l 297 -37 b 315 106 310 1 315 49 b 297 244 315 163 310 208 z m 113 244 b 140 106 131 203 140 157 b 111 -37 140 49 131 1 l 83 -37 b 117 106 106 8 117 57 b 85 244 117 151 106 199 z "},"":{"ha":661,"x_min":0,"x_max":0,"o":"m 172 244 b 197 106 189 199 197 151 b 172 -37 197 65 189 17 l 144 -37 b 172 106 163 3 172 51 b 146 244 172 153 164 199 z m 225 244 b 247 106 240 194 247 149 b 225 -37 247 65 240 17 l 199 -37 b 222 106 214 11 222 60 b 199 244 222 160 214 206 z m 278 244 b 297 106 290 204 297 157 b 276 -37 297 63 290 14 l 251 -37 b 272 106 265 24 272 71 b 251 244 272 157 265 203 z m 329 244 b 346 106 340 204 346 158 b 328 -37 346 49 340 0 l 303 -37 b 322 106 315 4 322 51 b 303 244 322 160 315 206 z m 119 244 b 147 106 138 199 147 151 b 118 -37 147 54 138 6 l 89 -37 b 122 106 111 8 122 57 b 92 244 122 151 113 197 z m 481 244 b 506 106 497 199 506 151 b 481 -37 506 65 497 17 l 453 -37 b 481 106 471 3 481 51 b 454 244 481 153 472 199 z m 533 244 b 556 106 549 194 556 149 b 533 -37 556 65 549 17 l 507 -37 b 531 106 522 11 531 60 b 507 244 531 160 522 206 z m 586 244 b 606 106 599 204 606 157 b 585 -37 606 63 599 14 l 560 -37 b 581 106 574 24 581 71 b 560 244 581 157 574 203 z m 638 244 b 654 106 649 204 654 158 b 636 -37 654 49 649 0 l 611 -37 b 629 106 624 1 629 49 b 611 244 629 163 624 208 z m 428 244 b 456 106 446 199 456 151 b 426 -37 456 54 446 6 l 397 -37 b 431 106 419 8 431 57 b 400 244 431 151 421 197 z "},"":{"ha":942,"x_min":0,"x_max":0,"o":"m 788 243 l 788 0 l 763 0 l 763 243 z m 838 243 l 838 0 l 813 0 l 813 243 z m 888 243 l 888 0 l 863 0 l 863 243 z m 938 243 l 938 0 l 913 0 l 913 243 z m 738 243 l 738 0 l 713 0 l 713 243 z m 160 243 l 160 0 l 135 0 l 135 243 z m 210 243 l 210 0 l 185 0 l 185 243 z m 260 243 l 260 0 l 235 0 l 235 243 z m 310 243 l 310 0 l 285 0 l 285 243 z m 110 243 l 110 0 l 85 0 l 85 243 z m 474 243 l 474 0 l 449 0 l 449 243 z m 524 243 l 524 0 l 499 0 l 499 243 z m 574 243 l 574 0 l 549 0 l 549 243 z m 624 243 l 624 0 l 599 0 l 599 243 z m 424 243 l 424 0 l 399 0 l 399 243 z "},"":{"ha":636,"x_min":0,"x_max":0,"o":"m 301 1353 l 107 1158 l 72 1158 l 265 1353 z m 371 1353 l 179 1158 l 144 1158 l 336 1353 z m 389 1300 l 371 1282 l 493 1158 l 458 1158 l 354 1264 l 250 1158 l 214 1158 l 407 1353 l 442 1353 l 636 1158 l 600 1158 l 424 1335 l 407 1317 l 564 1158 l 529 1158 z "},"":{"ha":2204,"x_min":0,"x_max":0,"o":"m 396 1099 b 632 1000 489 1099 567 1065 b 729 765 697 935 729 857 b 632 529 729 674 697 594 b 396 432 567 464 489 432 b 160 529 304 432 225 464 b 63 765 94 594 63 674 b 160 1000 63 857 94 935 b 396 1099 225 1065 304 1099 z m 88 765 b 178 547 88 681 118 607 b 396 457 238 488 311 457 b 614 547 481 457 554 488 b 704 765 674 607 704 681 b 614 983 704 850 674 924 b 396 1074 554 1043 481 1074 b 178 983 311 1074 239 1043 b 88 765 118 924 88 850 z m 396 482 b 194 564 317 482 250 510 b 113 765 140 619 113 686 b 194 965 113 844 140 911 b 396 1049 250 1021 317 1049 b 596 965 475 1049 542 1021 b 679 765 651 911 679 844 b 596 564 679 686 651 619 b 396 482 542 510 475 482 z m 138 765 b 213 582 138 694 163 633 b 396 507 264 532 325 507 b 578 582 467 507 528 532 b 654 765 629 633 654 694 b 578 947 654 836 629 897 b 396 1024 528 999 467 1024 b 214 947 325 1024 265 999 b 138 765 163 897 138 836 z m 396 532 b 231 600 331 532 276 554 b 163 765 185 646 163 700 b 231 931 163 831 185 885 b 396 999 276 976 331 999 b 561 931 461 999 515 976 b 629 765 607 885 629 831 b 561 600 629 700 607 646 b 396 532 515 554 461 532 z m 188 765 b 249 618 188 708 208 658 b 396 557 289 578 339 557 b 543 618 453 557 503 578 b 606 765 585 658 606 708 b 543 913 606 822 585 872 b 396 974 503 953 453 974 b 249 913 339 974 290 953 b 188 765 208 872 188 822 z m 396 582 b 265 635 344 582 301 600 b 213 765 231 671 213 714 b 265 894 213 817 231 860 b 396 949 301 931 344 949 b 526 894 447 949 490 931 b 581 765 563 860 581 817 b 526 635 581 714 563 671 b 396 582 490 600 447 582 z m 238 765 b 283 653 238 721 253 683 b 396 607 315 622 353 607 b 556 765 485 607 556 676 b 508 876 556 808 540 846 b 396 924 478 908 440 924 b 283 876 353 924 315 908 b 238 765 253 846 238 808 z m 1176 654 b 1411 557 1268 654 1346 622 b 1510 322 1476 492 1510 414 b 1411 86 1510 229 1476 151 b 1176 -11 1346 21 1268 -11 b 940 86 1085 -11 1006 21 b 843 322 875 151 843 229 b 940 557 843 414 875 492 b 1176 654 1006 622 1085 654 z m 868 322 b 958 104 868 238 899 164 b 1176 14 1018 44 1092 14 b 1394 104 1261 14 1335 44 b 1485 322 1454 164 1485 238 b 1394 539 1485 407 1454 479 b 1176 629 1335 599 1261 629 b 958 539 1092 629 1018 599 b 868 322 899 479 868 407 z m 1176 38 b 975 121 1097 38 1031 65 b 893 322 921 176 893 243 b 975 522 893 401 921 468 b 1176 606 1031 578 1097 606 b 1376 522 1256 606 1322 578 b 1460 322 1432 468 1460 401 b 1376 121 1460 243 1432 176 b 1176 38 1322 65 1256 38 z m 918 322 b 993 139 918 251 943 190 b 1176 63 1044 88 1106 63 b 1358 139 1247 63 1308 88 b 1435 322 1410 190 1435 251 b 1358 504 1435 393 1410 454 b 1176 581 1308 556 1247 581 b 993 504 1106 581 1044 556 b 918 322 943 454 918 393 z m 1176 88 b 1011 156 1111 88 1057 110 b 943 322 965 201 943 257 b 1011 488 943 388 965 442 b 1176 556 1057 533 1111 556 b 1342 488 1242 556 1296 533 b 1410 322 1388 442 1410 388 b 1342 156 1410 257 1388 201 b 1176 88 1296 110 1242 88 z m 968 322 b 1029 174 968 265 989 215 b 1176 113 1069 133 1119 113 b 1324 174 1233 113 1283 133 b 1385 322 1364 215 1385 265 b 1324 469 1385 379 1364 429 b 1176 531 1283 510 1233 531 b 1029 469 1119 531 1069 510 b 968 322 989 429 968 379 z m 1176 138 b 1046 192 1125 138 1082 156 b 993 322 1011 228 993 271 b 1046 451 993 372 1011 415 b 1176 506 1082 488 1125 506 b 1306 451 1228 506 1271 488 b 1360 322 1342 415 1360 372 b 1306 192 1360 271 1342 228 b 1176 138 1271 156 1228 138 z m 1018 322 b 1176 163 1018 233 1088 163 b 1288 208 1219 163 1257 178 b 1335 322 1319 240 1335 278 b 1288 433 1335 365 1319 403 b 1176 481 1257 465 1219 481 b 1064 433 1132 481 1094 465 b 1018 322 1033 403 1018 365 z m 949 1089 l 522 -81 l 496 -81 l 922 1089 z m 1054 1089 l 628 -81 l 601 -81 l 1028 1089 z m 1001 1089 l 575 -81 l 549 -81 l 975 1089 z m 1890 653 b 2125 556 1982 653 2060 621 b 2224 321 2190 490 2224 413 b 2125 85 2224 228 2190 150 b 1890 -12 2060 19 1982 -12 b 1654 85 1799 -12 1719 19 b 1557 321 1589 150 1557 228 b 1654 556 1557 413 1589 490 b 1890 653 1719 621 1799 653 z m 1582 321 b 1672 103 1582 236 1613 163 b 1890 13 1732 43 1806 13 b 2108 103 1975 13 2049 43 b 2199 321 2168 163 2199 236 b 2108 538 2199 406 2168 478 b 1890 628 2049 597 1975 628 b 1672 538 1806 628 1732 597 b 1582 321 1613 478 1582 406 z m 1890 36 b 1689 119 1811 36 1744 64 b 1607 321 1635 175 1607 242 b 1689 521 1607 400 1635 467 b 1890 604 1744 576 1811 604 b 2090 521 1969 604 2036 576 b 2174 321 2146 467 2174 400 b 2090 119 2174 242 2146 175 b 1890 36 2036 64 1969 36 z m 1632 321 b 1707 138 1632 250 1657 189 b 1890 61 1758 86 1819 61 b 2072 138 1961 61 2022 86 b 2149 321 2124 189 2149 250 b 2072 503 2149 392 2124 453 b 1890 579 2022 554 1961 579 b 1707 503 1819 579 1758 554 b 1632 321 1657 453 1632 392 z m 1890 86 b 1725 154 1825 86 1771 108 b 1657 321 1679 200 1657 256 b 1725 486 1657 386 1679 440 b 1890 554 1771 532 1825 554 b 2056 486 1956 554 2010 532 b 2124 321 2101 440 2124 386 b 2056 154 2124 256 2101 200 b 1890 86 2010 108 1956 86 z m 1682 321 b 1743 172 1682 264 1703 214 b 1890 111 1783 132 1833 111 b 2038 172 1947 111 1997 132 b 2099 321 2078 214 2099 264 b 2038 468 2099 378 2078 428 b 1890 529 1997 508 1947 529 b 1743 468 1833 529 1783 508 b 1682 321 1703 428 1682 378 z m 1890 136 b 1760 190 1839 136 1796 154 b 1707 321 1725 226 1707 269 b 1760 450 1707 371 1725 414 b 1890 504 1796 486 1839 504 b 2019 450 1942 504 1985 486 b 2074 321 2056 414 2074 371 b 2019 190 2074 269 2056 226 b 1890 136 1985 154 1942 136 z m 1732 321 b 1890 161 1732 232 1801 161 b 2001 207 1933 161 1971 176 b 2049 321 2033 239 2049 276 b 2001 432 2049 364 2033 401 b 1890 479 1971 464 1933 479 b 1778 432 1846 479 1808 464 b 1732 321 1747 401 1732 364 z "},"":{"ha":679,"x_min":0,"x_max":0,"o":"m 668 883 b 389 1074 622 996 513 1074 b 178 985 307 1074 238 1044 b 89 774 118 926 89 856 b 167 572 89 696 115 629 b 361 478 219 517 285 485 b 500 332 443 471 500 410 b 357 188 500 253 436 188 b 228 271 297 188 254 215 l 249 283 b 357 213 268 236 304 213 b 475 332 422 213 475 267 b 361 453 475 394 424 447 b 151 554 279 460 208 493 b 65 774 94 617 65 689 b 160 1003 65 864 97 940 b 389 1099 222 1067 299 1099 b 689 897 522 1099 639 1015 z m 581 833 b 389 974 554 917 478 974 b 247 914 335 974 288 954 b 189 774 208 875 189 828 b 242 639 189 722 207 676 b 371 575 276 601 319 579 b 535 497 438 569 492 543 b 600 332 578 451 600 397 b 528 160 600 265 576 208 b 357 88 481 111 424 88 b 144 213 267 88 185 136 l 165 226 b 357 113 207 150 271 113 b 511 176 417 113 468 133 b 575 332 554 219 575 272 b 514 481 575 389 554 439 b 369 551 474 524 426 547 b 225 622 313 556 265 579 b 165 774 185 665 165 715 b 231 932 165 836 188 889 b 389 999 274 976 326 999 b 600 846 485 999 568 935 z m 488 779 b 389 874 483 831 440 874 b 290 774 335 874 290 828 b 383 674 290 719 332 678 b 604 569 469 667 543 632 b 700 332 668 503 700 424 b 599 89 700 238 667 157 b 357 -11 532 22 451 -11 b 61 156 235 -11 124 54 l 83 169 b 357 14 144 65 236 14 b 582 107 444 14 519 44 b 675 332 644 169 675 244 b 589 550 675 418 646 490 b 381 650 532 610 463 643 b 264 774 313 656 264 707 b 389 899 264 844 321 899 b 513 794 450 899 503 851 z m 535 807 b 389 924 522 874 460 924 b 283 879 349 924 313 908 b 239 774 254 850 239 814 b 378 625 239 696 299 632 b 569 532 453 618 517 588 b 650 332 624 478 650 411 b 564 124 650 251 621 182 b 357 38 507 67 438 38 b 103 183 249 38 164 86 l 124 199 b 357 63 169 117 258 63 b 546 142 431 63 494 89 b 625 332 599 194 625 258 b 554 514 625 403 601 464 b 375 600 507 565 447 593 b 261 657 331 604 293 624 b 215 774 231 690 215 729 b 265 897 215 822 232 863 b 389 949 300 932 340 949 b 557 819 468 949 536 896 z m 624 857 b 389 1024 590 956 494 1024 b 213 950 321 1024 261 999 b 139 774 164 901 139 842 b 204 606 139 708 161 653 b 365 526 249 558 303 532 b 496 464 417 522 461 501 b 550 332 532 428 550 383 b 493 194 550 278 531 232 b 357 138 456 157 411 138 b 186 240 278 138 221 172 l 207 256 b 357 163 239 193 289 163 b 475 213 403 163 443 179 b 525 332 508 246 525 286 b 478 447 525 376 510 415 b 364 503 447 481 410 499 b 188 589 294 508 236 538 b 117 774 140 640 117 703 b 196 968 117 850 143 914 b 389 1049 249 1022 313 1049 b 644 871 506 1049 606 976 z m 460 1158 l 654 1353 l 689 1353 l 496 1158 z m 390 1158 l 582 1353 l 617 1353 l 425 1158 z m 372 1211 l 390 1229 l 268 1353 l 303 1353 l 407 1247 l 511 1353 l 547 1353 l 354 1158 l 319 1158 l 125 1353 l 161 1353 l 336 1176 l 354 1194 l 197 1353 l 232 1353 z "},"":{"ha":1776,"x_min":0,"x_max":0,"o":"m 89 543 b 244 169 89 397 140 274 b 619 14 349 65 474 14 b 994 169 765 14 890 65 b 1150 543 1099 274 1150 397 b 994 918 1150 689 1099 814 b 619 1074 890 1022 765 1074 b 244 918 474 1074 349 1022 b 89 543 140 814 89 689 z m 1176 1100 l 1176 14 l 1151 14 l 1151 382 b 954 100 1117 267 1050 174 b 619 -11 856 26 743 -11 b 226 150 465 -11 335 43 b 65 543 119 258 65 389 b 226 936 65 697 119 828 b 619 1099 335 1044 465 1099 b 954 988 743 1099 856 1061 b 1151 704 1050 914 1117 819 l 1151 1100 z m 619 38 b 261 185 479 38 360 86 b 114 543 163 283 114 403 b 261 900 114 683 163 801 b 619 1049 360 999 479 1049 b 976 900 760 1049 878 999 b 1125 543 1075 801 1125 683 b 976 185 1125 403 1075 283 b 619 38 878 86 760 38 z m 139 543 b 279 203 139 411 186 297 b 619 63 374 110 488 63 b 958 203 751 63 865 110 b 1100 543 1053 297 1100 411 b 958 882 1100 675 1053 789 b 619 1024 865 976 751 1024 b 279 882 488 1024 374 976 b 139 543 186 789 139 675 z m 619 88 b 297 221 493 88 386 132 b 164 543 208 310 164 417 b 297 865 164 669 208 776 b 619 999 386 954 493 999 b 942 865 746 999 853 954 b 1075 543 1031 776 1075 669 b 942 221 1075 417 1031 310 b 619 88 853 132 746 88 z m 189 543 b 315 239 189 425 231 324 b 619 113 400 154 501 113 b 924 239 738 113 839 154 b 1050 543 1008 324 1050 425 b 924 847 1050 661 1008 763 b 619 974 839 932 738 974 b 315 847 501 974 400 932 b 189 543 231 763 189 661 z m 619 138 b 332 256 507 138 411 176 b 214 543 253 335 214 431 b 332 829 214 656 253 750 b 619 949 411 908 507 949 b 906 829 732 949 826 908 b 1025 543 985 750 1025 656 b 906 256 1025 431 985 335 b 619 138 826 176 732 138 z m 239 543 b 350 274 239 439 276 349 b 619 163 425 200 515 163 b 888 274 724 163 814 200 b 1000 543 963 349 1000 439 b 888 811 1000 647 963 738 b 619 924 814 886 724 924 b 350 811 515 924 425 886 b 239 543 276 738 239 647 z m 619 188 b 368 292 521 188 438 222 b 264 543 299 361 264 444 b 368 794 264 642 299 726 b 619 899 438 864 521 899 b 871 794 718 899 803 864 b 975 543 940 726 975 642 b 871 292 975 444 940 361 b 619 188 803 222 718 188 z m 289 543 b 386 310 289 453 321 375 b 619 213 451 244 529 213 b 853 310 710 213 788 244 b 950 543 918 375 950 453 b 853 776 950 633 918 711 b 619 874 788 842 710 874 b 386 776 529 874 451 842 b 289 543 321 711 289 633 z m 1326 1100 l 1326 14 l 1301 14 l 1301 1100 z m 1276 1100 l 1276 14 l 1251 14 l 1251 1100 z m 1226 1100 l 1226 14 l 1201 14 l 1201 1100 z m 1376 496 l 1376 471 l 1678 471 l 1678 446 l 1376 446 l 1376 239 l 1782 239 l 1782 214 l 1376 214 l 1376 189 l 1782 189 l 1782 164 l 1376 164 l 1376 139 l 1782 139 l 1782 114 l 1376 114 l 1376 89 l 1782 89 l 1782 64 l 1376 64 l 1376 39 l 1782 39 l 1782 14 l 1351 14 l 1351 1100 l 1782 1100 l 1782 1075 l 1376 1075 l 1376 1050 l 1782 1050 l 1782 1025 l 1376 1025 l 1376 1000 l 1782 1000 l 1782 975 l 1376 975 l 1376 950 l 1782 950 l 1782 925 l 1376 925 l 1376 900 l 1782 900 l 1782 876 l 1376 876 l 1376 671 l 1678 671 l 1678 646 l 1376 646 l 1376 621 l 1678 621 l 1678 596 l 1376 596 l 1376 571 l 1678 571 l 1678 546 l 1376 546 l 1376 521 l 1678 521 l 1678 496 z "},"":{"ha":329,"x_min":0,"x_max":0,"o":"m 283 1086 b 257 947 265 1040 257 994 b 285 804 257 893 267 844 l 257 804 b 232 947 240 854 232 901 b 257 1086 232 999 240 1044 z m 231 1086 b 207 947 215 1047 207 1001 b 231 804 207 901 215 853 l 204 804 b 182 947 189 858 182 907 b 204 1086 182 996 189 1042 z m 178 1086 b 157 947 164 1044 157 999 b 178 804 157 913 164 865 l 153 804 b 132 947 139 856 132 904 b 151 1086 132 999 139 1046 z m 126 1086 b 107 947 114 1047 107 1001 b 126 804 107 893 114 846 l 101 804 b 82 947 89 844 82 893 b 100 1086 82 996 88 1043 z m 338 1086 b 307 947 317 1043 307 996 b 339 804 307 896 318 849 l 311 804 b 282 947 292 847 282 896 b 310 1086 282 999 292 1044 z "},"":{"ha":329,"x_min":0,"x_max":0,"o":"m 165 1086 b 190 947 182 1044 190 999 b 165 804 190 901 182 854 l 138 804 b 165 947 156 842 165 889 b 139 1086 165 999 157 1046 z m 219 1086 b 240 947 233 1039 240 993 b 219 804 240 904 233 856 l 192 804 b 215 947 207 847 215 896 b 192 1086 215 1004 207 1051 z m 272 1086 b 290 947 285 1049 290 1001 b 271 804 290 900 283 853 l 246 804 b 265 947 258 861 265 910 b 246 1086 265 1001 258 1047 z m 324 1086 b 340 947 335 1046 340 1000 b 322 804 340 890 335 842 l 297 804 b 315 947 310 843 315 890 b 297 1086 315 1004 310 1050 z m 113 1086 b 140 947 131 1044 140 999 b 111 804 140 890 131 843 l 83 804 b 117 947 106 850 117 899 b 85 1086 117 993 106 1040 z "},"":{"ha":661,"x_min":0,"x_max":0,"o":"m 289 1086 b 263 947 271 1040 263 994 b 290 804 263 893 272 844 l 263 804 b 238 947 246 858 238 907 b 263 1086 238 993 246 1040 z m 236 1086 b 213 947 221 1047 213 1001 b 236 804 213 901 221 853 l 210 804 b 188 947 194 858 188 907 b 210 1086 188 990 194 1036 z m 183 1086 b 163 947 169 1044 163 999 b 183 804 163 913 169 865 l 158 804 b 138 947 144 856 138 904 b 157 1086 138 999 144 1046 z m 132 1086 b 113 947 119 1047 113 1001 b 132 804 113 893 119 846 l 107 804 b 88 947 94 844 88 893 b 106 1086 88 996 93 1043 z m 343 1086 b 313 947 322 1039 313 993 b 344 804 313 899 324 851 l 317 804 b 288 947 297 847 288 896 b 315 1086 288 993 297 1040 z m 597 1086 b 571 947 579 1040 571 994 b 599 804 571 893 581 844 l 571 804 b 546 947 554 858 546 907 b 571 1086 546 993 554 1040 z m 544 1086 b 521 947 529 1047 521 1001 b 544 804 521 901 529 853 l 518 804 b 496 947 503 858 496 907 b 518 1086 496 990 503 1036 z m 492 1086 b 471 947 478 1044 471 999 b 492 804 471 913 478 865 l 467 804 b 446 947 453 856 446 904 b 465 1086 446 999 453 1046 z m 440 1086 b 421 947 428 1047 421 1001 b 440 804 421 893 428 846 l 415 804 b 396 947 403 844 396 893 b 414 1086 396 996 401 1043 z m 651 1086 b 621 947 631 1039 621 993 b 653 804 621 899 632 851 l 625 804 b 596 947 606 847 596 896 b 624 1086 596 993 606 1040 z "},"":{"ha":661,"x_min":0,"x_max":0,"o":"m 172 1086 b 197 947 189 1040 197 993 b 172 804 197 907 189 858 l 144 804 b 172 947 163 844 172 893 b 146 1086 172 994 164 1040 z m 225 1086 b 247 947 240 1036 247 990 b 225 804 247 907 240 858 l 199 804 b 222 947 214 853 222 901 b 199 1086 222 1001 214 1047 z m 278 1086 b 297 947 290 1046 297 999 b 276 804 297 904 290 856 l 251 804 b 272 947 265 865 272 913 b 251 1086 272 999 265 1044 z m 329 1086 b 346 947 340 1046 346 1000 b 328 804 346 890 340 842 l 303 804 b 322 947 315 846 322 893 b 303 1086 322 1001 315 1047 z m 119 1086 b 147 947 138 1040 147 993 b 118 804 147 896 138 847 l 89 804 b 122 947 111 850 122 899 b 92 1086 122 993 113 1039 z m 481 1086 b 506 947 497 1040 506 993 b 481 804 506 907 497 858 l 453 804 b 481 947 471 844 481 893 b 454 1086 481 994 472 1040 z m 533 1086 b 556 947 549 1036 556 990 b 533 804 556 907 549 858 l 507 804 b 531 947 522 853 531 901 b 507 1086 531 1001 522 1047 z m 586 1086 b 606 947 599 1046 606 999 b 585 804 606 904 599 856 l 560 804 b 581 947 574 865 581 913 b 560 1086 581 999 574 1044 z m 638 1086 b 654 947 649 1046 654 1000 b 636 804 654 890 649 842 l 611 804 b 629 947 624 843 629 890 b 611 1086 629 1004 624 1050 z m 428 1086 b 456 947 446 1040 456 993 b 426 804 456 896 446 847 l 397 804 b 431 947 419 850 431 899 b 400 1086 431 993 421 1039 z "},"":{"ha":310,"x_min":0,"x_max":0,"o":"m 163 576 l 163 333 l 138 333 l 138 576 z m 213 576 l 213 333 l 188 333 l 188 576 z m 263 576 l 263 333 l 238 333 l 238 576 z m 313 576 l 313 333 l 288 333 l 288 576 z m 113 576 l 113 333 l 88 333 l 88 576 z "},"":{"ha":974,"x_min":0,"x_max":0,"o":"m 88 418 l 971 418 l 971 393 l 88 393 z m 88 468 l 971 468 l 971 443 l 88 443 z m 88 518 l 971 518 l 971 493 l 88 493 z m 88 568 l 971 568 l 971 543 l 88 543 z m 88 368 l 971 368 l 971 343 l 88 343 z "},"":{"ha":1600,"x_min":0,"x_max":0,"o":"m 88 418 l 1597 418 l 1597 393 l 88 393 z m 88 468 l 1597 468 l 1597 443 l 88 443 z m 88 518 l 1597 518 l 1597 493 l 88 493 z m 88 568 l 1597 568 l 1597 543 l 88 543 z m 88 368 l 1597 368 l 1597 343 l 88 343 z "},"":{"ha":649,"x_min":0,"x_max":0,"o":"m 222 1306 b 82 1282 168 1306 122 1297 l 82 1308 b 222 1331 133 1324 181 1331 b 364 1306 271 1331 318 1322 b 504 1282 411 1290 458 1282 b 646 1306 557 1282 604 1290 l 646 1279 b 504 1257 600 1264 553 1257 b 364 1281 458 1257 411 1265 b 222 1306 317 1297 269 1306 z m 222 1256 b 82 1229 174 1256 128 1247 l 82 1256 b 222 1281 131 1272 176 1281 b 364 1256 269 1281 317 1272 b 504 1232 411 1240 458 1232 b 646 1253 544 1232 592 1239 l 646 1228 b 504 1207 603 1214 556 1207 b 364 1231 458 1207 411 1215 b 222 1256 318 1247 271 1256 z m 504 1182 b 646 1201 564 1182 611 1189 l 646 1176 b 504 1157 611 1164 564 1157 b 364 1181 458 1157 411 1165 b 222 1206 317 1197 269 1206 b 82 1175 178 1206 131 1196 l 82 1203 b 222 1231 131 1221 176 1231 b 364 1206 271 1231 318 1222 b 504 1182 411 1190 458 1182 z "},"":{"ha":679,"x_min":0,"x_max":0,"o":"m 668 883 b 389 1074 622 996 513 1074 b 178 985 307 1074 238 1044 b 89 774 118 926 89 856 b 167 572 89 696 115 629 b 361 478 219 517 285 485 b 500 332 443 471 500 410 b 357 188 500 253 436 188 b 228 271 297 188 254 215 l 249 283 b 357 213 268 236 304 213 b 475 332 422 213 475 267 b 361 453 475 394 424 447 b 151 554 279 460 208 493 b 65 774 94 617 65 689 b 160 1003 65 864 97 940 b 389 1099 222 1067 299 1099 b 689 897 522 1099 639 1015 z m 581 833 b 389 974 554 917 478 974 b 247 914 335 974 288 954 b 189 774 208 875 189 828 b 242 639 189 722 207 676 b 371 575 276 601 319 579 b 535 497 438 569 492 543 b 600 332 578 451 600 397 b 528 160 600 265 576 208 b 357 88 481 111 424 88 b 144 213 267 88 185 136 l 165 226 b 357 113 207 150 271 113 b 511 176 417 113 468 133 b 575 332 554 219 575 272 b 514 481 575 389 554 439 b 369 551 474 524 426 547 b 225 622 313 556 265 579 b 165 774 185 665 165 715 b 231 932 165 836 188 889 b 389 999 274 976 326 999 b 600 846 485 999 568 935 z m 488 779 b 389 874 483 831 440 874 b 290 774 335 874 290 828 b 383 674 290 719 332 678 b 604 569 469 667 543 632 b 700 332 668 503 700 424 b 599 89 700 238 667 157 b 357 -11 532 22 451 -11 b 61 156 235 -11 124 54 l 83 169 b 357 14 144 65 236 14 b 582 107 444 14 519 44 b 675 332 644 169 675 244 b 589 550 675 418 646 490 b 381 650 532 610 463 643 b 264 774 313 656 264 707 b 389 899 264 844 321 899 b 513 794 450 899 503 851 z m 535 807 b 389 924 522 874 460 924 b 283 879 349 924 313 908 b 239 774 254 850 239 814 b 378 625 239 696 299 632 b 569 532 453 618 517 588 b 650 332 624 478 650 411 b 564 124 650 251 621 182 b 357 38 507 67 438 38 b 103 183 249 38 164 86 l 124 199 b 357 63 169 117 258 63 b 546 142 431 63 494 89 b 625 332 599 194 625 258 b 554 514 625 403 601 464 b 375 600 507 565 447 593 b 261 657 331 604 293 624 b 215 774 231 690 215 729 b 265 897 215 822 232 863 b 389 949 300 932 340 949 b 557 819 468 949 536 896 z m 624 857 b 389 1024 590 956 494 1024 b 213 950 321 1024 261 999 b 139 774 164 901 139 842 b 204 606 139 708 161 653 b 365 526 249 558 303 532 b 496 464 417 522 461 501 b 550 332 532 428 550 383 b 493 194 550 278 531 232 b 357 138 456 157 411 138 b 186 240 278 138 221 172 l 207 256 b 357 163 239 193 289 163 b 475 213 403 163 443 179 b 525 332 508 246 525 286 b 478 447 525 376 510 415 b 364 503 447 481 410 499 b 188 589 294 508 236 538 b 117 774 140 640 117 703 b 196 968 117 850 143 914 b 389 1049 249 1022 313 1049 b 644 871 506 1049 606 976 z m 460 1158 l 654 1353 l 689 1353 l 496 1158 z m 390 1158 l 582 1353 l 617 1353 l 425 1158 z m 372 1211 l 390 1229 l 268 1353 l 303 1353 l 407 1247 l 511 1353 l 547 1353 l 354 1158 l 319 1158 l 125 1353 l 161 1353 l 336 1176 l 354 1194 l 197 1353 l 232 1353 z "},"":{"ha":1389,"x_min":0,"x_max":0,"o":""},"":{"ha":1776,"x_min":0,"x_max":0,"o":"m 89 543 b 244 169 89 397 140 274 b 619 14 349 65 474 14 b 994 169 765 14 890 65 b 1150 543 1099 274 1150 397 b 994 918 1150 689 1099 814 b 619 1074 890 1022 765 1074 b 244 918 474 1074 349 1022 b 89 543 140 814 89 689 z m 1176 1100 l 1176 14 l 1151 14 l 1151 382 b 954 100 1117 267 1050 174 b 619 -11 856 26 743 -11 b 226 150 465 -11 335 43 b 65 543 119 258 65 389 b 226 936 65 697 119 828 b 619 1099 335 1044 465 1099 b 954 988 743 1099 856 1061 b 1151 704 1050 914 1117 819 l 1151 1100 z m 619 38 b 261 185 479 38 360 86 b 114 543 163 283 114 403 b 261 900 114 683 163 801 b 619 1049 360 999 479 1049 b 976 900 760 1049 878 999 b 1125 543 1075 801 1125 683 b 976 185 1125 403 1075 283 b 619 38 878 86 760 38 z m 139 543 b 279 203 139 411 186 297 b 619 63 374 110 488 63 b 958 203 751 63 865 110 b 1100 543 1053 297 1100 411 b 958 882 1100 675 1053 789 b 619 1024 865 976 751 1024 b 279 882 488 1024 374 976 b 139 543 186 789 139 675 z m 619 88 b 297 221 493 88 386 132 b 164 543 208 310 164 417 b 297 865 164 669 208 776 b 619 999 386 954 493 999 b 942 865 746 999 853 954 b 1075 543 1031 776 1075 669 b 942 221 1075 417 1031 310 b 619 88 853 132 746 88 z m 189 543 b 315 239 189 425 231 324 b 619 113 400 154 501 113 b 924 239 738 113 839 154 b 1050 543 1008 324 1050 425 b 924 847 1050 661 1008 763 b 619 974 839 932 738 974 b 315 847 501 974 400 932 b 189 543 231 763 189 661 z m 619 138 b 332 256 507 138 411 176 b 214 543 253 335 214 431 b 332 829 214 656 253 750 b 619 949 411 908 507 949 b 906 829 732 949 826 908 b 1025 543 985 750 1025 656 b 906 256 1025 431 985 335 b 619 138 826 176 732 138 z m 239 543 b 350 274 239 439 276 349 b 619 163 425 200 515 163 b 888 274 724 163 814 200 b 1000 543 963 349 1000 439 b 888 811 1000 647 963 738 b 619 924 814 886 724 924 b 350 811 515 924 425 886 b 239 543 276 738 239 647 z m 619 188 b 368 292 521 188 438 222 b 264 543 299 361 264 444 b 368 794 264 642 299 726 b 619 899 438 864 521 899 b 871 794 718 899 803 864 b 975 543 940 726 975 642 b 871 292 975 444 940 361 b 619 188 803 222 718 188 z m 289 543 b 386 310 289 453 321 375 b 619 213 451 244 529 213 b 853 310 710 213 788 244 b 950 543 918 375 950 453 b 853 776 950 633 918 711 b 619 874 788 842 710 874 b 386 776 529 874 451 842 b 289 543 321 711 289 633 z m 1326 1100 l 1326 14 l 1301 14 l 1301 1100 z m 1276 1100 l 1276 14 l 1251 14 l 1251 1100 z m 1226 1100 l 1226 14 l 1201 14 l 1201 1100 z m 1376 496 l 1376 471 l 1678 471 l 1678 446 l 1376 446 l 1376 239 l 1782 239 l 1782 214 l 1376 214 l 1376 189 l 1782 189 l 1782 164 l 1376 164 l 1376 139 l 1782 139 l 1782 114 l 1376 114 l 1376 89 l 1782 89 l 1782 64 l 1376 64 l 1376 39 l 1782 39 l 1782 14 l 1351 14 l 1351 1100 l 1782 1100 l 1782 1075 l 1376 1075 l 1376 1050 l 1782 1050 l 1782 1025 l 1376 1025 l 1376 1000 l 1782 1000 l 1782 975 l 1376 975 l 1376 950 l 1782 950 l 1782 925 l 1376 925 l 1376 900 l 1782 900 l 1782 876 l 1376 876 l 1376 671 l 1678 671 l 1678 646 l 1376 646 l 1376 621 l 1678 621 l 1678 596 l 1376 596 l 1376 571 l 1678 571 l 1678 546 l 1376 546 l 1376 521 l 1678 521 l 1678 496 z "},"":{"ha":958,"x_min":0,"x_max":0,"o":"m 608 390 l 274 1086 l 300 1086 l 521 625 l 742 1086 l 768 1086 l 533 597 l 546 572 l 794 1086 l 821 1086 l 558 546 l 571 519 l 846 1086 l 872 1086 l 583 493 l 596 468 l 899 1086 l 925 1086 l 608 442 l 621 417 l 953 1086 l 979 1086 l 633 390 l 633 0 l 608 0 z m 583 0 l 558 0 l 558 390 l 221 1086 l 247 1086 l 583 390 z m 533 0 l 508 0 l 508 390 l 169 1086 l 196 1086 l 533 390 z m 483 0 l 458 0 l 458 390 l 117 1086 l 143 1086 l 483 390 z m 433 0 l 408 0 l 408 390 l 61 1086 l 88 1086 l 433 390 z m 361 1343 l 361 1158 l 336 1158 l 336 1343 z m 411 1343 l 411 1158 l 386 1158 l 386 1343 z m 461 1343 l 461 1158 l 436 1158 l 436 1343 z m 311 1343 l 311 1158 l 286 1158 l 286 1343 z m 646 1343 l 646 1158 l 621 1158 l 621 1343 z m 696 1343 l 696 1158 l 671 1158 l 671 1343 z m 746 1343 l 746 1158 l 721 1158 l 721 1343 z m 596 1343 l 596 1158 l 571 1158 l 571 1343 z "},"":{"ha":313,"x_min":0,"x_max":0,"o":"m 238 843 l 238 1086 l 263 1086 l 263 843 z m 188 843 l 188 1086 l 213 1086 l 213 843 z m 138 843 l 138 1086 l 163 1086 l 163 843 z m 88 843 l 88 1086 l 113 1086 l 113 843 z m 288 843 l 288 1086 l 313 1086 l 313 843 z m 238 0 l 238 775 l 263 775 l 263 0 z m 188 0 l 188 775 l 213 775 l 213 0 z m 138 0 l 138 775 l 163 775 l 163 0 z m 88 0 l 88 775 l 113 775 l 113 0 z m 288 0 l 288 775 l 313 775 l 313 0 z "},"":{"ha":557,"x_min":0,"x_max":0,"o":"m 438 974 b 556 940 468 974 507 963 l 543 918 b 438 949 507 936 472 947 l 438 924 b 535 894 464 924 496 914 l 524 872 b 438 899 482 890 453 899 l 438 874 b 514 847 460 872 485 864 l 504 825 b 438 849 482 838 460 846 l 438 824 b 493 801 461 818 481 811 l 485 778 b 438 797 468 789 453 796 l 438 544 b 493 571 456 549 474 557 l 504 547 b 438 519 483 532 461 524 l 438 494 b 514 524 460 499 485 508 l 524 503 b 438 469 497 485 469 474 l 438 444 b 535 479 475 449 508 461 l 544 456 b 438 419 513 436 478 424 l 438 394 b 554 432 479 397 518 410 l 564 410 b 438 369 524 386 481 372 l 438 343 b 574 386 489 349 535 363 l 585 363 b 438 318 542 339 492 324 l 438 275 l 413 275 l 413 1079 l 438 1079 l 438 1024 b 574 985 486 1024 532 1011 l 564 963 b 438 999 521 986 478 999 z m 313 751 b 283 671 293 728 283 700 b 313 590 283 642 293 614 z m 313 554 b 258 671 276 586 258 625 b 313 789 258 719 276 760 l 313 819 b 233 671 260 783 233 733 b 313 524 233 607 260 558 z m 313 494 b 208 671 243 535 208 594 b 313 849 208 750 243 808 l 313 876 b 183 671 235 839 183 761 b 313 465 183 582 239 499 z m 313 439 b 158 671 224 476 158 569 b 313 904 158 772 219 865 l 313 932 b 133 671 207 892 133 788 b 313 411 133 554 207 451 z m 313 385 b 110 671 192 429 110 542 b 168 849 110 736 129 794 b 313 957 207 903 256 939 l 313 983 b 149 867 247 965 193 926 b 83 671 106 808 83 743 b 147 476 83 599 104 533 b 313 360 190 419 246 381 z m 338 275 l 313 275 l 313 333 b 131 458 239 354 178 396 b 60 671 83 521 60 592 b 131 883 60 750 83 821 b 313 1010 179 947 239 989 l 313 1079 l 338 1079 z m 388 1079 l 388 275 l 363 275 l 363 1079 z "},"":{"ha":807,"x_min":0,"x_max":0,"o":"m 803 997 b 597 1074 746 1049 678 1074 b 399 1003 524 1074 457 1050 b 288 826 342 957 304 897 l 228 571 l 253 571 l 311 822 b 414 983 326 888 360 940 b 597 1049 468 1026 529 1049 b 788 978 674 1049 738 1025 l 772 957 b 597 1024 722 1001 664 1024 b 431 964 535 1024 479 1004 b 336 817 382 925 350 876 l 279 571 l 304 571 l 360 811 b 444 944 372 865 400 910 b 597 999 490 981 540 999 b 757 936 663 999 715 978 l 744 918 b 597 974 699 956 650 974 b 385 804 493 974 407 903 l 331 571 l 356 571 l 408 801 b 476 906 418 842 440 876 b 597 949 514 935 554 949 b 729 897 649 949 692 932 l 714 876 b 597 924 682 908 643 924 b 433 794 518 924 450 871 l 382 571 l 407 571 l 457 789 b 597 899 472 851 532 899 b 699 856 639 899 672 885 l 685 835 b 597 874 656 861 626 874 b 482 781 542 874 494 835 l 433 571 l 686 571 l 686 546 l 94 546 l 94 571 l 201 571 l 263 833 b 383 1024 281 910 321 974 b 597 1099 446 1074 518 1099 b 743 1067 647 1099 696 1088 b 817 1018 775 1051 800 1035 z m 94 521 l 686 521 l 686 496 l 94 496 z m 353 225 l 792 225 l 792 200 l 117 200 l 174 446 l 94 446 l 94 471 l 686 471 l 686 446 l 404 446 z m 147 225 l 174 225 l 224 446 l 200 446 z m 199 225 l 224 225 l 275 446 l 250 446 z m 250 225 l 275 225 l 326 446 l 301 446 z m 301 225 l 326 225 l 378 446 l 353 446 z m 86 75 l 792 75 l 792 50 l 82 50 z m 99 125 l 792 125 l 792 100 l 93 100 z m 110 175 l 792 175 l 792 150 l 104 150 z m 76 25 l 792 25 l 792 0 l 69 0 z "},"":{"ha":550,"x_min":0,"x_max":0,"o":"m 163 1343 l 163 1158 l 138 1158 l 138 1343 z m 213 1343 l 213 1158 l 188 1158 l 188 1343 z m 263 1343 l 263 1158 l 238 1158 l 238 1343 z m 113 1343 l 113 1158 l 88 1158 l 88 1343 z m 447 1343 l 447 1158 l 422 1158 l 422 1343 z m 497 1343 l 497 1158 l 472 1158 l 472 1343 z m 547 1343 l 547 1158 l 522 1158 l 522 1343 z m 397 1343 l 397 1158 l 372 1158 l 372 1343 z "},"":{"ha":1389,"x_min":0,"x_max":0,"o":""},"":{"ha":406,"x_min":0,"x_max":0,"o":"m 68 576 l 397 576 l 397 565 l 57 565 z m 85 600 l 397 600 l 397 589 l 75 589 z m 101 625 l 397 625 l 397 614 l 93 614 z m 119 649 l 397 649 l 397 638 l 110 638 z m 292 885 b 304 922 300 896 304 908 b 242 985 304 956 276 985 b 181 922 208 985 181 956 b 210 871 181 900 190 883 l 203 863 b 169 922 181 875 169 894 b 242 997 169 963 201 997 b 317 922 282 997 317 963 b 303 879 317 907 313 892 l 151 672 l 165 672 l 313 874 b 329 922 324 889 329 904 b 242 1008 329 971 290 1008 b 157 922 196 1008 157 971 b 196 851 157 892 169 868 l 188 842 b 144 922 158 860 144 886 b 242 1021 144 976 188 1021 b 340 922 297 1021 340 976 b 324 867 340 900 335 882 l 181 672 l 197 672 l 333 860 b 353 922 346 878 353 899 b 242 1032 353 983 303 1032 b 132 922 182 1032 132 983 b 181 831 132 885 149 854 l 174 822 b 121 922 139 849 121 882 b 242 1044 121 989 176 1044 b 364 922 310 1044 364 989 b 342 853 364 896 357 874 l 211 672 l 225 672 l 354 847 b 376 922 369 868 376 893 b 242 1057 376 999 318 1057 b 108 922 169 1057 108 996 b 165 813 108 876 128 840 l 160 803 b 97 922 118 833 97 874 b 139 1026 97 963 111 997 b 242 1069 168 1056 201 1069 b 388 922 324 1069 388 1004 b 363 842 388 892 379 865 l 240 672 l 256 672 l 372 833 b 401 922 392 860 401 890 b 354 1033 401 965 386 1003 b 242 1081 322 1065 285 1081 b 131 1033 199 1081 163 1065 b 85 922 100 1003 85 965 b 153 794 85 865 107 824 l 146 783 b 74 922 97 817 74 863 b 122 1042 74 969 90 1010 b 242 1092 156 1075 196 1092 b 361 1042 289 1092 329 1075 b 411 922 394 1010 411 969 b 383 829 411 886 401 856 l 271 672 l 397 672 l 397 661 l 128 661 z "},"":{"ha":400,"x_min":0,"x_max":0,"o":"m 186 849 l 186 863 l 215 863 b 278 922 250 863 278 889 b 215 985 278 956 250 985 b 156 938 183 985 164 969 l 146 949 b 215 997 158 981 182 997 b 289 922 256 997 289 963 b 215 849 289 882 256 849 z m 186 838 l 215 838 b 301 922 264 838 301 876 b 215 1008 301 971 264 1008 b 136 957 181 1008 154 992 l 128 967 b 215 1021 146 1003 175 1021 b 313 922 269 1021 313 976 b 250 831 313 879 292 849 b 318 735 296 815 318 783 b 215 632 318 678 275 632 b 121 694 168 632 136 653 l 131 703 b 215 643 144 663 172 643 b 307 735 265 643 307 685 b 215 825 307 783 265 825 l 186 825 z m 150 722 b 215 668 154 693 183 668 b 282 735 253 668 282 697 b 215 801 282 772 253 801 l 186 801 l 186 814 l 215 814 b 293 735 258 814 293 778 b 215 654 293 690 258 654 b 139 713 175 654 150 674 z m 344 833 b 372 922 363 860 372 890 b 326 1033 372 965 357 1003 b 215 1081 296 1065 258 1081 b 82 1007 158 1081 114 1056 l 74 1017 b 215 1092 106 1067 153 1092 b 335 1042 263 1092 303 1075 b 385 922 368 1010 385 969 b 360 832 385 892 376 861 b 390 735 381 806 390 774 b 339 611 390 686 374 646 b 215 560 304 576 264 560 b 67 643 150 560 100 588 l 75 651 b 215 571 106 597 153 571 b 331 618 261 571 299 586 b 379 735 363 650 379 689 b 344 833 379 767 368 799 z m 314 832 b 350 922 338 858 350 888 b 215 1057 350 996 289 1057 b 100 992 167 1057 128 1035 l 93 999 b 215 1069 119 1046 161 1069 b 361 922 294 1069 361 1001 b 329 832 361 889 350 858 b 365 735 353 806 365 772 b 215 583 365 651 299 583 b 83 660 157 583 113 608 l 93 669 b 215 596 119 621 160 596 b 354 735 292 596 354 658 b 314 832 354 772 340 806 z m 297 831 b 342 735 326 810 342 778 b 215 608 342 667 286 608 b 101 676 167 608 128 631 l 111 686 b 215 619 132 642 167 619 b 331 735 281 619 331 672 b 276 831 331 779 313 811 b 326 922 310 851 326 882 b 215 1032 326 983 276 1032 b 118 974 171 1032 139 1013 l 108 982 b 215 1044 133 1024 169 1044 b 338 922 282 1044 338 989 b 297 831 338 888 324 857 z "},"":{"ha":453,"x_min":0,"x_max":0,"o":"m 386 1353 l 194 1158 l 158 1158 l 351 1353 z m 315 1353 l 122 1158 l 86 1158 l 281 1353 z m 457 1353 l 264 1158 l 229 1158 l 421 1353 z "},"":{"ha":346,"x_min":0,"x_max":0,"o":"m 229 1086 l 229 565 l 215 565 l 215 1086 z m 253 1086 l 253 565 l 240 565 l 240 1086 z m 276 1086 l 276 565 l 264 565 l 264 1086 z m 300 1086 l 300 565 l 288 565 l 288 1086 z m 192 958 l 107 907 l 101 918 l 192 974 l 192 988 l 96 928 l 88 936 l 192 1003 l 192 1017 l 82 947 l 76 957 l 192 1031 l 192 1044 l 71 968 l 63 978 l 192 1058 l 192 1074 l 57 988 l 51 999 l 192 1086 l 204 1086 l 204 565 l 192 565 z "},"":{"ha":449,"x_min":0,"x_max":0,"o":"m 68 900 b 124 1035 68 953 86 997 b 260 1092 161 1072 206 1092 b 396 1035 313 1092 358 1072 b 453 900 433 997 453 953 l 453 751 b 396 615 453 699 433 653 b 260 560 358 578 313 560 b 124 615 206 560 161 578 b 68 751 86 653 68 699 z m 79 751 b 132 624 79 703 97 660 b 260 571 167 589 210 571 b 388 624 310 571 353 589 b 440 751 422 660 440 703 l 440 900 b 388 1028 440 950 422 993 b 260 1081 353 1063 310 1081 b 132 1028 210 1081 167 1063 b 79 900 97 993 79 950 z m 114 900 b 260 1044 114 979 181 1044 b 404 900 339 1044 404 979 l 404 751 b 260 608 404 672 339 608 b 114 751 181 608 114 672 z m 128 751 b 260 619 128 679 186 619 b 392 751 332 619 392 678 l 392 900 b 260 1032 392 974 332 1032 b 128 900 186 1032 128 972 z m 163 900 b 260 997 163 954 206 997 b 357 900 314 997 357 954 l 357 751 b 260 654 357 697 314 654 b 163 751 206 654 163 697 z m 175 751 b 260 668 175 706 214 668 b 343 751 306 668 343 706 l 343 900 b 260 985 343 949 306 985 b 175 900 214 985 175 949 z m 139 900 b 260 1021 139 967 194 1021 b 381 900 326 1021 381 967 l 381 751 b 260 632 381 686 326 632 b 139 751 194 632 139 686 z m 151 751 b 260 643 151 692 200 643 b 368 751 319 643 368 692 l 368 900 b 260 1008 368 960 319 1008 b 151 900 200 1008 151 960 z m 103 751 b 149 642 103 708 118 672 b 260 596 179 611 217 596 b 369 642 303 596 339 611 b 415 751 400 672 415 708 l 415 900 b 369 1011 415 943 400 981 b 260 1057 339 1042 303 1057 b 149 1011 217 1057 181 1042 b 103 900 118 981 103 943 z m 92 900 b 260 1069 92 994 165 1069 b 379 1019 306 1069 346 1053 b 429 900 413 986 429 946 l 429 751 b 379 632 429 706 413 665 b 260 583 346 600 306 583 b 140 632 213 583 172 600 b 92 751 108 665 92 706 z "},"":{"ha":532,"x_min":0,"x_max":0,"o":"m 471 856 l 471 1099 l 496 1099 l 496 856 z m 421 856 l 421 1099 l 446 1099 l 446 856 z m 371 856 l 371 1099 l 396 1099 l 396 856 z m 321 856 l 321 1099 l 346 1099 l 346 856 z m 521 856 l 521 1099 l 546 1099 l 546 856 z m 546 46 l 546 21 b 407 0 497 7 450 0 b 181 92 319 0 243 31 b 88 315 118 154 88 228 b 139 489 88 378 104 436 b 263 600 171 538 211 574 b 321 701 301 621 321 654 l 321 793 l 346 793 l 346 701 b 274 578 346 643 322 601 b 160 475 226 554 189 521 b 113 315 128 426 113 372 b 199 110 113 235 142 167 b 407 25 256 53 325 25 b 546 46 449 25 494 32 z m 546 99 l 546 72 b 407 50 497 57 450 50 b 215 126 332 50 268 75 b 138 315 164 178 138 242 b 201 489 138 381 158 438 b 283 556 232 524 260 546 b 332 596 297 561 314 575 b 371 701 358 628 371 663 l 371 793 l 396 793 l 396 701 b 294 532 396 624 363 567 b 163 315 207 486 163 414 b 233 144 163 249 186 192 b 407 75 282 99 339 75 b 546 99 450 75 496 83 z m 546 150 l 546 124 b 407 100 496 108 450 100 b 251 163 346 100 294 121 b 188 315 208 204 188 256 b 304 510 188 393 233 476 b 374 565 329 522 353 540 b 421 701 406 604 421 650 l 421 793 l 446 793 l 446 701 b 392 549 446 644 428 593 b 317 486 367 518 342 497 b 250 429 293 476 271 457 b 213 315 225 394 213 356 b 269 181 213 263 232 218 b 407 125 307 143 353 125 b 546 150 456 125 501 133 z m 546 200 l 546 175 b 407 150 506 158 458 150 b 286 197 360 150 319 165 b 238 315 254 229 238 269 b 326 463 238 381 267 429 b 410 533 358 481 386 504 b 471 701 450 583 471 639 l 471 793 l 496 793 l 496 701 b 431 517 496 632 474 571 b 336 440 401 482 371 457 b 263 315 288 417 263 375 b 407 175 263 236 325 175 b 546 200 461 175 507 183 z m 546 249 l 546 224 b 407 200 514 208 467 200 b 288 315 340 200 288 250 b 310 385 288 340 294 364 b 347 419 322 403 335 414 b 449 501 382 435 415 461 b 521 701 497 560 521 626 l 521 793 l 546 793 l 546 701 b 468 486 546 619 519 549 b 357 397 435 446 397 417 b 311 315 326 383 311 356 b 407 225 311 261 353 225 b 546 249 464 225 510 233 z "},"":{"ha":1138,"x_min":0,"x_max":0,"o":"m 419 293 l 410 268 l 807 268 l 799 293 z m 439 343 l 429 318 l 789 318 l 779 343 z m 750 418 l 610 778 l 468 418 z m 460 393 l 449 368 l 769 368 l 761 393 z m 828 219 l 819 243 l 401 243 l 390 219 z m 382 194 l 306 0 l 279 0 l 703 1086 l 731 1086 l 1156 0 l 1128 0 l 717 1053 l 703 1019 l 1100 0 l 1074 0 l 690 983 l 676 950 l 1049 0 l 1021 0 l 664 917 l 650 882 l 996 0 l 968 0 l 638 849 l 624 811 l 940 0 l 914 0 l 839 194 z m 675 1086 l 251 0 l 224 0 l 649 1086 z m 622 1086 l 199 0 l 171 0 l 596 1086 z m 569 1086 l 146 0 l 118 0 l 542 1086 z m 514 1086 l 92 0 l 63 0 l 488 1086 z m 488 1353 l 679 1158 l 644 1158 l 453 1353 z m 558 1353 l 751 1158 l 717 1158 l 522 1353 z m 417 1353 l 610 1158 l 574 1158 l 382 1353 z "},"":{"ha":1138,"x_min":0,"x_max":0,"o":"m 419 293 l 410 268 l 807 268 l 799 293 z m 439 343 l 429 318 l 789 318 l 779 343 z m 750 418 l 610 778 l 468 418 z m 460 393 l 449 368 l 769 368 l 761 393 z m 828 219 l 819 243 l 401 243 l 390 219 z m 382 194 l 306 0 l 279 0 l 703 1086 l 731 1086 l 1156 0 l 1128 0 l 717 1053 l 703 1019 l 1100 0 l 1074 0 l 690 983 l 676 950 l 1049 0 l 1021 0 l 664 917 l 650 882 l 996 0 l 968 0 l 638 849 l 624 811 l 940 0 l 914 0 l 839 194 z m 675 1086 l 251 0 l 224 0 l 649 1086 z m 622 1086 l 199 0 l 171 0 l 596 1086 z m 569 1086 l 146 0 l 118 0 l 542 1086 z m 514 1086 l 92 0 l 63 0 l 488 1086 z m 767 1353 l 574 1158 l 539 1158 l 731 1353 z m 696 1353 l 503 1158 l 467 1158 l 661 1353 z m 838 1353 l 644 1158 l 610 1158 l 801 1353 z "},"":{"ha":1138,"x_min":0,"x_max":0,"o":"m 419 293 l 410 268 l 807 268 l 799 293 z m 439 343 l 429 318 l 789 318 l 779 343 z m 750 418 l 610 778 l 468 418 z m 460 393 l 449 368 l 769 368 l 761 393 z m 828 219 l 819 243 l 401 243 l 390 219 z m 382 194 l 306 0 l 279 0 l 703 1086 l 731 1086 l 1156 0 l 1128 0 l 717 1053 l 703 1019 l 1100 0 l 1074 0 l 690 983 l 676 950 l 1049 0 l 1021 0 l 664 917 l 650 882 l 996 0 l 968 0 l 638 849 l 624 811 l 940 0 l 914 0 l 839 194 z m 675 1086 l 251 0 l 224 0 l 649 1086 z m 622 1086 l 199 0 l 171 0 l 596 1086 z m 569 1086 l 146 0 l 118 0 l 542 1086 z m 514 1086 l 92 0 l 63 0 l 488 1086 z m 544 1353 l 351 1158 l 315 1158 l 510 1353 z m 615 1353 l 422 1158 l 388 1158 l 581 1353 z m 633 1300 l 615 1282 l 738 1158 l 701 1158 l 597 1264 l 493 1158 l 458 1158 l 650 1353 l 686 1353 l 879 1158 l 844 1158 l 668 1335 l 650 1317 l 807 1158 l 772 1158 z "},"":{"ha":1138,"x_min":0,"x_max":0,"o":"m 419 293 l 410 268 l 807 268 l 799 293 z m 439 343 l 429 318 l 789 318 l 779 343 z m 750 418 l 610 778 l 468 418 z m 460 393 l 449 368 l 769 368 l 761 393 z m 828 219 l 819 243 l 401 243 l 390 219 z m 382 194 l 306 0 l 279 0 l 703 1086 l 731 1086 l 1156 0 l 1128 0 l 717 1053 l 703 1019 l 1100 0 l 1074 0 l 690 983 l 676 950 l 1049 0 l 1021 0 l 664 917 l 650 882 l 996 0 l 968 0 l 638 849 l 624 811 l 940 0 l 914 0 l 839 194 z m 675 1086 l 251 0 l 224 0 l 649 1086 z m 622 1086 l 199 0 l 171 0 l 596 1086 z m 569 1086 l 146 0 l 118 0 l 542 1086 z m 514 1086 l 92 0 l 63 0 l 488 1086 z m 468 1306 b 329 1282 415 1306 369 1297 l 329 1308 b 468 1331 379 1324 425 1331 b 611 1306 517 1331 565 1322 b 750 1282 658 1290 704 1282 b 893 1306 801 1282 850 1290 l 893 1279 b 750 1257 844 1264 797 1257 b 611 1281 704 1257 658 1265 b 468 1306 564 1297 517 1306 z m 468 1256 b 329 1229 421 1256 375 1247 l 329 1256 b 468 1281 375 1272 422 1281 b 611 1256 517 1281 564 1272 b 750 1232 658 1240 704 1232 b 893 1253 792 1232 839 1239 l 893 1228 b 750 1207 847 1214 800 1207 b 611 1231 704 1207 658 1215 b 468 1256 565 1247 517 1256 z m 750 1182 b 893 1201 811 1182 858 1189 l 893 1176 b 750 1157 858 1164 810 1157 b 611 1181 704 1157 658 1165 b 468 1206 564 1197 517 1206 b 329 1175 422 1206 376 1196 l 329 1203 b 468 1231 375 1221 422 1231 b 611 1206 517 1231 565 1222 b 750 1182 658 1190 704 1182 z "},"":{"ha":1138,"x_min":0,"x_max":0,"o":"m 419 293 l 410 268 l 807 268 l 799 293 z m 439 343 l 429 318 l 789 318 l 779 343 z m 750 418 l 610 778 l 468 418 z m 460 393 l 449 368 l 769 368 l 761 393 z m 828 219 l 819 243 l 401 243 l 390 219 z m 382 194 l 306 0 l 279 0 l 703 1086 l 731 1086 l 1156 0 l 1128 0 l 717 1053 l 703 1019 l 1100 0 l 1074 0 l 690 983 l 676 950 l 1049 0 l 1021 0 l 664 917 l 650 882 l 996 0 l 968 0 l 638 849 l 624 811 l 940 0 l 914 0 l 839 194 z m 675 1086 l 251 0 l 224 0 l 649 1086 z m 622 1086 l 199 0 l 171 0 l 596 1086 z m 569 1086 l 146 0 l 118 0 l 542 1086 z m 514 1086 l 92 0 l 63 0 l 488 1086 z m 442 1343 l 442 1158 l 417 1158 l 417 1343 z m 492 1343 l 492 1158 l 467 1158 l 467 1343 z m 542 1343 l 542 1158 l 517 1158 l 517 1343 z m 392 1343 l 392 1158 l 367 1158 l 367 1343 z m 726 1343 l 726 1158 l 701 1158 l 701 1343 z m 776 1343 l 776 1158 l 751 1158 l 751 1343 z m 826 1343 l 826 1158 l 801 1158 l 801 1343 z m 676 1343 l 676 1158 l 651 1158 l 651 1343 z "},"":{"ha":1138,"x_min":0,"x_max":0,"o":"m 422 293 l 413 268 l 811 268 l 801 293 z m 442 343 l 432 318 l 792 318 l 782 343 z m 753 418 l 613 778 l 471 418 z m 463 393 l 453 368 l 772 368 l 764 393 z m 831 219 l 822 243 l 404 243 l 393 219 z m 385 194 l 308 0 l 282 0 l 706 1086 l 735 1086 l 1158 0 l 1131 0 l 719 1053 l 706 1019 l 1103 0 l 1076 0 l 693 983 l 679 950 l 1051 0 l 1024 0 l 667 917 l 653 882 l 999 0 l 971 0 l 640 849 l 626 811 l 943 0 l 917 0 l 842 194 z m 678 1086 l 254 0 l 226 0 l 651 1086 z m 625 1086 l 201 0 l 174 0 l 599 1086 z m 572 1086 l 149 0 l 121 0 l 544 1086 z m 517 1086 l 94 0 l 67 0 l 490 1086 z m 615 1572 b 763 1511 672 1572 722 1551 b 824 1364 803 1471 824 1421 b 763 1217 824 1307 803 1258 b 615 1156 722 1176 672 1156 b 468 1217 558 1156 508 1176 b 407 1364 428 1257 407 1307 b 468 1511 407 1421 428 1471 b 615 1572 508 1551 558 1572 z m 432 1364 b 485 1233 432 1313 450 1269 b 615 1181 521 1199 564 1181 b 744 1233 667 1181 710 1199 b 799 1364 781 1269 799 1313 b 744 1493 799 1415 781 1458 b 615 1547 710 1529 667 1547 b 485 1493 564 1547 521 1529 b 432 1364 450 1458 432 1415 z m 615 1522 b 726 1475 658 1522 696 1507 b 774 1364 758 1444 774 1407 b 726 1251 774 1321 758 1283 b 615 1206 696 1221 658 1206 b 503 1251 571 1206 533 1221 b 457 1364 472 1283 457 1321 b 503 1475 457 1407 472 1444 b 615 1522 533 1507 571 1522 z m 482 1364 b 615 1231 482 1290 542 1231 b 749 1364 689 1231 749 1290 b 615 1497 749 1438 689 1497 b 482 1364 542 1497 482 1438 z m 615 1472 b 724 1364 675 1472 724 1424 b 615 1256 724 1304 675 1256 b 507 1364 556 1256 507 1304 b 615 1472 507 1424 556 1472 z m 532 1364 b 615 1281 532 1318 569 1281 b 699 1364 661 1281 699 1318 b 615 1447 699 1410 661 1447 b 532 1364 569 1447 532 1410 z "},"":{"ha":1760,"x_min":0,"x_max":0,"o":"m 431 293 l 419 268 l 818 268 l 808 293 z m 449 343 l 439 318 l 799 318 l 790 343 z m 761 418 l 619 778 l 479 418 z m 469 393 l 460 368 l 779 368 l 771 393 z m 839 219 l 829 243 l 411 243 l 401 219 z m 1163 1086 l 1165 0 l 1138 0 l 726 1053 l 714 1019 l 1110 0 l 1083 0 l 700 983 l 688 950 l 1058 0 l 1031 0 l 674 917 l 661 882 l 1006 0 l 978 0 l 647 849 l 635 811 l 950 0 l 924 0 l 849 194 l 392 194 l 315 0 l 289 0 l 714 1086 l 742 1086 l 1138 71 l 1138 1086 z m 686 1086 l 261 0 l 233 0 l 660 1086 z m 633 1086 l 208 0 l 181 0 l 607 1086 z m 581 1086 l 156 0 l 128 0 l 551 1086 z m 524 1086 l 101 0 l 74 0 l 497 1086 z m 1313 1086 l 1313 0 l 1288 0 l 1288 1086 z m 1263 1086 l 1263 0 l 1238 0 l 1238 1086 z m 1213 1086 l 1213 0 l 1188 0 l 1188 1086 z m 1363 482 l 1363 457 l 1664 457 l 1664 432 l 1363 432 l 1363 225 l 1768 225 l 1768 200 l 1363 200 l 1363 175 l 1768 175 l 1768 150 l 1363 150 l 1363 125 l 1768 125 l 1768 100 l 1363 100 l 1363 75 l 1768 75 l 1768 50 l 1363 50 l 1363 25 l 1768 25 l 1768 0 l 1338 0 l 1338 1086 l 1768 1086 l 1768 1061 l 1363 1061 l 1363 1036 l 1768 1036 l 1768 1011 l 1363 1011 l 1363 986 l 1768 986 l 1768 961 l 1363 961 l 1363 936 l 1768 936 l 1768 911 l 1363 911 l 1363 886 l 1768 886 l 1768 863 l 1363 863 l 1363 657 l 1664 657 l 1664 632 l 1363 632 l 1363 607 l 1664 607 l 1664 582 l 1363 582 l 1363 557 l 1664 557 l 1664 532 l 1363 532 l 1363 507 l 1664 507 l 1664 482 z "},"":{"ha":685,"x_min":0,"x_max":0,"o":"m 690 868 b 624 874 663 872 640 874 b 390 776 533 874 456 842 b 293 543 325 711 293 633 b 390 310 293 453 325 375 b 624 213 456 244 533 213 b 690 221 646 213 668 215 l 690 194 b 624 188 672 190 650 188 b 372 292 525 188 442 222 b 268 543 303 361 268 444 b 372 794 268 642 303 725 b 624 899 442 864 525 899 b 690 893 649 899 671 897 z m 690 918 b 624 924 671 922 649 924 b 354 811 519 924 429 886 b 243 543 281 738 243 647 b 354 274 243 439 281 349 b 624 163 429 200 519 163 b 690 169 650 163 672 165 l 690 144 b 624 138 672 140 650 138 b 338 256 513 138 417 176 b 219 543 258 335 219 431 b 338 829 219 656 258 750 b 624 949 417 908 513 949 b 690 943 649 949 671 947 z m 690 968 b 624 974 672 972 650 974 b 319 847 506 974 404 932 b 194 543 236 763 194 661 b 319 239 194 425 236 324 b 624 113 404 154 506 113 b 690 118 649 113 671 114 l 690 93 b 624 88 671 89 649 88 b 301 221 497 88 390 132 b 169 543 214 310 169 417 b 301 865 169 669 214 776 b 624 999 390 954 497 999 b 690 994 646 999 668 997 z m 690 1019 b 624 1024 668 1022 646 1024 b 285 882 492 1024 378 976 b 144 543 192 789 144 675 b 285 203 144 411 192 297 b 624 63 378 110 492 63 b 690 68 639 63 661 64 l 690 43 b 624 38 661 39 639 38 b 267 185 483 38 365 86 b 119 543 168 283 119 403 b 267 900 119 683 168 801 b 624 1049 365 999 483 1049 b 690 1044 646 1049 668 1047 z m 585 -43 l 413 -214 l 394 -197 l 567 -25 z m 619 -78 l 447 -250 l 431 -232 l 601 -60 z m 549 -7 l 378 -179 l 360 -161 l 521 -1 b 197 188 392 22 283 86 b 69 543 113 290 69 408 b 231 936 69 697 124 828 b 624 1099 339 1044 469 1099 b 690 1094 646 1099 668 1097 l 690 1069 b 624 1074 668 1072 646 1074 b 250 918 478 1074 354 1022 b 94 543 146 814 94 689 b 250 169 94 397 146 274 b 624 14 354 65 478 14 b 690 18 646 14 668 15 l 690 -7 b 624 -11 668 -10 646 -11 b 549 -7 593 -11 568 -10 z "},"":{"ha":713,"x_min":0,"x_max":0,"o":"m 113 1086 l 113 0 l 88 0 l 88 1086 z m 263 1086 l 263 0 l 238 0 l 238 1086 z m 213 1086 l 213 0 l 188 0 l 188 1086 z m 163 1086 l 163 0 l 138 0 l 138 1086 z m 313 482 l 313 457 l 614 457 l 614 432 l 313 432 l 313 225 l 718 225 l 718 200 l 313 200 l 313 175 l 718 175 l 718 150 l 313 150 l 313 125 l 718 125 l 718 100 l 313 100 l 313 75 l 718 75 l 718 50 l 313 50 l 313 25 l 718 25 l 718 0 l 288 0 l 288 1086 l 718 1086 l 718 1061 l 313 1061 l 313 1036 l 718 1036 l 718 1011 l 313 1011 l 313 986 l 718 986 l 718 961 l 313 961 l 313 936 l 718 936 l 718 911 l 313 911 l 313 886 l 718 886 l 718 863 l 313 863 l 313 657 l 614 657 l 614 632 l 313 632 l 313 607 l 614 607 l 614 582 l 313 582 l 313 557 l 614 557 l 614 532 l 313 532 l 313 507 l 614 507 l 614 482 z m 369 1353 l 563 1158 l 526 1158 l 335 1353 z m 440 1353 l 635 1158 l 599 1158 l 406 1353 z m 300 1353 l 492 1158 l 457 1158 l 264 1353 z "},"":{"ha":713,"x_min":0,"x_max":0,"o":"m 113 1086 l 113 0 l 88 0 l 88 1086 z m 263 1086 l 263 0 l 238 0 l 238 1086 z m 213 1086 l 213 0 l 188 0 l 188 1086 z m 163 1086 l 163 0 l 138 0 l 138 1086 z m 313 482 l 313 457 l 614 457 l 614 432 l 313 432 l 313 225 l 718 225 l 718 200 l 313 200 l 313 175 l 718 175 l 718 150 l 313 150 l 313 125 l 718 125 l 718 100 l 313 100 l 313 75 l 718 75 l 718 50 l 313 50 l 313 25 l 718 25 l 718 0 l 288 0 l 288 1086 l 718 1086 l 718 1061 l 313 1061 l 313 1036 l 718 1036 l 718 1011 l 313 1011 l 313 986 l 718 986 l 718 961 l 313 961 l 313 936 l 718 936 l 718 911 l 313 911 l 313 886 l 718 886 l 718 863 l 313 863 l 313 657 l 614 657 l 614 632 l 313 632 l 313 607 l 614 607 l 614 582 l 313 582 l 313 557 l 614 557 l 614 532 l 313 532 l 313 507 l 614 507 l 614 482 z m 517 1353 l 325 1158 l 289 1158 l 482 1353 z m 446 1353 l 253 1158 l 217 1158 l 411 1353 z m 588 1353 l 394 1158 l 360 1158 l 551 1353 z "},"":{"ha":713,"x_min":0,"x_max":0,"o":"m 113 1086 l 113 0 l 88 0 l 88 1086 z m 263 1086 l 263 0 l 238 0 l 238 1086 z m 213 1086 l 213 0 l 188 0 l 188 1086 z m 163 1086 l 163 0 l 138 0 l 138 1086 z m 313 482 l 313 457 l 614 457 l 614 432 l 313 432 l 313 225 l 718 225 l 718 200 l 313 200 l 313 175 l 718 175 l 718 150 l 313 150 l 313 125 l 718 125 l 718 100 l 313 100 l 313 75 l 718 75 l 718 50 l 313 50 l 313 25 l 718 25 l 718 0 l 288 0 l 288 1086 l 718 1086 l 718 1061 l 313 1061 l 313 1036 l 718 1036 l 718 1011 l 313 1011 l 313 986 l 718 986 l 718 961 l 313 961 l 313 936 l 718 936 l 718 911 l 313 911 l 313 886 l 718 886 l 718 863 l 313 863 l 313 657 l 614 657 l 614 632 l 313 632 l 313 607 l 614 607 l 614 582 l 313 582 l 313 557 l 614 557 l 614 532 l 313 532 l 313 507 l 614 507 l 614 482 z m 354 1353 l 160 1158 l 125 1158 l 318 1353 z m 424 1353 l 232 1158 l 197 1158 l 389 1353 z m 442 1300 l 424 1282 l 546 1158 l 511 1158 l 407 1264 l 303 1158 l 267 1158 l 460 1353 l 494 1353 l 689 1158 l 653 1158 l 478 1335 l 460 1317 l 617 1158 l 582 1158 z "},"":{"ha":713,"x_min":0,"x_max":0,"o":"m 113 1086 l 113 0 l 88 0 l 88 1086 z m 263 1086 l 263 0 l 238 0 l 238 1086 z m 213 1086 l 213 0 l 188 0 l 188 1086 z m 163 1086 l 163 0 l 138 0 l 138 1086 z m 313 482 l 313 457 l 614 457 l 614 432 l 313 432 l 313 225 l 718 225 l 718 200 l 313 200 l 313 175 l 718 175 l 718 150 l 313 150 l 313 125 l 718 125 l 718 100 l 313 100 l 313 75 l 718 75 l 718 50 l 313 50 l 313 25 l 718 25 l 718 0 l 288 0 l 288 1086 l 718 1086 l 718 1061 l 313 1061 l 313 1036 l 718 1036 l 718 1011 l 313 1011 l 313 986 l 718 986 l 718 961 l 313 961 l 313 936 l 718 936 l 718 911 l 313 911 l 313 886 l 718 886 l 718 863 l 313 863 l 313 657 l 614 657 l 614 632 l 313 632 l 313 607 l 614 607 l 614 582 l 313 582 l 313 557 l 614 557 l 614 532 l 313 532 l 313 507 l 614 507 l 614 482 z m 272 1343 l 272 1158 l 247 1158 l 247 1343 z m 322 1343 l 322 1158 l 297 1158 l 297 1343 z m 371 1343 l 371 1158 l 346 1158 l 346 1343 z m 222 1343 l 222 1158 l 197 1158 l 197 1343 z m 557 1343 l 557 1158 l 532 1158 l 532 1343 z m 607 1343 l 607 1158 l 582 1158 l 582 1343 z m 657 1343 l 657 1158 l 632 1158 l 632 1343 z m 507 1343 l 507 1158 l 482 1158 l 482 1343 z "},"":{"ha":313,"x_min":0,"x_max":0,"o":"m 163 1086 l 163 0 l 138 0 l 138 1086 z m 213 1086 l 213 0 l 188 0 l 188 1086 z m 263 1086 l 263 0 l 238 0 l 238 1086 z m 313 1086 l 313 0 l 288 0 l 288 1086 z m 113 1086 l 113 0 l 88 0 l 88 1086 z m 106 1353 l 299 1158 l 263 1158 l 71 1353 z m 176 1353 l 369 1158 l 335 1158 l 140 1353 z m 35 1353 l 228 1158 l 192 1158 l 0 1353 z "},"":{"ha":313,"x_min":0,"x_max":0,"o":"m 163 1086 l 163 0 l 138 0 l 138 1086 z m 213 1086 l 213 0 l 188 0 l 188 1086 z m 263 1086 l 263 0 l 238 0 l 238 1086 z m 313 1086 l 313 0 l 288 0 l 288 1086 z m 113 1086 l 113 0 l 88 0 l 88 1086 z m 340 1353 l 149 1158 l 113 1158 l 306 1353 z m 271 1353 l 76 1158 l 42 1158 l 235 1353 z m 411 1353 l 219 1158 l 183 1158 l 376 1353 z "},"":{"ha":313,"x_min":0,"x_max":0,"o":"m 163 1086 l 163 0 l 138 0 l 138 1086 z m 213 1086 l 213 0 l 188 0 l 188 1086 z m 263 1086 l 263 0 l 238 0 l 238 1086 z m 313 1086 l 313 0 l 288 0 l 288 1086 z m 113 1086 l 113 0 l 88 0 l 88 1086 z m 149 1353 l -46 1158 l -81 1158 l 113 1353 z m 219 1353 l 26 1158 l -8 1158 l 183 1353 z m 236 1300 l 219 1282 l 340 1158 l 306 1158 l 201 1264 l 97 1158 l 61 1158 l 254 1353 l 289 1353 l 483 1158 l 447 1158 l 272 1335 l 254 1317 l 411 1158 l 376 1158 z "},"":{"ha":313,"x_min":0,"x_max":0,"o":"m 163 1086 l 163 0 l 138 0 l 138 1086 z m 213 1086 l 213 0 l 188 0 l 188 1086 z m 263 1086 l 263 0 l 238 0 l 238 1086 z m 313 1086 l 313 0 l 288 0 l 288 1086 z m 113 1086 l 113 0 l 88 0 l 88 1086 z m 36 1343 l 36 1158 l 11 1158 l 11 1343 z m 86 1343 l 86 1158 l 61 1158 l 61 1343 z m 136 1343 l 136 1158 l 111 1158 l 111 1343 z m -14 1343 l -14 1158 l -37 1158 l -37 1343 z m 322 1343 l 322 1158 l 297 1158 l 297 1343 z m 371 1343 l 371 1158 l 346 1158 l 346 1343 z m 421 1343 l 421 1158 l 396 1158 l 396 1343 z m 272 1343 l 272 1158 l 247 1158 l 247 1343 z "},"":{"ha":835,"x_min":0,"x_max":0,"o":"m 313 50 l 313 25 b 679 179 456 28 578 79 b 831 543 781 279 831 400 b 679 907 831 686 781 807 b 313 1061 578 1007 456 1058 l 313 1036 b 663 890 450 1033 567 985 b 806 543 758 796 806 681 b 663 196 806 406 758 290 b 313 50 567 101 450 53 z m 313 100 l 313 75 b 644 214 443 78 554 124 b 781 543 735 304 781 414 b 644 872 781 672 735 782 b 313 1011 554 963 443 1008 l 313 986 b 626 854 436 983 542 939 b 756 543 713 769 756 667 b 626 232 756 421 713 317 b 313 100 540 147 436 103 z m 313 150 l 313 125 b 608 249 429 128 528 169 b 731 543 690 329 731 428 b 608 836 731 658 690 757 b 313 961 528 917 429 958 l 313 936 b 592 819 422 933 515 894 b 706 543 668 744 706 653 b 590 267 706 435 667 343 b 313 150 514 192 422 153 z m 313 200 l 313 175 b 574 285 415 178 503 214 b 681 543 644 356 681 442 b 574 801 681 644 644 731 b 313 911 503 872 415 908 l 313 886 b 557 783 410 883 492 849 b 657 543 624 718 657 639 b 557 301 657 447 624 367 b 313 200 490 236 408 203 z m 138 518 l 113 518 l 113 493 l 138 493 z m 188 518 l 163 518 l 163 493 l 188 493 z m 238 518 l 213 518 l 213 493 l 238 493 z m 288 518 l 263 518 l 263 493 l 288 493 z m 138 568 l 113 568 l 113 543 l 138 543 z m 188 568 l 163 568 l 163 543 l 188 543 z m 238 568 l 213 568 l 213 543 l 238 543 z m 288 568 l 263 568 l 263 543 l 288 543 z m 138 618 l 113 618 l 113 593 l 138 593 z m 188 618 l 163 618 l 163 593 l 188 593 z m 238 618 l 213 618 l 213 593 l 238 593 z m 288 618 l 263 618 l 263 593 l 288 593 z m 313 443 l 519 443 l 519 418 l 313 418 l 313 225 b 539 319 401 228 476 260 b 632 543 601 381 632 456 b 539 765 632 631 601 706 b 313 863 476 826 401 858 l 313 643 l 519 643 l 519 618 l 313 618 l 313 593 l 519 593 l 519 568 l 313 568 l 313 543 l 519 543 l 519 518 l 313 518 l 313 493 l 519 493 l 519 468 l 313 468 z m 263 443 l 288 443 l 288 468 l 263 468 z m 213 443 l 238 443 l 238 468 l 213 468 z m 163 443 l 188 443 l 188 468 l 163 468 z m 113 443 l 138 443 l 138 468 l 113 468 z m 0 443 l 88 443 l 88 468 l 0 468 l 0 493 l 88 493 l 88 518 l 0 518 l 0 543 l 88 543 l 88 568 l 0 568 l 0 593 l 88 593 l 88 618 l 0 618 l 0 643 l 88 643 l 88 1086 l 113 1086 l 113 643 l 138 643 l 138 1086 l 163 1086 l 163 643 l 188 643 l 188 1086 l 213 1086 l 213 643 l 238 643 l 238 1086 l 263 1086 l 263 643 l 288 643 l 288 1086 l 313 1086 b 697 928 464 1086 593 1033 b 856 543 803 824 856 694 b 696 157 856 392 803 263 b 313 0 590 53 463 0 l 288 0 l 288 418 l 263 418 l 263 0 l 238 0 l 238 418 l 213 418 l 213 0 l 188 0 l 188 418 l 163 418 l 163 0 l 138 0 l 138 418 l 113 418 l 113 0 l 88 0 l 88 418 l 0 418 z "},"":{"ha":975,"x_min":0,"x_max":0,"o":"m 290 1086 l 915 0 l 886 0 l 261 1086 z m 233 1086 l 858 0 l 828 0 l 204 1086 z m 175 1086 l 800 0 l 771 0 l 147 1086 z m 824 260 l 849 217 l 849 1086 l 874 1086 l 874 174 l 899 131 l 899 1086 l 924 1086 l 924 86 l 949 44 l 949 1086 l 974 1086 l 974 0 l 943 0 l 318 1086 l 346 1086 l 749 389 l 749 1086 l 774 1086 l 774 346 l 799 304 l 799 1086 l 824 1086 z m 138 1000 l 113 1044 l 113 0 l 88 0 l 88 1086 l 114 1086 l 743 0 l 713 0 l 313 696 l 313 0 l 288 0 l 288 739 l 263 782 l 263 0 l 238 0 l 238 825 l 213 869 l 213 0 l 188 0 l 188 914 l 163 957 l 163 0 l 138 0 z m 386 1306 b 247 1282 333 1306 288 1297 l 247 1308 b 386 1331 297 1324 343 1331 b 529 1306 435 1331 483 1322 b 668 1282 576 1290 622 1282 b 811 1306 719 1282 768 1290 l 811 1279 b 668 1257 763 1264 715 1257 b 529 1281 622 1257 576 1265 b 386 1306 482 1297 435 1306 z m 386 1256 b 247 1229 339 1256 293 1247 l 247 1256 b 386 1281 293 1272 340 1281 b 529 1256 435 1281 482 1272 b 668 1232 576 1240 622 1232 b 811 1253 710 1232 757 1239 l 811 1228 b 668 1207 765 1214 718 1207 b 529 1231 622 1207 576 1215 b 386 1256 483 1247 435 1256 z m 668 1182 b 811 1201 729 1182 776 1189 l 811 1176 b 668 1157 774 1164 726 1157 b 529 1181 622 1157 576 1165 b 386 1206 482 1197 435 1206 b 247 1175 340 1206 294 1196 l 247 1203 b 386 1231 293 1221 340 1231 b 529 1206 435 1231 483 1222 b 668 1182 576 1190 622 1182 z "},"":{"ha":1154,"x_min":0,"x_max":0,"o":"m 619 -11 b 226 150 465 -11 335 43 b 65 543 119 258 65 389 b 226 936 65 697 119 828 b 619 1099 335 1044 465 1099 b 1013 936 774 1099 904 1044 b 1175 543 1121 828 1175 697 b 1013 150 1175 389 1121 258 b 619 -11 904 43 774 -11 z m 89 543 b 244 169 89 397 140 274 b 619 14 349 65 474 14 b 994 169 765 14 890 65 b 1150 543 1099 274 1150 397 b 994 918 1150 689 1099 814 b 619 1074 890 1022 765 1074 b 244 918 474 1074 349 1022 b 89 543 140 814 89 689 z m 619 38 b 261 185 479 38 360 86 b 114 543 163 283 114 403 b 261 900 114 683 163 801 b 619 1049 360 999 479 1049 b 976 900 760 1049 878 999 b 1125 543 1075 801 1125 683 b 976 185 1125 403 1075 283 b 619 38 878 86 760 38 z m 139 543 b 279 203 139 411 186 297 b 619 63 374 110 488 63 b 958 203 751 63 865 110 b 1100 543 1053 297 1100 411 b 958 882 1100 675 1053 789 b 619 1024 865 976 751 1024 b 279 882 488 1024 374 976 b 139 543 186 789 139 675 z m 619 88 b 297 221 493 88 386 132 b 164 543 208 310 164 417 b 297 865 164 669 208 776 b 619 999 386 954 493 999 b 942 865 746 999 853 954 b 1075 543 1031 776 1075 669 b 942 221 1075 417 1031 310 b 619 88 853 132 746 88 z m 189 543 b 315 239 189 425 231 324 b 619 113 400 154 501 113 b 924 239 738 113 839 154 b 1050 543 1008 324 1050 425 b 924 847 1050 661 1008 763 b 619 974 839 932 738 974 b 315 847 501 974 400 932 b 189 543 231 763 189 661 z m 619 138 b 332 256 507 138 411 176 b 214 543 253 335 214 431 b 332 829 214 656 253 750 b 619 949 411 908 507 949 b 906 829 732 949 826 908 b 1025 543 985 750 1025 656 b 906 256 1025 431 985 335 b 619 138 826 176 732 138 z m 239 543 b 350 274 239 439 276 349 b 619 163 425 200 515 163 b 888 274 724 163 814 200 b 1000 543 963 349 1000 439 b 888 811 1000 647 963 738 b 619 924 814 886 724 924 b 350 811 515 924 425 886 b 239 543 276 738 239 647 z m 619 188 b 368 292 521 188 438 222 b 264 543 299 361 264 444 b 368 794 264 642 299 726 b 619 899 438 864 521 899 b 871 794 718 899 803 864 b 975 543 940 726 975 642 b 871 292 975 444 940 361 b 619 188 803 222 718 188 z m 289 543 b 386 310 289 453 321 375 b 619 213 451 244 529 213 b 853 310 710 213 788 244 b 950 543 918 375 950 453 b 853 776 950 633 918 711 b 619 874 788 842 710 874 b 386 776 529 874 451 842 b 289 543 321 711 289 633 z m 524 1353 l 717 1158 l 681 1158 l 489 1353 z m 594 1353 l 789 1158 l 753 1158 l 560 1353 z m 454 1353 l 646 1158 l 611 1158 l 418 1353 z "},"":{"ha":1154,"x_min":0,"x_max":0,"o":"m 622 -11 b 229 150 468 -11 338 43 b 68 543 122 258 68 389 b 229 936 68 697 122 828 b 622 1099 338 1044 468 1099 b 1015 936 776 1099 907 1044 b 1178 543 1124 828 1178 697 b 1015 150 1178 389 1124 258 b 622 -11 907 43 776 -11 z m 93 543 b 249 169 93 397 144 274 b 622 14 353 65 476 14 b 997 168 768 14 893 65 b 1153 543 1101 272 1153 397 b 997 918 1153 689 1101 814 b 622 1074 893 1022 768 1074 b 249 918 476 1074 353 1022 b 93 543 144 814 93 689 z m 622 38 b 265 185 482 38 364 86 b 118 543 167 283 118 403 b 265 900 118 683 167 801 b 622 1049 364 999 482 1049 b 979 900 763 1049 881 999 b 1128 543 1078 801 1128 683 b 979 185 1128 403 1078 283 b 622 38 881 86 763 38 z m 143 543 b 283 203 143 411 190 297 b 622 63 376 110 490 63 b 963 203 756 63 869 110 b 1103 543 1056 297 1103 411 b 963 882 1103 675 1056 789 b 622 1024 869 976 756 1024 b 283 882 490 1024 376 976 b 143 543 190 789 143 675 z m 622 88 b 300 221 496 88 389 132 b 168 543 213 310 168 417 b 300 865 168 669 213 776 b 622 999 389 954 496 999 b 944 865 749 999 856 954 b 1078 543 1033 776 1078 669 b 944 221 1078 417 1033 310 b 622 88 856 132 749 88 z m 192 543 b 318 239 192 425 233 324 b 622 113 403 154 504 113 b 926 239 740 113 842 154 b 1053 543 1011 324 1053 425 b 926 847 1053 661 1011 763 b 622 974 842 932 740 974 b 318 847 504 974 403 932 b 192 543 233 763 192 661 z m 622 138 b 336 256 511 138 415 176 b 217 543 257 335 217 431 b 336 829 217 656 257 750 b 622 949 415 908 511 949 b 908 829 735 949 829 908 b 1028 543 988 750 1028 656 b 908 256 1028 431 988 335 b 622 138 829 176 735 138 z m 242 543 b 353 274 242 439 279 349 b 622 163 428 200 518 163 b 890 274 726 163 817 200 b 1003 543 965 349 1003 439 b 890 811 1003 647 965 738 b 622 924 817 886 726 924 b 353 811 518 924 428 886 b 242 543 279 738 242 647 z m 622 188 b 371 292 524 188 440 222 b 267 543 301 361 267 444 b 371 794 267 642 301 725 b 622 899 440 864 524 899 b 874 794 721 899 806 864 b 978 543 943 726 978 642 b 874 292 978 444 943 361 b 622 188 806 222 721 188 z m 292 543 b 389 310 292 453 324 375 b 622 213 454 244 532 213 b 856 310 713 213 790 244 b 953 543 921 375 953 453 b 856 776 953 633 921 711 b 622 874 790 842 713 874 b 389 776 532 874 454 842 b 292 543 324 711 292 633 z m 803 1353 l 611 1158 l 575 1158 l 768 1353 z m 732 1353 l 539 1158 l 504 1158 l 697 1353 z m 874 1353 l 681 1158 l 646 1158 l 839 1353 z "},"":{"ha":1154,"x_min":0,"x_max":0,"o":"m 619 -11 b 226 150 465 -11 335 43 b 65 543 119 258 65 389 b 226 936 65 697 119 828 b 619 1099 335 1044 465 1099 b 1013 936 774 1099 904 1044 b 1175 543 1121 828 1175 697 b 1013 150 1175 389 1121 258 b 619 -11 904 43 774 -11 z m 89 543 b 244 169 89 397 140 274 b 619 14 349 65 474 14 b 994 169 765 14 890 65 b 1150 543 1099 274 1150 397 b 994 918 1150 689 1099 814 b 619 1074 890 1022 765 1074 b 244 918 474 1074 349 1022 b 89 543 140 814 89 689 z m 619 38 b 261 185 479 38 360 86 b 114 543 163 283 114 403 b 261 900 114 683 163 801 b 619 1049 360 999 479 1049 b 976 900 760 1049 878 999 b 1125 543 1075 801 1125 683 b 976 185 1125 403 1075 283 b 619 38 878 86 760 38 z m 139 543 b 279 203 139 411 186 297 b 619 63 374 110 488 63 b 958 203 751 63 865 110 b 1100 543 1053 297 1100 411 b 958 882 1100 675 1053 789 b 619 1024 865 976 751 1024 b 279 882 488 1024 374 976 b 139 543 186 789 139 675 z m 619 88 b 297 221 493 88 386 132 b 164 543 208 310 164 417 b 297 865 164 669 208 776 b 619 999 386 954 493 999 b 942 865 746 999 853 954 b 1075 543 1031 776 1075 669 b 942 221 1075 417 1031 310 b 619 88 853 132 746 88 z m 189 543 b 315 239 189 425 231 324 b 619 113 400 154 501 113 b 924 239 738 113 839 154 b 1050 543 1008 324 1050 425 b 924 847 1050 661 1008 763 b 619 974 839 932 738 974 b 315 847 501 974 400 932 b 189 543 231 763 189 661 z m 619 138 b 332 256 507 138 411 176 b 214 543 253 335 214 431 b 332 829 214 656 253 750 b 619 949 411 908 507 949 b 906 829 732 949 826 908 b 1025 543 985 750 1025 656 b 906 256 1025 431 985 335 b 619 138 826 176 732 138 z m 239 543 b 350 274 239 439 276 349 b 619 163 425 200 515 163 b 888 274 724 163 814 200 b 1000 543 963 349 1000 439 b 888 811 1000 647 963 738 b 619 924 814 886 724 924 b 350 811 515 924 425 886 b 239 543 276 738 239 647 z m 619 188 b 368 292 521 188 438 222 b 264 543 299 361 264 444 b 368 794 264 642 299 726 b 619 899 438 864 521 899 b 871 794 718 899 803 864 b 975 543 940 726 975 642 b 871 292 975 444 940 361 b 619 188 803 222 718 188 z m 289 543 b 386 310 289 453 321 375 b 619 213 451 244 529 213 b 853 310 710 213 788 244 b 950 543 918 375 950 453 b 853 776 950 633 918 711 b 619 874 788 842 710 874 b 386 776 529 874 451 842 b 289 543 321 711 289 633 z m 558 1353 l 364 1158 l 329 1158 l 522 1353 z m 628 1353 l 436 1158 l 401 1158 l 593 1353 z m 646 1300 l 628 1282 l 750 1158 l 715 1158 l 611 1264 l 507 1158 l 471 1158 l 664 1353 l 699 1353 l 893 1158 l 857 1158 l 681 1335 l 664 1317 l 821 1158 l 786 1158 z "},"":{"ha":1154,"x_min":0,"x_max":0,"o":"m 626 -11 b 233 150 472 -11 342 43 b 72 543 126 258 72 389 b 233 936 72 697 126 828 b 626 1099 342 1044 472 1099 b 1019 936 781 1099 911 1044 b 1182 543 1128 828 1182 697 b 1019 150 1182 389 1128 258 b 626 -11 911 43 781 -11 z m 97 543 b 253 169 97 397 149 274 b 626 14 357 65 481 14 b 1001 168 772 14 897 65 b 1157 543 1106 272 1157 397 b 1001 918 1157 689 1106 814 b 626 1074 897 1022 772 1074 b 253 918 481 1074 357 1022 b 97 543 149 814 97 689 z m 626 38 b 269 185 488 38 368 86 b 122 543 171 283 122 403 b 269 900 122 683 171 801 b 626 1049 368 999 488 1049 b 983 900 767 1049 885 999 b 1132 543 1082 801 1132 683 b 983 185 1132 403 1082 283 b 626 38 885 86 767 38 z m 147 543 b 288 203 147 411 194 297 b 626 63 381 110 494 63 b 967 203 760 63 874 110 b 1107 543 1060 297 1107 411 b 967 882 1107 675 1060 789 b 626 1024 874 976 760 1024 b 288 882 494 1024 381 976 b 147 543 194 789 147 675 z m 626 88 b 306 221 501 88 394 132 b 172 543 217 310 172 417 b 306 865 172 669 217 776 b 626 999 394 954 501 999 b 949 865 753 999 860 954 b 1082 543 1038 776 1082 669 b 949 221 1082 417 1038 310 b 626 88 860 132 753 88 z m 197 543 b 322 239 197 425 239 324 b 626 113 407 154 508 113 b 931 239 746 113 847 154 b 1057 543 1015 324 1057 425 b 931 847 1057 661 1015 763 b 626 974 847 932 746 974 b 322 847 508 974 407 932 b 197 543 239 763 197 661 z m 626 138 b 340 256 515 138 419 176 b 222 543 261 335 222 431 b 340 829 222 656 261 750 b 626 949 419 908 515 949 b 913 829 739 949 833 908 b 1032 543 992 750 1032 656 b 913 256 1032 431 992 335 b 626 138 833 176 739 138 z m 247 543 b 358 274 247 439 285 349 b 626 163 432 200 522 163 b 896 274 732 163 822 200 b 1007 543 969 349 1007 439 b 896 811 1007 647 969 738 b 626 924 822 886 732 924 b 358 811 522 924 432 886 b 247 543 285 738 247 647 z m 626 188 b 375 292 528 188 444 222 b 272 543 307 361 272 444 b 375 794 272 642 307 725 b 626 899 444 864 528 899 b 878 794 725 899 810 864 b 982 543 947 726 982 642 b 878 292 982 444 947 361 b 626 188 810 222 725 188 z m 297 543 b 393 310 297 453 329 375 b 626 213 458 244 536 213 b 860 310 717 213 794 244 b 957 543 925 375 957 453 b 860 776 957 633 925 711 b 626 874 794 842 717 874 b 393 776 536 874 458 842 b 297 543 329 711 297 633 z m 482 1306 b 342 1282 428 1306 382 1297 l 342 1308 b 482 1331 393 1324 440 1331 b 624 1306 531 1331 578 1322 b 764 1282 671 1290 718 1282 b 906 1306 817 1282 864 1290 l 906 1279 b 764 1257 860 1264 813 1257 b 624 1281 718 1257 671 1265 b 482 1306 576 1297 529 1306 z m 482 1256 b 342 1229 436 1256 389 1247 l 342 1256 b 482 1281 390 1272 436 1281 b 624 1256 529 1281 576 1272 b 764 1232 671 1240 718 1232 b 906 1253 807 1232 854 1239 l 906 1228 b 764 1207 863 1214 815 1207 b 624 1231 718 1207 671 1215 b 482 1256 578 1247 531 1256 z m 764 1182 b 906 1201 824 1182 871 1189 l 906 1176 b 764 1157 871 1164 824 1157 b 624 1181 718 1157 671 1165 b 482 1206 576 1197 529 1206 b 342 1175 438 1206 390 1196 l 342 1203 b 482 1231 390 1221 436 1231 b 624 1206 531 1231 578 1222 b 764 1182 671 1190 718 1182 z "},"":{"ha":1154,"x_min":0,"x_max":0,"o":"m 619 -11 b 226 150 465 -11 335 43 b 65 543 119 258 65 389 b 226 936 65 697 119 828 b 619 1099 335 1044 465 1099 b 1013 936 774 1099 904 1044 b 1175 543 1121 828 1175 697 b 1013 150 1175 389 1121 258 b 619 -11 904 43 774 -11 z m 89 543 b 244 169 89 397 140 274 b 619 14 349 65 474 14 b 994 169 765 14 890 65 b 1150 543 1099 274 1150 397 b 994 918 1150 689 1099 814 b 619 1074 890 1022 765 1074 b 244 918 474 1074 349 1022 b 89 543 140 814 89 689 z m 619 38 b 261 185 479 38 360 86 b 114 543 163 283 114 403 b 261 900 114 683 163 801 b 619 1049 360 999 479 1049 b 976 900 760 1049 878 999 b 1125 543 1075 801 1125 683 b 976 185 1125 403 1075 283 b 619 38 878 86 760 38 z m 139 543 b 279 203 139 411 186 297 b 619 63 374 110 488 63 b 958 203 751 63 865 110 b 1100 543 1053 297 1100 411 b 958 882 1100 675 1053 789 b 619 1024 865 976 751 1024 b 279 882 488 1024 374 976 b 139 543 186 789 139 675 z m 619 88 b 297 221 493 88 386 132 b 164 543 208 310 164 417 b 297 865 164 669 208 776 b 619 999 386 954 493 999 b 942 865 746 999 853 954 b 1075 543 1031 776 1075 669 b 942 221 1075 417 1031 310 b 619 88 853 132 746 88 z m 189 543 b 315 239 189 425 231 324 b 619 113 400 154 501 113 b 924 239 738 113 839 154 b 1050 543 1008 324 1050 425 b 924 847 1050 661 1008 763 b 619 974 839 932 738 974 b 315 847 501 974 400 932 b 189 543 231 763 189 661 z m 619 138 b 332 256 507 138 411 176 b 214 543 253 335 214 431 b 332 829 214 656 253 750 b 619 949 411 908 507 949 b 906 829 732 949 826 908 b 1025 543 985 750 1025 656 b 906 256 1025 431 985 335 b 619 138 826 176 732 138 z m 239 543 b 350 274 239 439 276 349 b 619 163 425 200 515 163 b 888 274 724 163 814 200 b 1000 543 963 349 1000 439 b 888 811 1000 647 963 738 b 619 924 814 886 724 924 b 350 811 515 924 425 886 b 239 543 276 738 239 647 z m 619 188 b 368 292 521 188 438 222 b 264 543 299 361 264 444 b 368 794 264 642 299 726 b 619 899 438 864 521 899 b 871 794 718 899 803 864 b 975 543 940 726 975 642 b 871 292 975 444 940 361 b 619 188 803 222 718 188 z m 289 543 b 386 310 289 453 321 375 b 619 213 451 244 529 213 b 853 310 710 213 788 244 b 950 543 918 375 950 453 b 853 776 950 633 918 711 b 619 874 788 842 710 874 b 386 776 529 874 451 842 b 289 543 321 711 289 633 z m 457 1343 l 457 1158 l 432 1158 l 432 1343 z m 507 1343 l 507 1158 l 482 1158 l 482 1343 z m 557 1343 l 557 1158 l 532 1158 l 532 1343 z m 407 1343 l 407 1158 l 382 1158 l 382 1343 z m 742 1343 l 742 1158 l 717 1158 l 717 1343 z m 792 1343 l 792 1158 l 767 1158 l 767 1343 z m 842 1343 l 842 1158 l 817 1158 l 817 1343 z m 692 1343 l 692 1158 l 667 1158 l 667 1343 z "},"":{"ha":999,"x_min":0,"x_max":0,"o":"m 526 557 l 544 540 l 563 557 l 544 575 z m 492 522 l 510 504 l 526 522 l 510 540 z m 579 504 l 597 522 l 579 540 l 563 522 z m 544 469 l 563 486 l 544 504 l 526 486 z m 492 451 l 510 433 l 526 451 l 510 469 z m 456 486 l 474 469 l 492 486 l 474 504 z m 615 469 l 633 486 l 615 504 l 597 486 z m 579 433 l 597 451 l 579 469 l 563 451 z m 544 399 l 563 417 l 544 433 l 526 417 z m 492 381 l 510 363 l 526 381 l 510 399 z m 456 417 l 474 399 l 492 417 l 474 433 z m 421 451 l 439 433 l 456 451 l 439 469 z m 650 433 l 668 451 l 650 469 l 633 451 z m 615 399 l 633 417 l 615 433 l 597 417 z m 579 363 l 597 381 l 579 399 l 563 381 z m 544 328 l 563 346 l 544 363 l 526 346 z m 943 692 l 704 451 l 943 211 l 925 194 l 686 433 l 668 417 l 908 176 l 890 158 l 650 399 l 633 381 l 872 142 l 854 124 l 615 363 l 597 346 l 838 106 l 819 88 l 579 328 l 563 310 l 801 71 l 785 53 l 544 292 l 304 53 l 288 71 l 526 310 l 510 328 l 269 88 l 251 106 l 492 346 l 474 363 l 235 124 l 217 142 l 456 381 l 439 399 l 199 158 l 181 176 l 421 417 l 403 433 l 164 194 l 146 211 l 385 451 l 146 692 l 164 708 l 403 469 l 421 486 l 181 726 l 199 744 l 439 504 l 456 522 l 217 761 l 235 779 l 474 540 l 492 557 l 251 797 l 269 815 l 510 575 l 526 593 l 288 832 l 304 850 l 544 611 l 785 850 l 801 832 l 563 593 l 579 575 l 819 815 l 838 797 l 597 557 l 615 540 l 854 779 l 872 761 l 633 522 l 650 504 l 890 744 l 908 726 l 668 486 l 686 469 l 925 708 z "},"":{"ha":1154,"x_min":0,"x_max":0,"o":"m 972 904 l 990 922 b 971 939 983 928 978 933 l 954 922 b 972 904 961 917 967 911 z m 938 869 l 954 888 b 936 904 949 893 943 899 l 918 886 b 938 869 925 881 931 875 z m 901 833 l 919 851 b 901 868 914 857 908 863 l 883 851 b 901 833 890 846 896 840 z m 867 799 l 883 817 b 865 833 878 822 872 828 l 849 815 b 867 799 856 811 861 806 z m 382 314 l 849 781 b 831 797 842 786 836 792 l 365 332 b 382 314 371 326 376 321 z m 346 279 l 364 296 b 347 314 357 301 351 307 l 329 297 b 346 279 335 290 340 285 z m 311 243 l 329 261 b 311 279 322 267 317 272 l 294 261 b 311 243 300 254 306 249 z m 275 208 l 293 225 b 276 244 288 232 282 238 l 258 226 b 275 208 264 219 269 214 z m 240 174 l 258 190 b 240 208 251 196 246 201 l 224 192 b 240 174 229 185 235 179 z m 1007 868 l 1024 885 b 1007 904 1018 892 1013 897 l 990 888 b 1007 868 996 881 1001 875 z m 971 832 l 989 850 b 972 869 983 857 978 863 l 954 851 b 971 832 960 844 965 839 z m 936 797 l 953 815 b 938 833 949 822 943 828 l 919 817 b 936 797 925 810 931 804 z m 900 763 l 918 779 b 901 799 913 786 907 792 l 885 781 b 900 763 890 775 896 769 z m 419 281 l 882 743 b 865 763 876 750 871 756 l 400 297 b 419 281 407 292 413 286 z m 383 244 l 400 263 b 382 278 393 267 388 272 l 364 261 b 383 244 371 256 376 250 z m 347 210 l 365 226 b 346 243 358 232 353 238 l 329 225 b 347 210 335 219 340 214 z m 313 174 l 331 192 b 311 208 324 197 318 203 l 293 190 b 313 174 300 185 306 179 z m 278 139 l 294 156 b 275 172 288 161 282 167 l 258 156 b 278 139 265 150 271 144 z m 1038 828 l 1054 846 b 1040 865 1050 853 1044 858 l 1022 849 b 1038 828 1028 842 1033 835 z m 1001 792 l 1019 810 b 1004 831 1015 817 1010 824 l 986 813 b 1001 792 992 806 997 799 z m 965 756 l 983 774 b 968 794 979 781 974 788 l 950 776 b 965 756 956 769 961 763 z m 929 719 l 946 738 l 933 758 l 915 742 b 929 719 919 735 925 726 z m 463 253 l 910 700 b 897 722 906 708 901 715 l 440 265 b 463 253 447 261 454 257 z m 425 217 l 443 233 b 421 247 436 238 428 243 l 404 229 z m 389 179 l 407 197 b 386 213 400 201 393 207 l 368 194 b 389 179 375 189 382 183 z m 353 143 l 371 161 b 350 176 364 165 357 171 l 332 158 b 353 143 339 153 346 147 z m 318 108 l 335 125 b 314 140 328 129 321 135 l 297 124 b 318 108 304 118 311 113 z m 921 676 l 486 242 b 619 213 528 222 572 213 b 853 310 710 213 788 244 b 950 543 918 375 950 453 b 921 676 950 590 940 635 z m 960 714 l 940 696 b 975 543 964 647 975 597 b 871 290 975 444 940 360 b 619 188 803 222 718 188 b 467 222 565 188 515 199 l 449 203 b 619 163 503 176 560 163 b 888 274 724 163 814 200 b 1000 543 963 349 1000 439 b 960 714 1000 603 986 660 z m 996 751 l 978 733 b 1025 543 1010 674 1025 611 b 906 256 1025 431 985 335 b 619 138 826 176 732 138 b 429 185 551 138 489 153 l 411 167 b 619 113 476 131 546 113 b 924 239 738 113 839 154 b 1050 543 1008 324 1050 425 b 996 751 1050 617 1032 686 z m 1033 789 l 1014 769 b 1075 543 1054 700 1075 625 b 942 221 1075 417 1031 310 b 619 88 853 132 746 88 b 393 149 538 88 463 108 l 374 129 b 619 63 450 85 532 63 b 958 203 751 63 865 110 b 1100 543 1053 297 1100 411 b 1033 789 1100 631 1078 713 z m 1068 824 l 1051 807 b 1125 543 1100 726 1125 639 b 976 185 1125 403 1075 283 b 619 38 878 86 760 38 b 356 111 524 38 436 63 l 339 94 b 619 14 425 40 518 14 b 994 169 765 14 890 65 b 1150 543 1099 274 1150 397 b 1068 824 1150 644 1122 739 z m 324 397 l 765 839 b 619 874 719 863 671 874 b 386 776 529 874 451 842 b 289 543 321 711 289 633 b 324 397 289 492 300 443 z m 286 360 l 304 378 b 264 543 278 429 264 485 b 367 794 264 642 299 726 b 619 899 436 864 521 899 b 785 858 678 899 733 885 l 803 876 b 619 924 746 908 685 924 b 350 811 515 924 425 886 b 239 543 276 738 239 647 b 286 360 239 478 254 417 z m 250 324 l 268 342 b 214 543 232 404 214 471 b 332 829 214 656 253 750 b 619 949 411 908 507 949 b 821 894 692 949 758 931 l 839 913 b 619 974 771 953 699 974 b 315 847 501 974 400 932 b 189 543 231 763 189 661 b 250 324 189 464 210 392 z m 213 286 l 231 304 b 164 543 186 378 164 457 b 297 865 164 669 208 776 b 619 999 386 954 493 999 b 858 932 706 999 785 976 l 876 950 b 619 1024 797 999 713 1024 b 279 882 488 1024 374 976 b 139 543 186 789 139 675 b 213 286 139 450 164 365 z m 178 251 l 194 268 b 114 543 140 351 114 443 b 261 900 114 683 163 801 b 619 1049 360 999 479 1049 b 894 968 719 1049 811 1022 l 911 985 b 619 1074 824 1044 726 1074 b 244 918 474 1074 349 1022 b 89 543 140 814 89 689 b 178 251 89 436 118 339 z m 210 247 l 192 231 b 207 210 197 224 203 217 l 225 228 b 210 247 219 235 214 240 z m 246 283 l 228 265 b 242 246 232 258 238 253 l 260 263 b 246 283 256 269 250 276 z m 281 319 l 263 301 b 278 281 268 294 274 288 l 296 299 b 281 319 292 306 286 313 z m 317 356 l 299 338 b 314 317 303 331 308 324 l 331 335 b 317 356 326 342 321 349 z m 789 826 l 336 374 b 350 353 340 367 344 360 l 810 813 b 789 826 803 818 796 822 z m 825 864 l 807 846 b 828 832 814 842 821 836 l 846 849 b 825 864 839 854 832 860 z m 861 900 l 843 882 b 864 867 850 876 857 871 l 882 885 b 861 900 875 889 868 894 z m 897 935 l 879 917 b 900 903 886 913 893 907 l 917 921 b 897 935 910 925 904 931 z m 932 971 l 915 953 b 935 938 922 949 928 943 l 953 956 b 932 971 946 961 939 967 z m 1031 1069 l 951 989 b 971 974 958 985 964 979 l 1049 1051 l 1067 1033 l 990 957 b 1008 940 996 951 1001 946 l 1083 1017 l 1101 999 l 1025 922 b 1042 904 1031 917 1036 911 l 1119 981 l 1138 963 l 1058 885 b 1074 864 1063 878 1068 871 l 1154 946 l 1172 928 l 1088 843 b 1175 543 1146 751 1175 651 b 1013 150 1175 389 1121 258 b 619 -11 904 43 774 -11 b 321 76 511 -11 411 18 l 225 -19 l 208 -1 l 299 90 b 279 106 292 94 286 100 l 190 17 l 172 35 l 260 121 b 240 138 253 126 247 132 l 156 51 l 138 69 l 224 156 b 206 174 217 161 211 167 l 119 88 l 101 106 l 190 193 b 174 213 185 200 179 206 l 85 122 l 67 140 l 160 233 b 65 543 97 326 65 431 b 226 936 65 697 119 828 b 619 1099 335 1044 465 1099 b 931 1004 733 1099 838 1067 l 1014 1088 z "},"":{"ha":890,"x_min":0,"x_max":0,"o":"m 890 389 b 772 106 890 279 851 185 b 489 -11 694 28 600 -11 b 204 106 378 -11 283 28 b 88 389 126 185 88 279 l 88 1086 l 113 1086 l 113 389 b 222 124 113 285 149 197 b 489 14 296 50 385 14 b 754 124 593 14 681 50 b 865 389 828 197 865 285 l 865 1086 l 890 1086 z m 840 389 b 738 140 840 293 806 210 b 489 38 669 72 586 38 b 240 140 392 38 308 72 b 138 389 172 210 138 293 l 138 1086 l 163 1086 l 163 389 b 258 158 163 299 194 222 b 489 63 322 94 399 63 b 719 158 579 63 657 94 b 815 389 783 222 815 299 l 815 1086 l 840 1086 z m 790 389 b 701 176 790 307 761 236 b 489 88 642 117 571 88 b 276 176 407 88 336 117 b 188 389 217 236 188 307 l 188 1086 l 213 1086 l 213 389 b 293 193 213 313 239 247 b 489 113 347 139 413 113 b 683 193 565 113 629 139 b 765 389 738 247 765 313 l 765 1086 l 790 1086 z m 740 389 b 665 211 740 321 715 261 b 489 138 617 163 557 138 b 311 211 421 138 361 163 b 238 389 263 261 238 321 l 238 1086 l 263 1086 l 263 389 b 329 229 263 326 285 274 b 489 163 374 185 426 163 b 649 229 551 163 606 185 b 715 389 693 274 715 326 l 715 1086 l 740 1086 z m 690 389 b 631 246 690 333 671 286 b 489 188 592 207 544 188 b 346 246 433 188 386 207 b 288 389 307 286 288 333 l 288 1086 l 313 1086 l 313 389 b 364 264 313 340 329 299 b 489 213 399 229 440 213 b 614 264 538 213 579 229 b 665 389 649 299 665 340 l 665 1086 l 690 1086 z m 429 1353 l 621 1158 l 586 1158 l 393 1353 z m 499 1353 l 693 1158 l 658 1158 l 464 1353 z m 358 1353 l 550 1158 l 515 1158 l 324 1353 z "},"":{"ha":890,"x_min":0,"x_max":0,"o":"m 890 389 b 772 106 890 279 851 185 b 489 -11 694 28 600 -11 b 204 106 378 -11 283 28 b 88 389 126 185 88 279 l 88 1086 l 113 1086 l 113 389 b 222 124 113 285 149 197 b 489 14 296 50 385 14 b 754 124 593 14 681 50 b 865 389 828 197 865 285 l 865 1086 l 890 1086 z m 840 389 b 738 140 840 293 806 210 b 489 38 669 72 586 38 b 240 140 392 38 308 72 b 138 389 172 210 138 293 l 138 1086 l 163 1086 l 163 389 b 258 158 163 299 194 222 b 489 63 322 94 399 63 b 719 158 579 63 657 94 b 815 389 783 222 815 299 l 815 1086 l 840 1086 z m 790 389 b 701 176 790 307 761 236 b 489 88 642 117 571 88 b 276 176 407 88 336 117 b 188 389 217 236 188 307 l 188 1086 l 213 1086 l 213 389 b 293 193 213 313 239 247 b 489 113 347 139 413 113 b 683 193 565 113 629 139 b 765 389 738 247 765 313 l 765 1086 l 790 1086 z m 740 389 b 665 211 740 321 715 261 b 489 138 617 163 557 138 b 311 211 421 138 361 163 b 238 389 263 261 238 321 l 238 1086 l 263 1086 l 263 389 b 329 229 263 326 285 274 b 489 163 374 185 426 163 b 649 229 551 163 606 185 b 715 389 693 274 715 326 l 715 1086 l 740 1086 z m 690 389 b 631 246 690 333 671 286 b 489 188 592 207 544 188 b 346 246 433 188 386 207 b 288 389 307 286 288 333 l 288 1086 l 313 1086 l 313 389 b 364 264 313 340 329 299 b 489 213 399 229 440 213 b 614 264 538 213 579 229 b 665 389 649 299 665 340 l 665 1086 l 690 1086 z m 590 1353 l 397 1158 l 363 1158 l 556 1353 z m 519 1353 l 326 1158 l 290 1158 l 485 1353 z m 661 1353 l 468 1158 l 433 1158 l 625 1353 z "},"":{"ha":890,"x_min":0,"x_max":0,"o":"m 890 389 b 772 106 890 279 851 185 b 489 -11 694 28 600 -11 b 204 106 378 -11 283 28 b 88 389 126 185 88 279 l 88 1086 l 113 1086 l 113 389 b 222 124 113 285 149 197 b 489 14 296 50 385 14 b 754 124 593 14 681 50 b 865 389 828 197 865 285 l 865 1086 l 890 1086 z m 840 389 b 738 140 840 293 806 210 b 489 38 669 72 586 38 b 240 140 392 38 308 72 b 138 389 172 210 138 293 l 138 1086 l 163 1086 l 163 389 b 258 158 163 299 194 222 b 489 63 322 94 399 63 b 719 158 579 63 657 94 b 815 389 783 222 815 299 l 815 1086 l 840 1086 z m 790 389 b 701 176 790 307 761 236 b 489 88 642 117 571 88 b 276 176 407 88 336 117 b 188 389 217 236 188 307 l 188 1086 l 213 1086 l 213 389 b 293 193 213 313 239 247 b 489 113 347 139 413 113 b 683 193 565 113 629 139 b 765 389 738 247 765 313 l 765 1086 l 790 1086 z m 740 389 b 665 211 740 321 715 261 b 489 138 617 163 557 138 b 311 211 421 138 361 163 b 238 389 263 261 238 321 l 238 1086 l 263 1086 l 263 389 b 329 229 263 326 285 274 b 489 163 374 185 426 163 b 649 229 551 163 606 185 b 715 389 693 274 715 326 l 715 1086 l 740 1086 z m 690 389 b 631 246 690 333 671 286 b 489 188 592 207 544 188 b 346 246 433 188 386 207 b 288 389 307 286 288 333 l 288 1086 l 313 1086 l 313 389 b 364 264 313 340 329 299 b 489 213 399 229 440 213 b 614 264 538 213 579 229 b 665 389 649 299 665 340 l 665 1086 l 690 1086 z m 442 1353 l 249 1158 l 213 1158 l 407 1353 z m 513 1353 l 319 1158 l 285 1158 l 478 1353 z m 531 1300 l 513 1282 l 635 1158 l 599 1158 l 494 1264 l 390 1158 l 356 1158 l 547 1353 l 583 1353 l 776 1158 l 742 1158 l 565 1335 l 547 1317 l 704 1158 l 669 1158 z "},"":{"ha":890,"x_min":0,"x_max":0,"o":"m 890 389 b 772 106 890 279 851 185 b 489 -11 694 28 600 -11 b 204 106 378 -11 283 28 b 88 389 126 185 88 279 l 88 1086 l 113 1086 l 113 389 b 222 124 113 285 149 197 b 489 14 296 50 385 14 b 754 124 593 14 681 50 b 865 389 828 197 865 285 l 865 1086 l 890 1086 z m 840 389 b 738 140 840 293 806 210 b 489 38 669 72 586 38 b 240 140 392 38 308 72 b 138 389 172 210 138 293 l 138 1086 l 163 1086 l 163 389 b 258 158 163 299 194 222 b 489 63 322 94 399 63 b 719 158 579 63 657 94 b 815 389 783 222 815 299 l 815 1086 l 840 1086 z m 790 389 b 701 176 790 307 761 236 b 489 88 642 117 571 88 b 276 176 407 88 336 117 b 188 389 217 236 188 307 l 188 1086 l 213 1086 l 213 389 b 293 193 213 313 239 247 b 489 113 347 139 413 113 b 683 193 565 113 629 139 b 765 389 738 247 765 313 l 765 1086 l 790 1086 z m 740 389 b 665 211 740 321 715 261 b 489 138 617 163 557 138 b 311 211 421 138 361 163 b 238 389 263 261 238 321 l 238 1086 l 263 1086 l 263 389 b 329 229 263 326 285 274 b 489 163 374 185 426 163 b 649 229 551 163 606 185 b 715 389 693 274 715 326 l 715 1086 l 740 1086 z m 690 389 b 631 246 690 333 671 286 b 489 188 592 207 544 188 b 346 246 433 188 386 207 b 288 389 307 286 288 333 l 288 1086 l 313 1086 l 313 389 b 364 264 313 340 329 299 b 489 213 399 229 440 213 b 614 264 538 213 579 229 b 665 389 649 299 665 340 l 665 1086 l 690 1086 z m 331 1343 l 331 1158 l 306 1158 l 306 1343 z m 381 1343 l 381 1158 l 356 1158 l 356 1343 z m 431 1343 l 431 1158 l 406 1158 l 406 1343 z m 281 1343 l 281 1158 l 256 1158 l 256 1343 z m 615 1343 l 615 1158 l 590 1158 l 590 1343 z m 665 1343 l 665 1158 l 640 1158 l 640 1343 z m 715 1343 l 715 1158 l 690 1158 l 690 1343 z m 565 1343 l 565 1158 l 540 1158 l 540 1343 z "},"":{"ha":958,"x_min":0,"x_max":0,"o":"m 608 390 l 274 1086 l 300 1086 l 521 625 l 742 1086 l 768 1086 l 533 597 l 546 572 l 794 1086 l 821 1086 l 558 546 l 571 519 l 846 1086 l 872 1086 l 583 493 l 596 468 l 899 1086 l 925 1086 l 608 442 l 621 417 l 953 1086 l 979 1086 l 633 390 l 633 0 l 608 0 z m 583 0 l 558 0 l 558 390 l 221 1086 l 247 1086 l 583 390 z m 533 0 l 508 0 l 508 390 l 169 1086 l 196 1086 l 533 390 z m 483 0 l 458 0 l 458 390 l 117 1086 l 143 1086 l 483 390 z m 433 0 l 408 0 l 408 390 l 61 1086 l 88 1086 l 433 390 z m 597 1353 l 406 1158 l 369 1158 l 563 1353 z m 526 1353 l 333 1158 l 299 1158 l 492 1353 z m 668 1353 l 475 1158 l 440 1158 l 633 1353 z "},"":{"ha":825,"x_min":0,"x_max":0,"o":"m 163 861 l 163 0 l 138 0 l 138 861 z m 213 861 l 213 0 l 188 0 l 188 861 z m 263 861 l 263 0 l 238 0 l 238 861 z m 113 861 l 113 0 l 88 0 l 88 861 z m 313 836 l 313 811 l 482 811 b 686 725 561 811 629 782 b 772 521 743 668 772 600 b 686 315 772 442 743 372 b 482 231 629 258 561 231 l 313 231 l 313 206 l 482 206 b 706 297 569 206 644 236 b 797 521 767 360 797 433 b 706 744 797 608 767 683 b 482 836 644 806 569 836 z m 313 786 l 313 761 l 482 761 b 651 690 549 761 606 738 b 722 521 699 643 722 586 b 651 351 722 456 699 399 b 482 281 604 304 547 281 l 313 281 l 313 256 l 482 256 b 669 333 556 256 618 282 b 747 521 721 385 747 447 b 669 708 747 594 721 657 b 482 786 618 760 556 786 z m 313 736 l 313 711 l 482 711 b 617 654 535 711 579 692 b 672 521 654 617 672 572 b 615 386 672 469 653 424 b 482 331 578 349 533 331 l 313 331 l 313 306 l 482 306 b 633 368 542 306 592 326 b 697 521 676 411 697 461 b 633 672 697 581 676 631 b 482 736 592 715 542 736 z m 313 686 l 313 661 l 482 661 b 622 521 560 661 622 599 b 482 381 622 443 560 381 l 313 381 l 313 356 l 482 356 b 599 404 528 356 567 372 b 647 521 631 436 647 475 b 599 638 647 567 631 606 b 482 686 567 669 528 686 z m 313 638 l 313 404 l 482 404 b 597 521 544 404 597 458 b 482 638 597 583 544 638 z m 482 861 b 722 761 575 861 656 828 b 822 521 789 694 822 614 b 722 281 822 428 789 347 b 482 181 656 214 575 181 l 313 181 l 313 0 l 288 0 l 288 861 z "},"":{"ha":1358,"x_min":0,"x_max":0,"o":"m 1347 883 b 1068 1074 1301 996 1192 1074 b 857 985 986 1074 917 1044 b 768 774 797 926 768 856 b 846 572 768 696 794 629 b 1040 478 899 517 964 485 b 1179 332 1122 471 1179 410 b 1036 188 1179 253 1115 188 b 907 271 976 188 933 215 l 928 283 b 1036 213 947 236 983 213 b 1154 332 1101 213 1154 267 b 1040 453 1154 394 1103 447 b 831 554 958 460 888 493 b 744 774 774 617 744 689 b 839 1003 744 864 776 940 b 1068 1099 901 1067 978 1099 b 1368 897 1201 1099 1318 1015 z m 1260 833 b 1068 974 1233 917 1157 974 b 926 914 1014 974 967 954 b 868 774 888 875 868 828 b 921 639 868 722 886 676 b 1050 575 956 601 999 579 b 1214 497 1117 569 1171 543 b 1279 332 1257 451 1279 397 b 1207 160 1279 265 1256 208 b 1036 88 1160 111 1103 88 b 824 213 946 88 864 136 l 844 226 b 1036 113 886 150 950 113 b 1190 176 1096 113 1147 133 b 1254 332 1233 219 1254 272 b 1193 481 1254 389 1233 439 b 1049 551 1153 524 1106 547 b 904 622 992 556 944 579 b 844 774 864 665 844 715 b 910 932 844 836 867 889 b 1068 999 953 976 1006 999 b 1279 846 1164 999 1247 935 z m 1167 779 b 1068 874 1163 831 1119 874 b 969 774 1014 874 969 828 b 1063 674 969 719 1011 678 b 1283 569 1149 667 1222 632 b 1379 332 1347 503 1379 424 b 1278 89 1379 238 1346 157 b 1036 -11 1211 22 1131 -11 b 740 156 914 -11 803 54 l 763 169 b 1036 14 824 65 915 14 b 1261 107 1124 14 1199 44 b 1354 332 1324 169 1354 244 b 1268 550 1354 418 1325 490 b 1060 650 1211 610 1142 643 b 943 774 992 656 943 707 b 1068 899 943 844 1000 899 b 1192 794 1129 899 1182 851 z m 1214 807 b 1068 924 1201 874 1139 924 b 963 879 1028 924 992 908 b 918 774 933 850 918 814 b 1057 625 918 696 978 632 b 1249 532 1132 618 1196 588 b 1329 332 1303 478 1329 411 b 1243 124 1329 251 1300 182 b 1036 38 1186 67 1117 38 b 782 183 928 38 843 86 l 803 199 b 1036 63 849 117 938 63 b 1225 142 1110 63 1174 89 b 1304 332 1278 194 1304 258 b 1233 514 1304 403 1281 464 b 1054 600 1186 565 1126 593 b 940 657 1010 604 972 624 b 894 774 910 690 894 729 b 944 897 894 822 911 863 b 1068 949 979 932 1019 949 b 1236 819 1147 949 1215 896 z m 1303 857 b 1068 1024 1269 956 1174 1024 b 892 950 1000 1024 940 999 b 818 774 843 901 818 842 b 883 606 818 708 840 653 b 1044 526 928 558 982 532 b 1175 464 1096 522 1140 501 b 1229 332 1211 428 1229 383 b 1172 194 1229 278 1210 232 b 1036 138 1135 157 1090 138 b 865 240 957 138 900 172 l 886 256 b 1036 163 918 193 968 163 b 1154 213 1082 163 1122 179 b 1204 332 1188 246 1204 286 b 1157 447 1204 376 1189 415 b 1043 503 1126 481 1089 499 b 867 589 974 508 915 538 b 796 774 819 640 796 703 b 875 968 796 850 822 914 b 1068 1049 928 1022 992 1049 b 1324 871 1185 1049 1285 976 z m 668 883 b 389 1074 622 996 513 1074 b 178 985 307 1074 238 1044 b 89 774 118 926 89 856 b 167 572 89 696 115 629 b 361 478 219 517 285 485 b 500 332 443 471 500 410 b 357 188 500 253 436 188 b 228 271 297 188 254 215 l 249 283 b 357 213 268 236 304 213 b 475 332 422 213 475 267 b 361 453 475 394 424 447 b 151 554 279 460 208 493 b 65 774 94 617 65 689 b 160 1003 65 864 97 940 b 389 1099 222 1067 299 1099 b 689 897 522 1099 639 1015 z m 581 833 b 389 974 554 917 478 974 b 247 914 335 974 288 954 b 189 774 208 875 189 828 b 242 639 189 722 207 676 b 371 575 276 601 319 579 b 535 497 438 569 492 543 b 600 332 578 451 600 397 b 528 160 600 265 576 208 b 357 88 481 111 424 88 b 144 213 267 88 185 136 l 165 226 b 357 113 207 150 271 113 b 511 176 417 113 468 133 b 575 332 554 219 575 272 b 514 481 575 389 554 439 b 369 551 474 524 426 547 b 225 622 313 556 265 579 b 165 774 185 665 165 715 b 231 932 165 836 188 889 b 389 999 274 976 326 999 b 600 846 485 999 568 935 z m 488 779 b 389 874 483 831 440 874 b 290 774 335 874 290 828 b 383 674 290 719 332 678 b 604 569 469 667 543 632 b 700 332 668 503 700 424 b 599 89 700 238 667 157 b 357 -11 532 22 451 -11 b 61 156 235 -11 124 54 l 83 169 b 357 14 144 65 236 14 b 582 107 444 14 519 44 b 675 332 644 169 675 244 b 589 550 675 418 646 490 b 381 650 532 610 463 643 b 264 774 313 656 264 707 b 389 899 264 844 321 899 b 513 794 450 899 503 851 z m 535 807 b 389 924 522 874 460 924 b 283 879 349 924 313 908 b 239 774 254 850 239 814 b 378 625 239 696 299 632 b 569 532 453 618 517 588 b 650 332 624 478 650 411 b 564 124 650 251 621 182 b 357 38 507 67 438 38 b 103 183 249 38 164 86 l 124 199 b 357 63 169 117 258 63 b 546 142 431 63 494 89 b 625 332 599 194 625 258 b 554 514 625 403 601 464 b 375 600 507 565 447 593 b 261 657 331 604 293 624 b 215 774 231 690 215 729 b 265 897 215 822 232 863 b 389 949 300 932 340 949 b 557 819 468 949 536 896 z m 624 857 b 389 1024 590 956 494 1024 b 213 950 321 1024 261 999 b 139 774 164 901 139 842 b 204 606 139 708 161 653 b 365 526 249 558 303 532 b 496 464 417 522 461 501 b 550 332 532 428 550 383 b 493 194 550 278 531 232 b 357 138 456 157 411 138 b 186 240 278 138 221 172 l 207 256 b 357 163 239 193 289 163 b 475 213 403 163 443 179 b 525 332 508 246 525 286 b 478 447 525 376 510 415 b 364 503 447 481 410 499 b 188 589 294 508 236 538 b 117 774 140 640 117 703 b 196 968 117 850 143 914 b 389 1049 249 1022 313 1049 b 644 871 506 1049 606 976 z "},"":{"ha":1138,"x_min":0,"x_max":0,"o":"m 419 293 l 410 268 l 807 268 l 799 293 z m 439 343 l 429 318 l 789 318 l 779 343 z m 750 418 l 610 778 l 468 418 z m 460 393 l 449 368 l 769 368 l 761 393 z m 828 219 l 819 243 l 401 243 l 390 219 z m 382 194 l 306 0 l 279 0 l 703 1086 l 731 1086 l 1156 0 l 1128 0 l 717 1053 l 703 1019 l 1100 0 l 1074 0 l 690 983 l 676 950 l 1049 0 l 1021 0 l 664 917 l 650 882 l 996 0 l 968 0 l 638 849 l 624 811 l 940 0 l 914 0 l 839 194 z m 675 1086 l 251 0 l 224 0 l 649 1086 z m 622 1086 l 199 0 l 171 0 l 596 1086 z m 569 1086 l 146 0 l 118 0 l 542 1086 z m 514 1086 l 92 0 l 63 0 l 488 1086 z m 488 1353 l 679 1158 l 644 1158 l 453 1353 z m 558 1353 l 751 1158 l 717 1158 l 522 1353 z m 417 1353 l 610 1158 l 574 1158 l 382 1353 z "},"":{"ha":1138,"x_min":0,"x_max":0,"o":"m 419 293 l 410 268 l 807 268 l 799 293 z m 439 343 l 429 318 l 789 318 l 779 343 z m 750 418 l 610 778 l 468 418 z m 460 393 l 449 368 l 769 368 l 761 393 z m 828 219 l 819 243 l 401 243 l 390 219 z m 382 194 l 306 0 l 279 0 l 703 1086 l 731 1086 l 1156 0 l 1128 0 l 717 1053 l 703 1019 l 1100 0 l 1074 0 l 690 983 l 676 950 l 1049 0 l 1021 0 l 664 917 l 650 882 l 996 0 l 968 0 l 638 849 l 624 811 l 940 0 l 914 0 l 839 194 z m 675 1086 l 251 0 l 224 0 l 649 1086 z m 622 1086 l 199 0 l 171 0 l 596 1086 z m 569 1086 l 146 0 l 118 0 l 542 1086 z m 514 1086 l 92 0 l 63 0 l 488 1086 z m 767 1353 l 574 1158 l 539 1158 l 731 1353 z m 696 1353 l 503 1158 l 467 1158 l 661 1353 z m 838 1353 l 644 1158 l 610 1158 l 801 1353 z "},"":{"ha":1138,"x_min":0,"x_max":0,"o":"m 419 293 l 410 268 l 807 268 l 799 293 z m 439 343 l 429 318 l 789 318 l 779 343 z m 750 418 l 610 778 l 468 418 z m 460 393 l 449 368 l 769 368 l 761 393 z m 828 219 l 819 243 l 401 243 l 390 219 z m 382 194 l 306 0 l 279 0 l 703 1086 l 731 1086 l 1156 0 l 1128 0 l 717 1053 l 703 1019 l 1100 0 l 1074 0 l 690 983 l 676 950 l 1049 0 l 1021 0 l 664 917 l 650 882 l 996 0 l 968 0 l 638 849 l 624 811 l 940 0 l 914 0 l 839 194 z m 675 1086 l 251 0 l 224 0 l 649 1086 z m 622 1086 l 199 0 l 171 0 l 596 1086 z m 569 1086 l 146 0 l 118 0 l 542 1086 z m 514 1086 l 92 0 l 63 0 l 488 1086 z m 544 1353 l 351 1158 l 315 1158 l 510 1353 z m 615 1353 l 422 1158 l 388 1158 l 581 1353 z m 633 1300 l 615 1282 l 738 1158 l 701 1158 l 597 1264 l 493 1158 l 458 1158 l 650 1353 l 686 1353 l 879 1158 l 844 1158 l 668 1335 l 650 1317 l 807 1158 l 772 1158 z "},"":{"ha":1138,"x_min":0,"x_max":0,"o":"m 419 293 l 410 268 l 807 268 l 799 293 z m 439 343 l 429 318 l 789 318 l 779 343 z m 750 418 l 610 778 l 468 418 z m 460 393 l 449 368 l 769 368 l 761 393 z m 828 219 l 819 243 l 401 243 l 390 219 z m 382 194 l 306 0 l 279 0 l 703 1086 l 731 1086 l 1156 0 l 1128 0 l 717 1053 l 703 1019 l 1100 0 l 1074 0 l 690 983 l 676 950 l 1049 0 l 1021 0 l 664 917 l 650 882 l 996 0 l 968 0 l 638 849 l 624 811 l 940 0 l 914 0 l 839 194 z m 675 1086 l 251 0 l 224 0 l 649 1086 z m 622 1086 l 199 0 l 171 0 l 596 1086 z m 569 1086 l 146 0 l 118 0 l 542 1086 z m 514 1086 l 92 0 l 63 0 l 488 1086 z m 468 1306 b 329 1282 415 1306 369 1297 l 329 1308 b 468 1331 379 1324 425 1331 b 611 1306 517 1331 565 1322 b 750 1282 658 1290 704 1282 b 893 1306 801 1282 850 1290 l 893 1279 b 750 1257 844 1264 797 1257 b 611 1281 704 1257 658 1265 b 468 1306 564 1297 517 1306 z m 468 1256 b 329 1229 421 1256 375 1247 l 329 1256 b 468 1281 375 1272 422 1281 b 611 1256 517 1281 564 1272 b 750 1232 658 1240 704 1232 b 893 1253 792 1232 839 1239 l 893 1228 b 750 1207 847 1214 800 1207 b 611 1231 704 1207 658 1215 b 468 1256 565 1247 517 1256 z m 750 1182 b 893 1201 811 1182 858 1189 l 893 1176 b 750 1157 858 1164 810 1157 b 611 1181 704 1157 658 1165 b 468 1206 564 1197 517 1206 b 329 1175 422 1206 376 1196 l 329 1203 b 468 1231 375 1221 422 1231 b 611 1206 517 1231 565 1222 b 750 1182 658 1190 704 1182 z "},"":{"ha":1138,"x_min":0,"x_max":0,"o":"m 419 293 l 410 268 l 807 268 l 799 293 z m 439 343 l 429 318 l 789 318 l 779 343 z m 750 418 l 610 778 l 468 418 z m 460 393 l 449 368 l 769 368 l 761 393 z m 828 219 l 819 243 l 401 243 l 390 219 z m 382 194 l 306 0 l 279 0 l 703 1086 l 731 1086 l 1156 0 l 1128 0 l 717 1053 l 703 1019 l 1100 0 l 1074 0 l 690 983 l 676 950 l 1049 0 l 1021 0 l 664 917 l 650 882 l 996 0 l 968 0 l 638 849 l 624 811 l 940 0 l 914 0 l 839 194 z m 675 1086 l 251 0 l 224 0 l 649 1086 z m 622 1086 l 199 0 l 171 0 l 596 1086 z m 569 1086 l 146 0 l 118 0 l 542 1086 z m 514 1086 l 92 0 l 63 0 l 488 1086 z m 442 1343 l 442 1158 l 417 1158 l 417 1343 z m 492 1343 l 492 1158 l 467 1158 l 467 1343 z m 542 1343 l 542 1158 l 517 1158 l 517 1343 z m 392 1343 l 392 1158 l 367 1158 l 367 1343 z m 726 1343 l 726 1158 l 701 1158 l 701 1343 z m 776 1343 l 776 1158 l 751 1158 l 751 1343 z m 826 1343 l 826 1158 l 801 1158 l 801 1343 z m 676 1343 l 676 1158 l 651 1158 l 651 1343 z "}}}
